<mxfile host="Electron" modified="2023-10-16T08:35:03.322Z" agent="Mozilla/5.0 (Macintosh; Intel Mac OS X 10_15_7) AppleWebKit/537.36 (KHTML, like Gecko) draw.io/22.0.2 Chrome/114.0.5735.289 Electron/25.8.4 Safari/537.36" etag="ZVWY-w29bUR3_iy5ODRF" version="22.0.2" type="device" pages="4">
  <diagram id="Fn184u3JUudABhEVFW1s" name="JavaRoadMap">
    <mxGraphModel dx="1433" dy="916" grid="1" gridSize="10" guides="1" tooltips="1" connect="1" arrows="1" fold="1" page="1" pageScale="1" pageWidth="1169" pageHeight="827" math="0" shadow="0">
      <root>
        <mxCell id="0" />
        <mxCell id="1" parent="0" />
        <mxCell id="WEqn2A4atNCHsH8j8p4O-1" value="" style="shape=image;verticalLabelPosition=bottom;labelBackgroundColor=default;verticalAlign=top;aspect=fixed;imageAspect=0;image=data:image/jpeg,/9j/4AAQSkZJRgABAQEAYABgAAD/2wBDAAMCAgMCAgMDAwMEAwMEBQgFBQQEBQoHBwYIDAoMDAsKCwsNDhIQDQ4RDgsLEBYQERMUFRUVDA8XGBYUGBIUFRT/2wBDAQMEBAUEBQkFBQkUDQsNFBQUFBQUFBQUFBQUFBQUFBQUFBQUFBQUFBQUFBQUFBQUFBQUFBQUFBQUFBQUFBQUFBT/wAARCAMmBLEDASIAAhEBAxEB/8QAHwAAAQUBAQEBAQEAAAAAAAAAAAECAwQFBgcICQoL/8QAtRAAAgEDAwIEAwUFBAQAAAF9AQIDAAQRBRIhMUEGE1FhByJxFDKBkaEII0KxwRVS0fAkM2JyggkKFhcYGRolJicoKSo0NTY3ODk6Q0RFRkdISUpTVFVWV1hZWmNkZWZnaGlqc3R1dnd4eXqDhIWGh4iJipKTlJWWl5iZmqKjpKWmp6ipqrKztLW2t7i5usLDxMXGx8jJytLT1NXW19jZ2uHi4+Tl5ufo6erx8vP09fb3+Pn6/8QAHwEAAwEBAQEBAQEBAQAAAAAAAAECAwQFBgcICQoL/8QAtREAAgECBAQDBAcFBAQAAQJ3AAECAxEEBSExBhJBUQdhcRMiMoEIFEKRobHBCSMzUvAVYnLRChYkNOEl8RcYGRomJygpKjU2Nzg5OkNERUZHSElKU1RVVldYWVpjZGVmZ2hpanN0dXZ3eHl6goOEhYaHiImKkpOUlZaXmJmaoqOkpaanqKmqsrO0tba3uLm6wsPExcbHyMnK0tPU1dbX2Nna4uPk5ebn6Onq8vP09fb3+Pn6/9oADAMBAAIRAxEAPwD9SKKKKACiiigBdxxikoooAKKKKACiiigAooooAKKKKACiiigAooooAKKKKYBRRRSAKKKKdgCilxSUgCiiigAooooAKKMH0ooAKKKKYBRRRQAUUUUgCiiigAooooAKKKKACiiigAooooAKKKKACiiigAooooAKKKKACiiigApdxxikooAKKKKACiiigAooooAKKKKACiiigAooooAKKKKACiiigAooooAKKKKACiiigAooooAKKKKACiiigAooooAKKKKACiiigAooooAKKKKACiiigAooooAKKKKACiiigAooooAKKKKACiiigAooooAXccYpKKKACiiigAooooAKKKKACiiigAooooAKKKKACiiigAooooAKKKKACiiigAooooAKKKKACiiigAooooAKKKKACiiigAooooAKKKKACiiigAooooAKKKKACiiigAooooAKKKKACiiigAooooAVa8W034neIrPV7/SLLT/+Ehv7zXdUhtvtN0IY7eK32EKWwflwxA4znFe0g4Ncnp/w10nTNfTV4WnNytzeXmGfK77kKJOMdPlGKialpygcDZ/tBak1nb3174V+x2N9pN5qNkwu1eR3ttvmRuoHyg7vlOTnHOKbqHx18TaPHqRu/BUStYafFrM23UVIFk5YZHy/60FG+Xpx1rsZvg3oM2laZYM115Gn2d3Yw/vRny7jHmZ45PAxVzVvhjpGtJqaztcAahpCaLNtfH7hC5BHHDZc8/Ssv3ncnUytW+LJ0yx165GniQaXrNppKqZMeaJ2hXf7Y87p/s1ylj8XvFOlaRq8+p2GlySjXrqwtZbrUlt4UijJ4YldxPAAChic5OMV1Wt/A7Q9e1qfUZrzUohPc297JZxXJW3eeEoUkKY6/Io9Ki1T4E6NqWpPqCanq1jd/bJr2KS1udhhaVQJVTjhXwCfccEVNqwanMW/xZ8S+KtU8Haj4a0hbv8AtHS7+SfS5b0RQiSGdI9xfbzyGC8fxc4qh4l+MFzr2hx6lo8t9pb3EGkzlDN/qvM1FYZo9uOvDqWB5FdkPgFokOn6TbWmq61YNpcdzFb3FteFZds8vmSBmx82T61em+CPhp7GKzijntrWK3tLZI45ei284mj5I6lxye+TStVFqcRcfEzxUnjPSLTRLVL6wlu9ZSeC9uv3kptyu1VOzgDPA98HpXofg/4lQ+NNYtrSxts2/wDZMOo3Mxb/AFDysQkOP73yOT6YHrUNx8K9Otbqx1Oxe6Go6de3Wo26rcBBLJP/AKyNzg/IxA+mKZ8HvAM3gXQdQkv4be31bV76XULqG2kMkcG4/JCjEDKovHTqTVw54uzGrnefSiiiugoK4f40+JNQ8K/DnUL3S5ltL15be1S7ZQRbCWZIzKQePlDE88cV3FVNY0my1/S7vTdRtY7yxuozFNbyjKup6g1MrtaAecv4eh+FF9FrDeMtXvYPs1wbjS9XvftJv2SMvuiDH5HXaSQvGM8Vj3nxo8TeHdL+263oWnol/pU+p6YtndM5zEquYpcgYJVx8y8ZyK7HQ/gv4Z0G++1rHd6jMsD20J1K7kuRBE4wyRhydoIGDjnHFV7H4F+FbKC8i8q8nS4tXslFxdySfZ4Gxuji3H5AcDp6CsOWfTQk525+MXiXw6l5a63odgdVkt7ObTorK6YxyNczCFEkZlG3axGWHGOlbln478Saf4m8N6J4h03TYLjVbu4gMtjctImyO3aUMAQCDlduD9RW9rnw10LxM10dRtWn+0WaWL/vCMRo+9CCOjBuQw5yKxW+BfhiTT4reT+0HuY7r7YuotfSfaxJsKZ83O7GwlcdMGi1RdQMa0+LOv65q3h+w0zS7EtqL6kZ5LiVgsUVpOkeRgclg/T1rAX4/eIY/Dnh+/udM0uxn8QF3sfMlmeOKKMHe0uxCck4wFHQ8mvT/D/wx0HwvJprWEEsZ0+O6it90rNtW4dXlznrlkHXpVe8+E+g3Xh7SNHRLq1g0niyuLW5eK4hznIEgOcHPI70ctTe4tTidP8AjR4o8UDR7XQtAsl1C6s7u5uf7QmkjiTyJVjyny7mV9wK8DrzVrTfjD4i8YyWkPhvQrF5YdLt9T1AahdGML5rOqxRkA5P7tzuOAOK7jRvh3o2g3NlcWsc/nWtrLZpJNO0jMkjq7lixySWUHJrHvfgZ4V1COwiaG7gW1thZZtrt4jNAGLCKXB+dck8H1NHLU7hqU7L4qX03iE+H5dOhj1tdYW0MKyFl+xtEJhcA9/kOPTcCK9LrgtB+HtzD8Tb/wAVajHYRJDZLpemQ2ZYt9nDFt8u4AB+doC5AA6813taw5vtFIKKKK0GFFFFABRRRQAUUUUAFFFFABRRRQAUUUUAFFFFABRRRQAUUUUAFFFFABRRRQAUUUUAFFFFABRRRQAUUUUAFFFFABRRRQAUUUUAFFFFABRRRQAUUUUAFFFFABRRRQAUUUUAFFFFABRRRQAUUUUAFFFFABRRRQAUUUUAFFFFABRRRQAUUUUAFFFFABRRRQAUUUUAFFFFABRRRQAUUUUAFFFFABRRRQAUUUUAFFFFABRRRQAUUUUAFFFFABRRRQAUUUUAFFFFABRRRQAUUUUAFFFFABRRRQAUUUUAFFFFABRRRQAUUUUAFFFFABRRRQAUUUUAFFFFABRRRQAUUUUAFFFFABRRRQAUUUUAFFFFABRRRQAUUUUAFFFFABRRRQAUUUUAFFFFABRRRQAUUUUAFFFFABRRRQAUUUUAFFFFABRRRQAUUUUAFFFFABRRRQAUUUUAFFFFABRRRQAUUUUAFFFFABRRRQAUUUUAFFFFABRRRQAUUUUAFFFFABRRRQAUUUUAFFFFABRRRQAUUUUAFFFFABRRRQAUUUUAFFFFABRRRQAUUUUAFFFFABRRRQAUUUUAFFFFABRRRQAUUUUAFFFFABRRRQAUUUUAFFFFABRRRQAUUUUAFFFFABRRRQAUUUUAFFFFABRRRQAUUUUAFFFFABRRRQAUUUUAFFFFABRRRQAUUUUAFFFFABRRRQAUUUUAFFFFABRRRQAUUUUAFFFFABRRRQBBfSNDY3MinDJEzA+4UmvnjTvFXjLRfhBpvxIl8TS6kBsnvNKuLdBG8RmKMqMBkMB0r6KuIRc28sJO0SIyZHbIxXkOkfs93FppOmaHqXjC91Xwzp8qyx6T9ljhWTa+9VkcZLKD271zVoybXKTK/QfqH7SOk6f4iks/7Nml0uC+j02fUFnjzHM5Ax5Wd5UEgFgMCnab+0Gty9td3vhq+07w7cXsunrq0k0bKJkLDlAdwUlThqW6/Z9tZvFlzqUOq/Z9Mur8alcWC2kZkaYEEhZj8yoSMkY9axfAvwO1a+0m2h8Tatcf2PBqNzepoPkoBvaR9hMgOSuG3AeprHmxGxHvIu6f+07pl0sk0ujz29nNaXF5Yy/aYna4WJSxDIpJjJAyN1WLP9oqCGxubvW/DmoaJCNLXVrQSukjXMTMqKoCn5WLOowfWoNJ/Ztg0+2uLCTXWl01bOeys447KOOSJZVK5kccylQeM4re8Q/A3TPE1vBBd39x5UOjLpC7FAI2sjpKD/eDRqcdKf8AtHUPeORb49anofivX5fEWi3Wj2lnpdpJb6W8sbtLPLKyqQ4OOeAcnjBrRi/aRgmhe3Tw5dz64uoRaedOt7iKQM0qFkdZQdpXgg88YNPvf2d38Qf2rceIPFNxq+o3tvbwR3BtI41gMEheNgnIPJOQeuTWhoHwJj0y4tLy81lrvUIdSj1FmgtI4Ij5aFVjWNeFHJJPJJpfv7h7xBD8eJ7zytLtfC13P4ta7ntH0b7RGPL8pQzuZc7duGXB75qeH4+WkdlrT6nod/pF7pthFfCyutoknDuYyqe4cBfxBpdS+BzN4guvEOkeIJ9I12W9mu0ufs6yqiyoqPEUJ5Hygg561z3iH4QXGr+PPAdm41C9tdEWSbUdZumG28UkOsR55PmANjoAKq9Vbhqdr8TvFOpaP4U0O+sibG6u9TsYZUbDFUkkAdD74OKw9L+Ph1PWIYX8M39ppM+qTaMmrSSxlPtKFgMIDu2naecda7vxt4Ph8aadZ2cs7WqWt9Beho1BLGJwwX8cVyVx8JYNJ8NxRQ3d1dtp+sTa/HHHGu+aRi7eSBnpl8Zqp+0UrxG72OYt/wBpC103R9NijsLrWbwWH9oXjzTwwNFDvZR1IDudpwq9hW5/wvxdUvZP+Ee8Nahr+mWqW7X17bsi+QZlDKoQnc5CsCcdM1zHh/8AZ2ubzw/o15JfroesPpwstQils47nKb2Zdu77jgMRkV1X/CiWsNUnk0bxPfaRpl6bdtQsoY1LTtCoUMsnVNyqA2OuKhOsyfeOd0H43alLJHc+I7abSreHWNTtz5TxujQ26sxD45yoXHHU+1ap/aIOm2ktxrPha/0pJtNk1XTg80bm8hTaWHB+R8MDtPY1db4B2VzdXIu9VnuNOlv769WzMSjb9qRllTf1IyxIOKqD9n17+1kh1rxPc6sINNk0rTWNukZtIX27icfffCKMnHSj9+HvHR+BPinN4t8QXOjajoF1oF8ljFqUKXEqSCW3kYqGyp+U5U5BrqPEniSz8Maebq6ZiOiogyzH0rM03wHBp/jNPEIu5GmXSYtK8koNu1HZw+fU7sYror7T7bUrV4LmJZ4m4KuM1rL2rpvlfvdLle9yu2541d/GrVftDPBBCkJPyxsMkD3NaOl/HEtIi39gAnd4W5/I1p3/AMEtNuJneC7mtweVQgMB7VyXiD4P6lpMTy2si30SjJVRhvyr4mrLOsO3Nu6+/wDA8qUsVDVnsWh+ItO8R2wmsLhZRjJXoy/UVpV8v6LrV74Z1FLm0do5UPzIejexFfRXhfxDD4m0eG9h+UsMOmeVbuK93Ks2WPXJNWmjsw+IVbR6M1qKKK+iO0KKKKACiiigAooooAKKKKACiiigAooooAKKKKACiiigAooooAKKKKACiiigAooooAKKKKACiiigAooooAKKKKACiiigAooooAKKKKACiiigAooooAKKKKACiiigAooooAKKKKACiiigAooooAKKKKACiiigAooooAKKKKACiiigAooooAKKKKACiiigAooooAKKKKACiiigAooooAKKKKACiiigAooooAKKKKACiiigAooooAKKKKACiiigAooooAKKKKACiiigAooooAKKKKACiiigAooooAKKKKACiiigAooooAKKKKACiiigAooooAKKKKACiiigAooooAKKKKACiiigAooo/GgAooooAKKKKAClo20lABRRRQAUUUUAFFFFABRS4ooAKDRtI60UAeL/ABk8LR6ddxapbRhI7g7ZVUcbvX8aZ8E9cNrrFxpjv+7uF3oCf4h/9b+VehfEzT11DwbfgjLRL5q/h/8AWrwrwjfNp/ibTJwcbJ1z9CcH+dfneYR/s/NIVaeil/wzPErL2OIUo9T6epKOqg+tFfoZ7YUUUUwCiiigAooooAKKKKACiiigAooooAKKKKACiiigAooooAKKKKACiiigAooooAKKKKACiiigAooooAKKKKACiiigAooooAKKKKACiiigAooooAKKKKACiiigAooooAKKKKAFWkopetFwEopTSUAFFFFABRS4prMsalmIVVGSzcACkAtFYOl+PPDmt6i9hYa1Z3d6pIMMUwLcdcev4Vv4PpSUlLZgJRS47Vn2evabqE6wW19BNM2/CI4JOxtr4+jcH3qtEBfopdtJQAUUUUAFFFFABRRRQAUUUUAFFFFABRRRQAUUUUAFFFFABRRRQAUUUUAFFFFABRRRQAUUUUAFFFFABRRRQAUUUUAFFFFABRRRQAUUUUAFFFFABRRRQAUUUUAFFFFABRRRQAUUUUAFFFFABRRRQAUUUUAFFFFABRRRQAUUUUAFFFFABRRRQBxnxe8cXHw/8FS6jYwJc6ncXEFhZRyHCGeaRY0LewLZP0ridH8VeIvCfxC03Rdc8Z6V4hF2rJeWP2cW09tJs3KYsE71PIwee9eh/EbwPb/ETwlc6LcTvaM7xzwXUYy0E0bh45B64YDiuBvvg34q8Wa1o2oeIvE1iTpMxlhXTbIxNKxjZC7sSTuAPAHHWuepzc2hErl+2/aG0SS8uILjTdQsSlpcXsLTxqPPjhBLkAHIOBwGArn7f9oe91DxdZLZeGtYutIvNHa/htVtlE7gOMS8twpU8DqTWdp/7MGp2rQF9W05TDY3entJDZsJbhZ4ypllcsSz9PbrXXah8J/EFnrGjal4f1+0srmx0RdFkS7tTIkqjHzjBGCMZFY3rMnUfq37RWg6bpNlqUNhqN9YXFn9uknhjULBFkqd24jLAg/KMnil8QftDaHobXrxafqWp2VhHDJeXlnAGjt/NVWRWJI5Ksp46ZFcjqn7LU81utnaavazWbaWNPZ9QtTM8DbmZpYRuCqzFjnI7CuQ8Y/D7xfoy6/4V0iO7mTWlsvtEqWBeCeREjjZ0lziNdsYyG5yOOtPnqrdCvI9k1D9oDw9pviB9OlhuzbQ3cdhNqKqvkRTvgKh5z1YAkDAJqf4p+L9ZsNc8MeFvDk0NprGvSy/6dcR+YltDEu6RwuRuY5AArk7j9nDd4sur2G504adeaimpzNNZCS7VwVLRo5OArFeuMjJxXffEf4f3Hi6bRdS0u/Gk6/o07T2V2yeYmGUq8br3Vh/KmvaSi+Yd5PcwYfE3ib4YxarJ4wvYvEGlL5I068tIBHdTSudvkNEDgnOMMPWqeqfGqW61HSNOtbK40bUxrMFnf2OoRjzFhkjd1YYJGDtHI9Kbe/BXXPEIv8AVNb8SrN4kkktpLOS3hK2loYH3oBGSc5OdxJzzT4fgrqeo69H4h1rV7efWjqNvdy/ZYCkIihjdFiUEk5O8kk0m6myDUztB/aLtrTwxpTarbXOp6s9kb69FhGoWCHeyh2yw/ungZPFb9x8ftGa+aPTNO1LWrSFYGu72xh3xW3nAFA3OScEE4HGa46f9mB7draSzvtNubhtPGn3D6lZecqgOzLJEM8MA5GDweK37H4I6z4Y1G9Tw54kXTNJ1I2z3yG2BnDxIEJiIwqh1UAgjjtQnW6heRU8K/Ha41i+8zWIZNDtoNR1O2dJIAVlitgTktu+VlA545NasX7ROjRWs9xf6TqmmR/2fJqdr9phAN5AmNzR89QGU4ODg1T/AOGf2ur28S91VZdLnvdSuVhSIrIFvEIdS2cEqTkHFVpvgHrHiCzjh1/xBb3bWGkS6RprW9sU2LJsDSyZJy21AMDA60Xqh7x2vgb4rWfjbWrnSv7L1DSL6K0jv0i1CMIZbeQkK64J7g8V0XiTxLY+F7E3V7JsX+FV5LH0FYmleAG0/wAeL4j+1q4XRYdJ8jb/AHJGffn33Yx7V0uqaTa6xaPa3sKXELDBVxn/APVVv2vs3y/F0D3uV2PG7z9oC/8AtLm30+D7Pn5BIx3Y9yK0tH/aAtppFTUdPeAE4MkTbgPfFTah8AbGeRmt9Qlt0P3Y2UHHtXH+JPglrGjW73Fs6X8MYyRGMNj6d6+JqVc7w7c5ar5M8uUsXD3j2uHWNO8XeH7prK4S4ikhZSFPIyOhHavm6Mm3ulPQo+f1qDw74ivvCeqpc2jspU4kiJ+Vx3BFSzTC4mkmQYV2LAfU142Y5ksfGnKUbTjuclWv7XlbWqPqjT5vtGn2snXdGp/QVPWN4MuvtnhXTJc5zCo/IYrZr9Rw8/aUoy7pH0FN3imFFFFdBoFFFFABRRRQAUUUUAFFFFABRRRQAUUUUAFFFFABRRRTAKKKKQBRRRQAUUUUAFFFFABRRRQAUUUUAFFFFABRRRQAUUUUAFFFFABRRRQAUUUUAFFFFABRRRQAUUUUAFFFFABRRRQMUfrWbrfiCz0CDzLqT5j92MfeapNa1aLRtPmu5OiDhfU9hXjGpajca1fNNMTJI5wFHQegFfJZ9niyqCp01epLby8ztwuH9s7vY6PVPiVqF1IVtES1i7Ejc1YsnijVpmy19N/wFsV0mg/DV7mFJtQlaEMM+Uv3vxNdRb+A9FgXBtfMPq7E/wBa+Pp4DP8AMl7adTlT7u34I73VwtL3UrmP4F8UahqDC2uIWuIlHFwO31p3xqW8k+FfiMWPmfaPs3SLO4puG8D/AIDurr7WzgsYVit4lhjXoqipWAZSCMg8EV+i5fhcRhsKqOIqc8u55VWpGc+aKsj5313xNoumat4A/sG38PXmmyXtrDBHCWW9iZvlZvl4wAeQ3eq7+JdYs/BA1O+8SarLdax4gmsYoYXjjEcUc0gEau3EeQvLnPTGK98tfCeiWNw9xb6RYwTuwZpI7ZAxIOQc49anudB029sTZ3FhbTWhbf5DxKU3ZzuxjrnnNarDVNfesRzI+bvC/wAQtZ16TRdG1PxJcaTpjahqEc+pxzo0wEQUwxGXG3ncxzjnbXOaV4i1Lwv4Yt9W0edr+/hsdZMV0Vyzg6hgy46ZwSfSvq2Twpoktu1u+kWTQMwcxG3TaWHQ4x1HrVmPRdOhjCR2FtGiqyBVhUAKxyw6dD39aj6pVdryK5keUfBTxBrF94p1bT7m9mvdMjtIZ0+13kdzKkrEg/NGMBSOcHkV7Ic1R0vRNO0ON49OsbexRzuZbeJUBPqcCrtd9GEqcLSd2ZSd9gooorckKKKKACiiigAooooAKKKKACiiigAooooAKKKKACiiigAooooAKKKKACiiigAooooAKKKKACiiigAooooAKKKKACiiigAooooAKKKKACiiigAooooAKKKKACiiigAooooAKKKKACiiigAooooAKKKKACiiigAooooAKKKKACiiigApc0lFAC0bjSUUwFzSUUUgClHFJRimAUuaOaSkAud1Hp1zRg+lHNADlwRg0H5fem0lACkCg/jR9KPrTASilpdtTuB4D8bPBy6Nqiapax7La6J8wKOFf/69cJbtugQ+1fT3jHw6nijw9d2DYDuhMbH+Fh0NfMC28un3U1nOpSaFirK3UEV+X59glhcR7SHwy/M+dxdL2c+ZbM+gfhBqK3ng+KLPzW7tGR+ort68K+EfihND1aWyuHCW91jDE8K46fnXuq4O0g5BGa+zyXEqvg4K+sdGethJqdJLqgopf5Vz3jbxlbeDdKNzMPMmc7Yoc/fP+FezUqwoxc5uyR1Skoq7N8sFGScCm+dH/fX86+Y9b+Ieua7MzS30kURPEUJKgVk/25qH/P7cf9/DXyVTiWjGVoQbR5cswhfRH1oJIj/y0X86QyIP41/Ovkv+2tQX/l+uP+/hpf7c1A/8v1x/38NY/wCs9P8A59v7yf7Rj/KfWfmp/fX86Tzk/vr+dfJn9tah/wA/1x/38NH9tah/z/XH/fw0/wDWeH/Pp/eH9or+U+tPNT++v50ecn99fzr5L/trUP8An+uP+/ho/trUP+f64/7+Gj/Wen/z6f3h/aC/lPrTzU/vr+dKrBuhz9K+ShrWof8AP9cf9/DWpo3jzW9DmEkF/KwHVJW3Kfwq4cTUW1zU2kNZhG+qPqKiuW8A+ObfxnpxcAQ3kQAlhz09x7V1NfXUK1PEU1Vpu6Z6kJqouZBRS4oxitjQSilxSfjQIWkoooGFFFFAgooooAKKKKACiiigAooooAKKKKACiiigAooooAKKKKACiiigAooooAKKKKACiiigAooooAKKKKAAUuKM0rMFXJ4xR5jPOfidqm66t7BW+VV3uPc9P0qn8OdDTUNSe7lXMVv90HoWrB8SX51LW7y4zlWkIX6DgV6b4D0/7B4dgJGHm/eH8en6V+Q4SP8AbGfyqT1hFv7loj3qj+r4VJbs6JcelFJRX68eAFFFFABRRRQAUUUUAFFFFABRRRQAUUUUAFFFFABRRRQAUUUUAFFFFABRRRQAUUUUAFFFFABRRRQAUUUUAFFFFABRRRQAUUUUAFFFFABRRRQAUUUUAFFFFABRRRQAUUUUAFFFFABRRRQAUUUUAFFFFABRRRQAUUUUAFFFFABRRRQAUUUUAFFFFABRRRQAUUUUAFFFFABRRRQAvpXz/Y+LPiPf+G/E/iyz12wmtdI1C9jXR57LHmQwSEFfMByGKjrjrX0B6V4v/wAKP8QjTNa0KLxalr4d1a+uLq4hhtMT7JpC7xhyeMg4zisKnNpYllub9pLQ4oUmFldXFvDbW9xf3EQXZaeaoZVOTkkA5OM4FXrL47aXq3ii/wBGsbG7nS1uDaSXyKCiShN/K53bcEfNjFc5r37Mtld69eXWnPp8NlfLAsqXlkJ5YfLUJ+6Y8DKgdR71Nffs+3N940g1ZtVtUgt7v7TFPFaCO82bcCBpFIDJ9RnFYc1bsLUdoX7QlovhCxvDZ6j4hni03+0r+4s7YL5MWWwzLng/KeBngVeuP2i9Lj+1ywaLqlzY2MVtNe3kcY8u3SZQyE888NyBXl/ib4e+IPhnps/hvw//AGndvqWhjTXubfTzPHcOPMAG4H90cPgluMV6bofwRli8D6/pVzf+Xca5Z2cMu1NwgaGFUI688rTUqr0Qrs0/jp44vvB/g3Tr/S9Rh0lrrULa2e+uIhIkUUjYZiD6CuR8G/GbU7XUPEa3epL420bT7WGaPUNLsjGxmd9vk4zg9jnsOtemeNvAa+MNK0Wye4EK6dfW14SU3CTyjnbj3qP4neAG8eeDZ9EsrtdJZ5opt0afI+xwxjcAjKtjBHoatqfNcNThtX/aHdtOtn0nQ7ie+j1y20q+tZCpMYlGeCGwSR0569aXw7+0NJcaTLLquizxajNq91p1lZw7Q0yxHliScDaMZOetVtI/Z1vNIt9RFvq1jbPcalZarHHbWXlxQywZBUKDypB+uaXVP2cJNQVXbULK6ltdVudStI7y08yILP8A6yN1zzzyD7VN63YNTdtP2g9L1R9Fi03StR1G81RpkFtDGN0DQuElEnOBtzUei/tFaTqrWUs2k6lYadfJcm1vp4gEmaBWaRRg5zhSR64q14H+C6eD9Q0e8F7C8tnbXUMscFssSO07qxKqOgG3HrUMPwRaDQPCOnRau0UmgS3Uq3CxAmQzRSJ0PHHmZ/CqTqjV+pufDj4r23xGaT7Np11ZR+StxFNNtMcsbHAwyk88cqea6TxF4msPC9ibrUJhEn8I6lj6AV598K/gzceA/E15rVxfWZae1FqbbTbc28UpDbvNdc43+4Ar0jWNDstesXtr23SaJuzDke4PaiTq+zfL8XQHzWdtzx6//aEu1uG+yadEYM/KZWO78cVW/wCGhtT/AOgba/8AfTVtXf7PtpJcM0GovFFn5VZMkD0zUP8AwzzF/wBBRv8Av3/9evipLPuZu/5HkP65cy/+GhtS/wCgba/99NXD+KPFh8UasNQNpFZzMMSCIkhz6nPevTP+Geov+gq3/fv/AOvXmXjDQbTw5rUlha3RvDFxI+MAN6V4+Yf2mqX+2P3fkctf29v3mxAlwuAwbBFdTo/xa1vQ4RBHMtzCvAWcZx9DXDqK7fwh8KdU8UwC6YrZ2h+7JIMl/oK83BfWfaWwt+byMaPtOa1M9E8D+PfEfjCTMWn2kdqjbZLhieD6Ad64P4zapLfeMZbd2zHaxqir2BIyf516B4V+F+peErsTWet4jJ+eFo8q361wfxq0WbT/ABV9tZSYbxFYN23AYIr6vH/W/wCzX7e/NdXvbb5HfW9p7D39zz5mVFLMQqgZJPQCvCPAfxI1HUPifFeXmpeb4d8SSXFtplsWGIWhPynH+2A36V69400q+17wrqmm6ZdJZXl3A0KXDg4j3cE8d8ZrhNW/Z/0OPw/p0Ph60ttJ1zTZYJrfUdp3boyC27/eAP518ph3RjGXtN3oedTcdeYzfiJ8VdTu/CviCbRNKul061nFn/bEcqrtkDqGIXqVByM1vH4wQ2Og+IJp7CYaho13HY/Y9w33DuFMbKfRt386yNQ+E/iaTQ9Y8OWOqWEWh31012skkbGaPc4d4+OMbh1ra1j4T/2j8RNK8Qi7WKygjiN5Z7SftE0QPlP+GT+Qro5cNbluVansQeLvjHP4RurprnQ3GnWbxxzzvcIjktjJjQnLgZ6j0o1r4xXlpqXiCDT/AA5cajb6GqSXdysqooRkD5UHqcZ49q53xX8CdV8QXfiUC40uUapObiLULqJpLqEZBESnoqgjGR2Ndfp/w6vo9P8AGEdxdQ+fr8UaAxg7YmWERnOe2eaXLhYxTWvzH+7sV9Q+LlxPeTW/h3Qp9da1sor67KSKnlLIu5VGfvNt5wKg1b42LDdSw6dpEl59kto7q8E0yQvEHXfsCtyXA7VBb/DHxJ4aubqXw7qtnbvqFhb2t21wjExyRR+WJY8e3Y96o618D7yXWb6+t/7J1ebUbeKO4udZg3yxyqgUyrjg5649apQwt9XoK0DWu/jEdYzF4Z0ifWtunrf3EqOsYhRwSo56twePat34P6pc618MvD1/ezSXF1cW5eSSblid7dfwxXPQfDLXfC+oSz+G7+wSK+sIrK7S6iKqrRggSRhfYniuy+HvhqXwf4K0nRbi4W6ms4fLeaMEBzuJyB+NY11QjTtTf+ZEuVR0PUfhPqkum+NrFUP7u4JhdfXI4/XFe/eJPElj4Wszc30vlp/Cvdj6AV4N8I9Ek1bxjazBSYLTMzt29h+de/a1odn4gsWtb6FZoj03DlfcHtX2fD/tvqU+Te+l9j1sHzeydjx/UfjtqP2xzZ2kK2/8KyZLfU0kPx81JWHm6dbuO+1iK0b74C753a01EJETlUdMkVnXHwF1JUJivoJG9GUiuCo88jJvX5WMpPFo2rD4+WkjAXWnyxerIdwrqdJ+Knh3VmCperA5/hm+WvHdQ+EPiWxVmFotwo/54uCfyrl7zSb3T2K3NrLAw7SIRWazjMsM7V4X9VYSxVen8aPrSG4iuEDxSLIp6MpyKkxXyho3ijVdBkVrK8kiAOdmSVP4V6r4V+OEczxwazD5LNwbiPlfqRXvYPP8NiHy1Pdf4HZSx0KmktD1miorW8gvYEntpVmhcZDIcipa+nTUldHo6NXQUUUUwCiiigAooooAKKKKACiiigAooqpq2pw6PYyXU7YRR09T6VE5xpxc5uyQ0nJ2Rbo+nNeR61461LVZGEchtYc8LGcH8TWP/bF73vJz9ZD/AI1+d4jjbCUqjjSpuSXXY9SOAnJXbse6Yorwv+1rz/n7m/7+GkbVr0/8vk3/AH8Nc3+vVH/nw/vRX9ny/mPdvxFGPevB/wC1Lz/n7m/7+Gl/tS8/5+5v+/h/xo/16of8+H96D+z3/Me7UuK8I/tS8/5/Jv8Av4f8aU6ped7yb/v4f8af+vVH/nw/vQf2dL+Y92x70Y9xXhH9pXnX7XN/38P+NL/aF9/z9zf9/DS/16o/8+H96D+zpfzHu2Pekrwn+0r7/n7m/wC/hpf7UvV6Xc//AH8NP/Xqj/z4f3oP7Ol/Me60V4dFrWoRMHW8nDL0/eGuw8K/ECRp0tdRO4Mdqze/bNelgeMMHi6qpVIuF+r2MqmBnBXTueg0UdRntS/hX3l7q6PODFZPirUhpOh3U+7Dbdq/U8VrFgqkkhQB1NeWfEDxIurXS2ds+62hOWYHhm/+tXg51mEMvwc53956L1Z04ek6lRI5iwtm1C+gtxktLIF/Wvdbe3W2t44lGFRQo/CvNvhvoxutSa+df3VuML7tXpv6V81wfg5U6E8VPeb09F/wTrzCpzSUF0Ciiiv0Q8oKKKKACiiigAooooAKKKKACiiigAooooAKKKKACiiigAooooAKKKKACiiigAooooAKKKKACiiigAooooAKKKKACiiigAooooAKKKKACiiigAooooAKKKKACiiigAooooAKKKKACiiigAooooAKKKKACiiigAooooAKKKKACiiigAooooAKKKKACiiigAooooAKKKKACiiigAooooAKKKKADJooooAXNJRRQAUUUUwCiiikA5fumm05e9J+FACUUpIx0prMsalmYKo5JPAoA57x94mXwn4ZurwHFww8uEf7R6flXyzJM89w8kjF5HJZmPUk96774weNk8SaytlaSbrK1JUMOjt3P0rgI+WNflmeY1YrE+zg/dj+Z83i63tKnKtkb3gzQ/8AhIvEljYkfI75f/dHJr6ot4EtbeOGNQqIoUKBjAFeD/AexFx4qubgjiCDj6k4r3wV9Jw5h4xw7rdW/wAj0MDC0HLuFY/ijwxaeK9Mazu190cdUb1Fa9LX1U6ca0XTmrpnpSipqz2PnPXfg/ruk3DC3g+3QfwyQ9fxFYx8B+IP+gVcf98mvqSivlZ8NYaUrxk0ea8BTb0Z8t/8IH4g/wCgVcf980f8IH4g/wCgXcf9819S/jRtNZvhmh/z8Yv7Oh3Plv8A4QPxBn/kFXH/AHzSf8IH4g/6BVx/3zX1J/npRzR/qxQ/nYf2fH+Y+W/+EC8Qf9Aq4/75o/4QLxB/0Crj/vmvqTn/ACKOf8ij/Vmh/O/wF/Z8N+Y+XB4B8QH/AJhVx/3xWrovwj8QapIqy232OHPzSTcYH0r6O/KjvmtIcNYdNOU2xrL6d9WYHg3wfaeD9NFvbAs7cySsOXNb9KTSV9TRowoQVOmrJHpRgqceWOwUUUVsWLmq91YW19GY7iCOZG6iRc1PRUyipaSVxNKW5534m+C+laqjyWBNhcdQBymfpXj3iXwXqnhaYpeW7CPOFmXlG/GvqZar6hp9vqVtJb3UKzQuMFWGa+bx2RYfEpypLll+Bw1sHCautD5n8I+PNR8I3StBIZLbPz27n5T9PQ19C+FfFlh4u09bmyf5gP3kbfeQ+hrx34ifCp/Du+/07dNYE5ZOpj/+tXH+GfE174T1SO7s3wQfnjP3XXuDXzmFx2Jyit9XxPwf1qjz6dWphZclTY+rKKx/Cvia28WaTHe2xwTw8Z6o3oa2K/RadSNWCnB3TPdjJSV0FFFFaFBRRRQAUUUUAFFFFABXnvxSvn86ztB/q9pkI9ew/lXoVef/ABS092ltLxclAvlt7dxXyfFHtP7Kq+z8r+l9TswlvbK5wH0oo6UvrX89n1B86+M/F6L8Z/FWl6v4u1XQdOs7GzltIdPTcCzqS5I2n0Fbvwd+Ll1qOg+G7XV5ZNUuNW1K8srS+wEYxRBmR5V7MVXpWlqngfxlpfxQ8Q+JfD66Lc22rWtrbmPUmfchiBGQAO+axLP4I+JdBj0/WrG90658TRa1Nq88DK0dofNjKNGmOQAD1r6W+FnRjCTSdl99jm96+h0PiT4o29xqFtZp9tsmtPE0GkM0BXEzNGX+bP8ABg89+KxfA/xivbbw3ptpJY3fibxFqGo6gIbW3KqwginZdzFiAABgUaf8GvEtwy3Wq3li1/J4qi1+YW+7Ysax7DGue9JpPwf8TeC7rR9Y0Waxu9Ws5L6Ka3uWZYpbe4nMq4YDIZSRUKGEjHlum/Xr6h750PwP8V6h4303xXdX5uYGj1u5t4YJwBJbIAAIz7qc1xmseHtbsPjDpHhk+ONaXTbzSbrUZZCyblaN1AA+XpgmvRvhD4K1fwbp2uDWri3ub/U9Um1B2tchB5mOBn0xRrnw/udY+KumeJDNGun2+jXWmyx87y0rKQR7AA1hGrSp4mVrctvXp/mXaXJ5nOaB8bFjh0lptF1RvDV1Oun23iC4ZMTybtgdlByFZh1xUl1+0FbW7z6gug30nhK2vPsM2vqy+UsgfYWCZ3FA3G6sqw+E/i1tF0Pwffz6cfDOk3yXC3kTsbieKNy6RlMYB6AnPaq7/BbxSvhm88BpdaefCFzqDXLXxLfahA03mtFtxjdnjdmt/Z4OT3V/Xp39fIi8yzD8ZZvCbeIHvo5tYuJ/ELabptsrKgA8sMAWbAVcZ5PrXpngbxc3jLRXvJNOuNKuI5nt5ba4wSrLjlWHDKcjBFec6x8I9dS31P7Gul6nDc6y18+m6guY54DGEClsZRwRnIrqPg34F1DwHoOoW+oSRobq9e5isoZWkitIyABGjNyRwT+NYYqOFdJypv3tP6sOLlfU7+lVsEY4NFCqWYBRlugArxNehues6bqGo3HhW0ubJEmnC4ZJCctjjj8q5qb4manC7RvawpIpwQc8Guo0/R7+PwzaWltcLay7cuxXJ55wPzrBPwulkkZ5L/czHJYqSf51+1YpZu8PQWD5ublV9rbfmeHD2ClL2mxzOqeL9T1ZSktwVjPBROBWNmvQP+FVf9P3/jlL/wAKrH/P9/45/wDXr5HE5LnmLlz1oOT82juhicNT+FmRpPj6bR7GO1t7KEIo6knLH1NXP+FqXnezh/76NW/+FV/9P2P+Af8A16P+FVj/AJ/v/HP/AK9epSo8T0YKnTVkttjCUsHN3ZU/4Wpd/wDPnD/32a0NF+JkdzciO/hW3RuBIhyB9ai/4VWP+f7/AMc/+vV3Sfhra2d0JbmX7Sq9ExgfjXfhlxR7aPPt52sZT+p8rsdjFIk0auhDKwyGHevAPD3xY1Pw78Q/H9vrly0+kD7RLpm7pHJAq74h9Q6n8K9/jRYowqKFVRgAdBXnmufA3QfECkXM11ltX/tgsrAHeVAaPp9whRkV+h1Y1mouO63PLXLfU86+G/xY8S6P8P7ibWBFqusya1cWu67uBBFCoVW2liD0zjGK63w7+0Ja6tp8N5eaadPtZdNur1JGmDBnt3KyRjj2BB75q/f/AAH065uBc2eq3mn3a6lPqKyoqOFaZVV1CsCMYUYPUVB/wzxoUnhvTNFnvr6e20/UGvoZGZfMIdtzxMQOUYnmuaMcVHRFe4Yt3+0hJazENoKqlpDBJqEb3arLGZAG2xrj5yqkE9Kvj47X8mpXcsfhsnw/Z6umkzag10N5d9u1ljxkgbxnmtnxB8FbHW/EV3qUGqXemRX5jN9a26oVnMYwpDEZTjAODV7/AIVHpTaXqNgLi4WG+1ZdYfkZWVShCjj7vyCtEsTd3egvdO46UUZzRXpmIUUUUAFFFFABRRRQAUUUUAFFFFABRRRQAUUUUAFFFFABRRRQAUUUUAFFFFABRRRQAUUUUAFFFFABRRRQAUUUUAFFFFABRRRQAUUUUAFFFFABRRRQAUUUUAFFFFABRRRQAUUUUAFFFFABRRRQAUUUUAFFFFABRRRQAUUUUAFFFFABRRRQAUUUUAcR8XfHzfDnQdN1PfDHby6nbWtxLOcLHE7YZvwFc3L+0BoD+OHtbTV7O70C10afUry4ibcY2R1UD8Q3T1xXW/EzwO/jzS9KtEliiW01O3vpBMu5XWNtxXHvXK/Ef4FweONXuri2mt9Lt5tIl0/bDCAwkMscqOcDBAMYyPesJ+0v7pLL1n8fvDk3mJdW+oaXcxtb5t761aKQxzPsjlAPVNxAJ7ZGat6N8cPC+v3stpY3Es88ernRSixnmcLuJH+zj+LpxXKXfwS17xg2vX3ifUrAard6OukWR09G8qEK/mea27ndvCnA6Yo+H/7O58EeNNF1s6jHcQ2emrDcwBTme++YG5/FWI9az56t9hXkeg/FPxRc+Cfhz4j16zRHu9Ps3uI1k5UsOxritP8AjLd6bZeOP7bihjudFs4dRtVTI8+CWLKde+8Ffyqf4qfDjxd40uNWsdN1qzg8Pa1ZpZ3lvdqxe3AY7nixwSwOOfSo/iJ8Cz4y8R+F7+01BbG0sI0tNTgZSTfWyMsiJx3DoOvYmqk6jd4hqYXg743eIZPi9p3hLxDaW8NvdaRb3LzRggx3UiGTYc9tqn8q3/gv8Xb/AOJvibxnDLbRQ6Vp9yq6bIoO6WEllDn6lSRVL4i/AnUPGGt+J9V07VodMvdQhslsJtrbrZ4N4ZjgdGVyOK6f4b/CxPh7q2oS286NYzWNnZwxAEMvkoVJJ9yc1EfaqVnsGp554s/aA17QPDN4tvYW9z4lt9fm037KAcG3iUyvJj/rlz9TW+vx7t4/GWsQvE11otpbWUVutpG0lxc3twpk8tAOuEwfxq5/wo9JfjLqvjCe7SXTbywaBNPwcpO6hJJfTlABXOeGP2ddV8F+FbNNP1i2uvEdlrT6tFc3Kt5Mi7PKSJu4xHgZ9aV6qfkT7x1tx+0J4at9PtJTbak19cXj6cNMW0Y3SXCruMbJ1Bxz9Kp+Efj5p1/HLa6oG/tNZ7xpIbWMt9mtoWI8yX+4MDHPU9Kg8O/BnVbTxVYeJdU1C0m1U6rPqd6lujeX88HlIkeeeAByetZel/s86h4Z1q61jRdVtbXUNSlvE1TzIy8dzBMS0Y2n+NCR7EZFVzVR3Z6B4C+K2l/EC4ngsrW+tHSFLlPtlu0YmhYkK6E8EcV0mua/Y+G7B7y/mEMS9M9SfQDua8w+D/wj1rwH4kutQvrmyt7OS0W2FhpryGF3DZMpD/cOOMLxzXp+u6BY+I7FrW/gWaI9M9QfUVTlV9m3D4ugNys7bnkeq/H6dbhxY2CeT/A0rHd9TXG+JPilrviSNoZLj7PbsMGKH5c/U16DN+z3bSXDMmqSRw5+VNgJA9M5rX0n4F6Jp8ySXDy3pXnbIcKfwFfD1MNneKbjN2T89Dx5U8XUdnseNeEfBN/4uvgkMbLbKcy3DD5VH+NY80aw3U6p9xXKr9AcV9WahDaeHPDd8beGO3hggdgqDA4U18oK27cT97PNePmOXRy6NOLd5O7ZzV6HsErvVnsH7Pdv+91ib0Ea/wDoVezV5B+z3/x763/vx/yavX6+7yNJYGFvP8z18H/BQUUUV7x3BRRRQAUUUUAFFFFABRRRQAUUUUAFFFFABRRRQAUUUUAFLSUUwGzQpPG0bqrowwysMg14H8Vfh+PDl0L+xj/4l0x5Uf8ALNvT6V9AVU1TTbfWLKa0uYxJDKu1lP8AOvJzLAQx1FxfxLZnNiKKrRt1PnD4eeNJvCWtKzMTYzELNH2x6/UV9K29wl1bpNEweORQysO4r5a8XeGZvCuuT2UoJjB3Rv8A3lPQ16n8FPGJvLV9GuXzLAN0LMeq9x+FfLZHjJ4as8DX+XkzzcHVdObpTPVaKKK++PbCiiigAooooAKKKKACq+oWMOpWj286B42HQ/zqxRUThGpFwmrpjTad0eWaz8Pb+zkZrRftUJPGPvD8Kxj4Z1VethP/AN8GvbKXNfn+I4KwdWo505uKfTc9OOYVIqzVzxH/AIRnVf8Anwn/AO+DR/wjeq/8+E//AHwa9uyaMmuX/UbDf8/pfciv7Qn/ACniP/CNar/z4T/98Gj/AIRvVf8Anwn/AO+K9uyaMmj/AFFw3/P6X3IP7Ql/KeI/8I3qo/5cJ/8Avg0o8M6r/wA+E4/4BXrmta9baDDHJct/rHChR1+tX45FmjDodysMg+orBcGYKVR0lXfMt1p8i/r1S1+U8U/4RfVv+fCc/wDAKT/hGdW/6B8//fNe3Ulb/wCo2G/5/P7kR/aE+x4l/wAIzq3/AED5/wDvij/hGdV/58J/++K9tyaM0f6i4b/n9L7kH9oT/lPFY/CuryOFFhMCe7LgV2XhX4fmzmW51Da0i8rGOQD713INLu6ivSwPB+CwdVVZtza2vsY1MbUqKy0E+7xSZoor7xbHALmkoooEFFFFIAooooAKKKKACiiigAooooAKKKKACiiigAooooAKKKeqjb0oAZRRRQAUUVT0/V7TVJ7+G1mEsljP9muFH8Em1W2/98sp/GgC7RSe3f0o3DpkZoAWg1jt4v0hdQ1Ox+1o93pkKT3cKAs0SNnaTj12nitdXEiqy/dbkUDs1uFFU9L1i01qCWaymE8Uc0kDMOzoxVh+BBFXOtAWa3CijI9axo/GGkzfb/KvFmFjcraXHlAtslYgBTj3YUBZs2aK5uH4jeHbjxB/YqalGdR8wwiPB2lx1QNjBYema3NR1C30nT7m+u5BFa20TTSyHoqKMk/gBQPla3RYoqK1uY721huYW3wzIsiMO6kZB/I1LkHvQSFFU77V7TTprSK4mWN7uXyYR/ffBbH5A1c6DJ6UDFxRRwB7VSsdZs9Qvb+1t5hJcWMixXKd42ZA6g/VWB/GgC7SUtJQAUUUUCCiiigAooooAKKKKACiis7WvEOm+HLU3Op3kVnAP4pGx+VVGLk7RWoGjRXi2v8A7UWg2Ejx6bZXOospwJCBGh/Pn9Ky9F/apgudWii1LSPsli3DTRSb2T0JGOlepHK8ZKPOqbsK6PfaKqaTq9nr2nxXthOlzbSDKyIcg15b8UP2iLH4c+I7rR49Jm1e4sLJdQv/AC7iOIwwsTjaHILuQrHaPSvPjTnKTilqM9dor5+h/aUvLXXPE8s2iTXukB9Oh0KOB0Et3LdKDGmCeM53ZPQA1614B8Wah4s027fVdBuvDuoWlw1vLa3LK4OACHR14ZSD1FOVGdNXkgOnooorAAooooAKKKKACiiigAooooAKKKKACiiigAooooAKKKKACiiigAooooAKKKKACiiigAooooAKKKKACiiigAoopcUAJRRRQAUUUUAFLSUOwjXcxwAMnPFIDjPi5qi6Z4HvQWw9wBCv4nn9K+ak6H1r0T4yeNovEWqJYWcnmWlqTlgeGfoTXnqxssYcghW6Z71+W55iVicVaGqjofO4upz1LLoez/s+f8e+tf70X8mr1+vIP2e/+PfW/wDfi/k1ev19tkn+4U/n+Z6uD/goKKKK907QooooAKKKKACiiigAooooAKKKKACiiigAooooAKKKKAClpKKAFooozQM89+MXhP8AtzQTfQr/AKVZ/NwOWTuP614f4f1iXQdYtr6I4aFwSPUdxX1fNGk0LxuNysCpH1r5c8caCfDPiW8syMIG3x+6npXwPEOGdGpHGUtH19eh4eNpuMlUR9OaZfxapp9vdwNuimQOp+oqzXlvwL8Q/a9JuNLlfL27b48/3D2/OvUq+wwOJWLw8aq6/mepRqe0pqQUUUV3G4UUUUAFFFFABRRRQAUUUUAFFFFAC59qM0lLtoHqeSfEG8luPEk8TvujhwqL6cZrr/hzeTXehusrbhFJsU+2OlcL4yfzfE1+R/fx+Qrt/hmhXQ5T/C0xP6CvxzJa1SpxHVbe7l9y2PbxEUsKvkddRRRX7GeGFFFFABRRRQAUUUU2AUUUUgCiiigAooooAKKKKACiiigAooooAKKKKACiiigAooooAKcHwOlNooAKKKKACvLPDPjTTPCnjLxrZanJNbz3WtCWEeQ7B0NvCoIIGOoI/CvU6CAWzjNI1hKMb8yvc8C0eXUv+Eos2km1c+Mv7dk+1xOX+y/YfNfGB9zZ5WwgjnNZWgajdL4m8JmzutUn8XTfbjqNreSuLZ5hbyFBg/KAG24xxivpLjOf6Vy2g/DHw/4b1ptUsbaYXWHEYmuHkSAOcuI0YkJn2qHFnZHEQs7r+v8AI8asrXxF4du/HL32ktp0z+HYnuL5bkOXmDzNvBHUksRj+EKK990XV7e9ZrNJd91axQmdcHK71yp/EUniTw5Y+K9LfTtRSR7ORlZ445Cm7BzgkdRxyO9XYbOC3mkliiVJJAodwOW2jAz9BRysxqVVUW2p5Z8P/Gun6Vb6rockksWsy6vf+TE0D4LNM5TnGMHiuM0241SIWb6DPrL+J/sd0daS93mEOImKnDfKGEm3bt7Zr6L2jOcDNRXdpDfWs1vOgkhmQxyIejKRgj8qXKzX6xHmcuXc+etFurmTXDbeCbrU7jUptDcyx6pM4VZzIgaQb+N4Bb2zin2MOreHdC8UWz6S+hRrrOkhHS58xnJmgV8sPvZHJPfca9i8KfDvRfBlxNcadFcNcSIIvNurl52WMHIRS5O1fYVf8QeFtO8UNp/9oJJKllcLdRxrIyoZFOVLAfeAOCAe4pcrLeKheyWmh5qvijSfFvj6z01l/s3TdL1EyQ24tmEl5djIDlsYVASfdj6Dr2njDUIPEXwx8SzacxuY5dOvIk2qcl1V0K49dwIrrNq/3Rn1qO3tYbOERQRrFGCTtUYGSSSfxJJquVnPKpFtOK2PI77x0uufCttP8OT3X9sW+n2omSKB1lSJWjWfZkfeCb8e9c3LcyQ2Otf2Hc6yfBxmsBNLM0hmGXf7QIi3zY2+XnHvivoTao5AGfpWZ4i8OWHinSpNO1CNntnKt+7kMbKwOQysuCCD3FLlZrHEQi9I7nzzbvY3zakiXOs3Hh608Tw7XZ5Gnih+xAsAfvBNzHnrg1p3l9LHotpazjV5NAl1C6OnzTzTR/uAq7BIUUyN8xbZnHA5r27wv4R0zwfp72emwukckhmlkmkaSSVyACzuxyxwAOewrY49OKFFlyxUL6R0PnPTr64utJ8Of8JXPrkejrp9wsRtfNWQ3QnIUSFRu3CMDbu4POa0dBTVrP4jajf3a3v/AAjTahZK8bgrOZzZQiOSUj7yAjBA/iPPSvetvY9KUqKpRZH1pa2juOPHFJSt696T1qzzxKKXFGKB2EopaSgQUUUUAFFFFAHNfEDxzZfD/wAOzaldnc/3IYc8yOegFfG/izxjqvjjVnu9QuHmZm/dwg/IgPZRXX/Hzxo3izxtNaxSbrDTiYIwDwXH3m/p+Fdr+zn8LYbuH/hJ9VgEibitnFIMg46uR/Kvu8FRpZXhPrdde89v0SM37zsjhvCnwD8UeKLdLgwJp9uwBV7o7SR6gda7/QP2VxDqEUmr6os9qpy8NupBb2ye1fQfHQDA9KK8atnmLqt8rUV5FcqKej6LZ+HdPisdPt0trWMfLGg4rzD4kfs/xeOvFt14gstZ/sW7v7NLC/8A9DjuDJEhO1kL/wCrcBiNwz9K9cJBpK8ONacZOaepR47r37ONpq19e3Ftrt1p4kFjLaBIlZrW5tOIpgT975eCp4Oa6Xwv8Odb0CO3a58ZX2pXTXkt5fSSwqFudybVjVf+WarwQB3Fd7Ssc05VpyVmBzmi+G9W02XSnu/EdxqK2sEkVwkkCL9qdmyrtjoVHGB1ro92QOKSg+3SsW7gFFFFIAooooAKKKKACiiigAooooAKKKKACiiigAooooAKKKKACiiigAooooAKKKKAPIvi58RtV8NePvD2g2Wr6fodpfWFzdS3l/EXG6NowqjBHUMfyqt4L/aAt5vBcd/rg+3X8mpXGn2q6TEz/bhEf9aidQMetbHxH+HOu+IPHWheJNEn0oSafZXFm9vqsLSIwlZDuGO42frXEy/s0ajDHBqq32n3mu/2lNqE1qyPDZYljVDGgU7lwEBz3Oa45OpzNog7S5/aK8Kx2enT2q32oPeRSzCC1t2aSJY22yb17FW4I61d8D/FgeM/HfiPQotPnitdNit5obxoyFkEi55z0PTHrzXAX37Peux6Dp9pbS6LcziO488vFJD5EsrFvMhdTu+Xpg9cZru/hz8N9V8D+JtRvLjUotSs72ws4JXdSJzNChQt6FSCT6006reoahcfHzw1beILzSmi1D/Qr5dOurwWrG3gmbG1WfpzuFMT4+eHp7fVZoLTVLhNPu/sDGOzYiW4DlDGh/iORn6VwOj/AA48V+KdW8cae1zaWHhi+8Um7mE0TfaWWMQt+7PQhioGe2DXQap8EtaHg1dLsNTtWlXX5tXeGYukNxHJIzeU5X5hjcOnpS56nRBqb3/C/vDUmj2t3BHf3N3c3UllHpkNsWujLGMyDZ6KOSenIrmdW/aOt5dUu7axtbq009dFGprqFxauRG/nGMqydcDBH1rN8P8A7P8A4p8K31prGm6ppI1ixvrq5gjaOQW5juI1WRCOoKlFIPetHxB8DfEmuKWuNds7i5vNEbS72aSErl/PMwZAOwzjn0ocqr6C1Ow/4XZoK+Jl0URXsrLcLZS30VszW0dwwBEbP2PP4ZqDT/j/AOFNQ1E23m3MELrM1vezQMsFz5QJkEbfxEAE++KytL+EviXQtevraw1q0i8L3+qnVrlWiJussBvhB6bSw+91Fc54Z/Zv1TRbiztnvNMGn6YLg2d0sLyXEjOrKhcMdq7Q3OOtPmq9g949N8A/FbSfiJLNHp8F7blIlnQ3cBjEsTEgOh7jium1jWrPQrN7q+nWCFR1Y9fYV5f8I/hLrPgnxLc6nqFxY29s1ktqtjppk8mRw2TMVbhDjjC+tel6/wCG7HxNYta30IkTqp6FT6iqvV9m7L3ugnzW03PLdW+PxjmkWx05ZIv4JJWwT74ri/EnxW1zxFCYHmFtAwwY4eM/U12dx+z6/wBpbytUCw5+XdHk4rZ0X4EaTYyCS9uJb4g52/cWvi6tHOsQ3GTsvuPMlDFTdnseQeEfBd/4w1BILaNlhBzLOw+VR/jXSfFzRbbw7faVYWq4iitcZ7kknJNe/afpdrpNutvaQJBEvRUGK8L+O0wfxZCn/PO3X9SaxxmWQy/ASlJ3m7a/MzqYdUaTb1bN/wDZ7X/RtaP+3F/Jq9eryr4AQldG1SX+9Oq/kv8A9evVa+myRf7BT+f5no4VWoxCiiivdOsKKKKACiiigAooooAKKKKACiiigAooooAKKKKACiiigAooooAKKKKACvJvjv4f8yztNYjX5oj5Mhx/CeQfzr1msrxXo6654dv7JhuMkRCj/aHIrz8ww6xWGnS8jnr0/aU3E+efhrrZ0HxdZSs22GVvJk+jcV9N9f518gSK1tMy8rJGxHvkGvqbwXrA13wxp94Wy7xAN/vAYNfK8NYh+/hpdNTz8vnvTZs0UUV90ewFFFFABRRRQAUUUUAFFFFABRRSjrQAtG4c02quqXP2PTLqc8bIyR9cVFSfJByfRDjvY8X1qf7Tq95MDndKx/WvUPh/D5XhmDjG4lv1ryLlm9yc17jodqLPRrSHGNsYzX47wjF4jM62I6Wf4s93He7SjEvUUUV+ynghRRRQAUUUUAFFFFABRRRQAUUUUAFFFFABRRRQAUUUUAFFFFABRRRQAUtFFAB+NJS80YNACUUtFACUUtY/irxVp3g7R5dR1KYRQp0H8THsAO5pNqKuy4QlUkoxV2zXor5d8UftMa9qF040aGHTrUH5TIu+Rh6nsK58/H3xv/0FI/8Avwv+FcLxtJOx9RT4ax1SKk7L1Z9hUtfHn/C/PG3/AEFE/CFf8KT/AIX543/6Cq/9+Fqfr1PzNf8AVfG94/efYlJXx5/wv3xt/wBBZP8AvwtH/C/vG/8A0FVP/bBaPr9MP9V8b3X3n2HRXx5/w0B43/6Cq/8AfhaP+GgPG/8A0FU/78LS+vUw/wBWMb3X3n2HRXx5/wAL+8b/APQUX/vwtH/C/vG//QUX/vwtH16mL/VfG94/f/wD7Dor48/4X/43/wCgov8A34Wj/hoDxv8A9BVf+/C0fXqY/wDVfG94/efYdFfHn/C//G//AEFF/wC/C0f8L+8b/wDQUX/vwv8AhSWPpvuP/VfG91959h0V8ef8L+8b/wDQVX/vwv8AhR/w0B43/wCgov8A34Wn9ep+Yf6r43uvvPsSjdXx3/wv/wAb/wDQUX/vwtL/AML+8bf9BRP+/C0/r9MX+q+N7x+//gH2HmivkXT/ANojxlZ3CvNdQXajrHJEAD+Ir3b4YfGTTviGv2Z1FlqijLW7HhvdT3rWniqdR2R5+LyTGYKHtJq8e6PRKO9B70V2HgB1pKU0lAMKKKKBBWP4x1r/AIRzwpq2p9Ta2zyL7sBx+uK2K84/aDvWs/hbqaq21p2ji+oLDI/SunDw9rWhDu0B8kWkM2satDCCZJrqYL7lmP8Aia+7vD+kxaFotlp8KhY7eJYwB7DmvjX4P6eNU+Jnh6FhlRc+YR7KC39K+2z1r6niKo+anRWyVzOPcSiiivjTQKKKKACiiigAooooAKKKKACiiigAooooAKKKKACiiigAooooAKKKKACiiigAooooAKKKKACiiigAooooAKKKKVgCjJoopgIFAyRxS/jRRQAUYoooAOfWjn1oooAWjNJRQAvejOOlJRQAfWvm74wXgvPHF9g8RBY/yFfRl5dR2NnNczNsiiQuzewGa+Ttc1B9Z1q8uz8zXEzMPxPAr47iSqo0IUurf5Hl4+XuKJ7p8D7M2/gsSkf66d3H04H9K9CrD8D6UNF8Kada4wyxAt9Tya3K+hy+k6OFpwfRHbRjy00gooor0DcKKKKACiiigAooooAKKKKACiiigAooooAKKKKACiiigAooooAKKKKACnD6ZFNpRQB8y/E3RTovjK/jA2xSsJ047MM/zr0b4D6x5+k3mnu2Xt33qP8AZb/69Ufj5pO1tP1FV9YmP6iuW+Dmsf2X40hhZsR3amE/XqP1r82j/wAJ+ccvRv8ABngL9ziv66n0VRRRX6Se+FFFL2oASiiigAooooAKKKKACjpRRQAVy3xG1D7LoRiDYaZgv9TXU15P8QdX/tLXDAhzDbjYPdu9fLcS41YLLp66y0XzOzCU+eqjH0CwOpaxaW+3IZxn6Dk17gF2jA6DivOPhjpfmXk9865EY2IffvXpFeLwXg3RwcsRJazenojox9TmmoroJRRRX6GeWFFFFABRRRQAUUUUAFFFFABRRRQAUUUUAFFFFABRRRQAUUUUAFFLWXr3ibS/DNm1zqd5FaQqM5kbk+wHek2oq7KjGU3yxV2am2kaRIhl2Cr6scV89eL/ANqBmkkg8O2Xy9PtVzxn3C15Dr3xD8ReJpHN/q1xIjHPlo5VPyFcNTG04aLU+qwnDmLxFpVPcXmfYWq/EXw3om4Xms2kJXqvmAt+Vcpe/tFeDbXIS8luD/0ziJr5Kjt5rhvkjaRj/dBNa9n4H8QX4HkaPeSg9NsRrk+u1H8KPdjwzhKf8aq/wR9Cz/tReHkYiOxu5B67QKXTf2nNAvNQhhntLi0gc4ad8EL7kCvE7f4M+MrpQV0OdQf7+FrU0v8AZ98YXt5FFPYrZws2HmkkUhR64B5pLEYlvYc8pyWMXep/5MfW1jqFtqlrHc2kyXEEg3K8ZyCK+XP2kvFU2qeNjpCORaacijaDwZGGSfwBAr3/AOHXw/tvh7o32KC4muXc7naRjtz/ALI7Cvmr9oDSZtN+J2pzSKfLu1jnjbsQVAP6iujFSn7G7PJyGlQ/tJqL5kk7HjvjbXZfDPhXUtUhRZJbWPeqt0PIH9avrqMUelLe3TrDF5QldmOAoxk1ifE7T7nVvAWtWtnC9zcyQ4jhj+8x3A4H5Vy+r6lq3i7wjcaFF4c1Gxne2Cia5UKjFQDtznvjH414qjdH6NUqyhN+h1ei/ELQvEFxJBaXgMiIZcSKU3IOrDPUe9R6b8TfDmrahFY22oK9xMxES7SA+ASSCeo461wmvadqPjtofJ0u40JLLTLiF5rpRH87x7Qo9VHXNZcl9NrWqeBdNGkvpjW8E8RnfbtJ+zlcqR1Xvmr5EcjxVSPQ9Ot/id4butQSwj1BWuJH8qP5SA7cjCnGD0qvb/EjSrHS7e41O+hV7h5lj8kFg+xyCAMZyK85jvrn7J4E0ZtJeFrO+RWu/lKOQrDKEdQepre8G+EtRsdR8MSXdjIiWj37yFx9wvISh/EdKOVIqOIqz2R2knxE0CLRYtVbUFFpK5iTg7mcdV29c8dKv+HfFWmeLIJptLuluY4X8uQgEbWxnBz3xXlkmkX/AIc8SWuqzae9zDFq95ItquN7LIoxIgPXHP510vwhuHvrzxfdvZmxE+qbhCcZH7teuO9DirXuaU685VFCSGN4x8Ral4q8Qadpx02CDTJ0hDXbEM25A2f1rfTxxZ6TNZadrF5CNYnC/ubcFgdxIBHt71zuk/Dm01Xxp4wvtZ0zzIri6ja1kkJAZREoJGD6itK38My2Xjy8u7ezAtY9KS2tpG5AYMflB/KkrExlVV5ef6mnZfEbQdQ1ZdOhvd1w7tGhKkK7DqFboTwaqP8AFzwrHMY31RAQzIW2nAZTgrnHXjpXm1lpfiCW88Pyz6ZqhexvxLdRmNVt487h+7UdRz1rb0vwbfr4R0O2l05vtEevvdzRsnIjMzkOfbbinyrqyFiazTtE720+IGg3mkXOppfqlpbPslaQFSjdgQecmm2fxC0G+tfPivl2eeluQylWV2+6CDyM15/428F6vqN7rdza20xjTU7W9VI8Bp0RcNtzwSDz+FMh8HX2u2viW/W11CO4mt4ktmvyFllkjbeDtHTBwM+5o5YlfWKt+XlPSX8caJGdVBv0/wCJa6xXQ5Pls3QfWq158SPD+n6odPuL9Y7hXWN8qdqMeis3QH615lpfw91tdW0C4mtH2amwudaz/DIkhdQfzA/Crt9o+rW+g+IfCg0O4u7nU72V4b/aPJ2yOCHZuxUfyo5V3BYmq/s2O18TfEzStHh1O2trlJ9WtImf7Pg4BC7ufQYq8vjrSYYj9qvI4porVbq4UciJSM8nt7CuOXwfqEOi+PovsbyXV4FjtpNvzSgQqvH45rKsvBeqeGdJ1nRTpk2s2GpWyXPmk4l80AB42b14ytHLEXt66ldrQ9O8P+MtK8USSx2FwZJIwGeNkKMFPQ4Paur0DWLjw/rFpqNq5jmt5BIrLx+H4jNeTfDW31NfEF3JJBe/2YLVUSXU4gswfP3AepUCvTIYnnkSNAWdyFAHcnpU/DLQ6qcvbUn7Rbn3voupJrGkWV8n3biFZR+IzV361jeDdPfSfCuk2kn34baNG+oUVsGvqY35Vc/CqyjGpJR2uxc0lFFWYhRRRQAV5F+09MY/h7AgON94mfwBr12vGf2pG/4omwHreD/0E16eWL/bKV+4pbHlH7OVutx8UrEsMmOCZx7Hbj+tfXtfI/7NP/JUof8Ar0m/kK+uK9XiL/e1/hX5smOwUUUV8uWFFFFABRRRQAUUUUAFFFFABRRRQAUUUUAFFFFABRRRQAUUUUAFFFFABRRRQAUUUUAFFFFABRRXD/GDx3d/D3wva6hZRW0txcahb2Q+1uUjTzGI3MfQYpSfKrgdxRXkfhP44+dqfiOz8QmwSLR7eG5e+0uYzQsJCVCdM78jp7iuh/4XZ4U/sme/a9kjENwlo1vJCwn81xlU2EZyRzUKpHuTzI7uivP1+MOizalYOl9bxaVNY3N5M825JU8llVvlI4ALYOeelEPx18ITWF1c/bpIzbvHG0EkDLKxk/1e1CMndjjFVzx7juegUVjeH/F+l+JtDbVbGfNkhcSNKpQxlPvBgehGO9cVqn7QHhmHQ9Yu7G4e5ubKykvYYGiZftKLxujyPmXJGSPWk5xSuK56dRXD6T4k8R+JPhzo+s6Xa2R1e9iSZ4bhmSJQc5A4zxxXm9r8efFdt8PG8Z6rpWmQaSt+liRFMxcH7UIHbGOgG4j8Kl1IoOY+gKK4CT46eD4dJn1GbUXhghulspFkhZZFlcEou3GeQOKnHxo8J/2tFpp1BluHeOIkxMEjkcZWN2xhWII4PPNV7SPcfMjuKK461+Lfhm78TDQkvWF8072qFo2EbyoCWRXxgsMHj2rm7/8AaD8PnxToOladcLcw3lxcR3Ny6sqJHFE7s6NjDAFMHHrS9pHuF13PVaK5Xwb8TNC8dXE8Gk3EkksUazbZImTfGxIV1yOVOOoroNS1S10e1e5vJkghQZLMcU+eNuZvQXMty1R9eleUan8eLWCZ0tLFpkH3ZGbAPvXG+IvjDretRtDCy2MLDBEX3j+NeHXzzB0U7Su/I5ZYunHbU7D4yeO4VsW0WymDySf69lPQf3a8/wDhl4ZfxJ4ot1ZC1rbkSzN2wOg/E1j6PoeoeKNQ8m1ieeZj8zHoPcmvo7wL4Nt/B+jrAn7y4kw00nqf8K+Zowq51jFXmrQj/VjgjGeKq8z2R0SgKoA4FLRRX6ItrHthRRRTAKKKKACiiigAooooAKKKKACiiigAooooAKKKKACiiigAooooAKKKKAClpKXpQByPxU0n+1vBd7hd0kA85R/u9f0r5z0u8bTdRtbpGw0MquD9DX1tcQLdW8sLjckilWHsRivkzWtPfSdWvLN+sErJ+R4r4DiSlyVaeIXp9x4ePjyyU0fWFjcrfWcNwnKyoHH4ipq4/wCEusf2t4MsyW3PBmFvw6fpXYmvtMLVVehCouqPXpS54KQlFKKSuvoahRRRQAUUUUAFFFFABRRSO6xqWc7VAySaG0ldjMvxNrC6LpM05P7zG2MerGvGf3l1P/ekkb8yTW9408RnXNSIjb/RYcqnv6mr3w98Pm+vftsqZhhPy56Fq/FM6xU+IMzhg8NrGLt/mz3sPBYek5z3O78M6WNH0eC3x8+Nzn/aPWtWgUV+x4XDwwtGFGntFWPDlJzbkwakooroICiiigAooooAKKKKACiiigAooooAKKKKACiiigAooooAKKWuC+L3xKi+Hugloir6pcgpbRnsf7x9hUSkoLmZvRozxFRU6au2Vvir8YrL4f2rW0G271iQfu4N3Cf7TelfKvifxXqnjDUnvNTuWuZSeF/hX2A7VSu7y81zUHuLiSS6vLh8szHLOxNfRPwl+AUFhDFq3iOETXbANFZt91PdvU+1eLKdTFStHY/S6VDB5BQVWtrN/f6I8l8E/BrxF40VJYbb7JZt/wAvFx8ox7DvXuXhr9m3w5pKRvqDS6ncgfMGO1M/QV6zHEkMapGioi8BVGAKf+ld1PB04K71Z8pjOIMXiW1B8kfL/MydM8IaLo8arZ6bbQBRgbYhn861FjVeFUAewxT/AK0hrsUIrZHzs6k6ms22AA+lHtnNJStgdKoyAcV598X/AIXx/EXR1MDLDqlsCYJG6MO6n2NegUVE6aqR5WdOHxFTC1Y1aTs0fCWveDdY8M3T2+oWE0LqcZ2kqfoayRby/wDPJ/8Avk19/TWkF0uJokkX0dQf51X/ALB009bG2/78r/hXlvL3fSR9zT4r91e0pa+TPgeaza4heKSBnjdSrKVOCCMYrC0f4faVodx59ppxSXaUVm3NtU9Queg+lfop/YOm/wDPha/9+V/wpf7C03/oH2v/AH5X/Cl9RkvtFy4ppy3o/ifnXpvw/wBJ0m+W7ttOKTISUzuYIT12g8Ct5reX/nk3/fJr73/sHTf+gfa/9+V/wpDoOm/9A+2/78r/AIUvqEv5gjxTSitKP4n57a34TtfEUMUWoWjSiJ98bDKsh6ZBFT6P4eg0GzFrY2hghyW2qpOSepJ7mv0B/sHTP+gfbf8Afpf8KP7B0z/oH23/AH6X/Cn9Rf8AMP8A1ppX5vY6+p8F+RL/AM8n/wC+TSeRKesT/wDfJr72/sPTf+gfbf8Afpf8KP7D0z/nwtv+/S/4UfUH/MP/AFsh/wA+n958EiGUf8spM/7po8mTGPLf/vk197f2Hpn/AD4W3/fpf8KP7D0z/nwtv+/S/wCFH1B/zC/1sh/z6f3nwT5MmD+6f/vk0nkSf883H/ATX3v/AGHpv/Phbf8Afpf8KP7C03/oH23/AH5X/Cl/Z7/mH/rZD/n1+J8FeTL2jf8A75NJ5MveN/8Avk197f2Fpv8A0D7b/v0v+FH9g6b/ANA+2/78r/hT/s9/zB/rZT/59P7z4J8mXn90/wD3yaTyZP8Ank//AHya+9/7B03/AKB9t/36X/Cj+wtN/wCgfa/9+l/wo/s+X8wPiyH/AD5/E+DrbTbu8lCQW80rscBVQmvdPgv8DbtNSh1zX4fIjhO+C1ccs395vYV9Aw6XZWzborSCJvVYwD/KrRralgVB80nc83G8TVMRTdOjDlv16iDpRRRXpnxQUUUUAFFFFABXjn7Ua7vAlm+Pu3i/+gmvY68m/aZhMnw33D+C7jJ/UV6WWu2MpeopbHjv7Nsnl/FK0zxut5l/8dr67r43+AM/k/FbRgTjzPMX/wAhtX2RXr8QL/a0/JfqTHYKKKK+XLCil2mkoQBRWbqPiXSdHmWG+1O1s5WG4JPMqEj1wTVqHUrS4ljiiuoZJJE81FVwSyZxuHqM96dmBYopR6UdakBKKKKACiiigAooooAKKKKACiiigAooooAKKKKACiiigAooooAKKKKACuA+Nngi/wDHvhO00/TYbS6uLfUre9MF62IpEjYllJweua7+lFKSUlysD5zvfgb4suG1rU9Ot9I8NXV1bQ266bpj4im2S72dmxgOV+UNjiqy/AnxX/xOJJ7Cyu0u722vUhm1CRp0MaMh2zdQ4yCG6dRX0tupFY7q5/q8CeVHzfJ+z74s1uyhXU9Rt/MGn39sN8nmNG0ssTxKzY+cDyyC3vW/4h+HnjTxhp0rarpei+ZE9sILWCYpKVjBy4nABVsn5R259a9yPY8U05JqvYR6Byo818E/D/Wrf4a65oGu3ubrU/tSIwk81oI5VKqGfA3kZ61xcvwd8XeJINNi1VdNsBoeh3Wk2RtpS32l5UVN7cfKoC5x6mvfzyMUlP2UdgsZ3h3T5NJ8P6bYzFWltraOFyvIJVQDj8q8oj+DOrv8GrXwpJLatepraag53HyzEL7zyOnXb+te0Uuar2fQOU8h1/4Q6nqvju41cNbfZJNb07UfLY8lIInVwR65YY+lcve/AHXG8XavtaO60XUtZXVmmkvHXyxlSyGEcMwK8NmvobmjkcVH1eIuVHzgnwR8bSeK9O1C8nt7lLLWZ70zfbGCvDIHUbIgMIyq456kirdl8HPGTW/hLR7mHSF0vw2LqOO4LlmuhJDJGpZccD5xuHevoSip+rxHyo8c+Dfw18S+DfEVxc6j5dlpAsVtY9PS6NyPMDZ3oSMomOAua9M8ReGbLxTYG1vlJHVWU8qfUVr4oxVujCUeRq6YnFNWZ4tN8A7hrh/L1GMQ5+XcpzitbR/gTYW7K19dyXGOSiDaDXqdJXkRyTAxlzctzm+q0k72KGj+H7DQbfybG2SBO+0cn6mr9LSV7UKcacVGCsjrSUVZBRRRVjCiiigAooooAKKKKACiiigAooooAKKKKACiiigAooooAKKKKACiiigAooooAKcabS0AHbjivnr40aONO8WtcKuEu0Eg/wB4cGvoUV5z8bvD51Hw2l9EuZbN9x/3Twa8HOsN9Ywcrbx1OHF0+ekc18Bda8m8vtLduJAJk+o4I/LFe118qeD9bbw/4jsb0EhUkG/3U8GvqiKRZoUkU5VgGB9jXDw7iVUwzoveL/AywNTmp8vYdRRRX1h6YUUUUAFFFFABS4pKXk0wErz7x74u3b9Ns3+X/lrIv8qveNvGS2MbWNk+bhuHdf4f/r151aWs2pXSQxK0krn/ACa/MOJs/wCW+AwbvJ6Nr8l5nr4XDf8ALyexY0PSJtc1KO2iHU5Zuyj1r2bS9Pi0myitoRhEGPrWf4W8OReH7EJgNcOMyP7+n0rbr1+Gsj/s2l7esv3kvwXb/MwxWI9q+WOyANt7UpbNNor7c88KKKKACiiigAooooAKKKKACiiigAooooAKKKKACiiigApcUlLQBU1XUrfRtNub66fy4LeMyOx9BXxN4+8ZXPjrxNdancM3lk7IIyeI4x0Ar279prxu1np1p4ctXxLdfvrnB6Rj7q/if5V4t8NPBsnjjxZaacAfs+7zJ2HZAefz6V42LqOpJUon6Nw9hYYWhLH1vl6HrP7PHwrimjTxNqcO75v9DjkHHH8f+FfQvT3qGzs4dOtIbW3jWKGJQiIowAo6VNXo0aKpQSR8ZmGOnj67qy26LsgozRRXQeYLSUUUAFFFFABRRRQAUvFJRQAvFBpKKYC0bjRSUg1QtAGe9JSg4oASiiigAooooAKWkooAWikooAKKKKACiiigAooooAKKKKACiiigArzX9oiES/CzUWx9ySJv/HsV6VXAfHdPM+FGuA9kVvycV2YN8uIpvzX5iex8z/BmXyfil4cY97jb+asK+2MZr4b+GEv2f4heHZP7t5H/ADx/WvpT9oD4of8ACufBp+yPjVr8mG2HdR/E/wCH86+qzzDyxGLpU4LWS/UiOxV+K/7Q2jfDmZtPt1/tTV8cwxN8sX++e30r548Q/tOeN9amY295HpsRPCW6DIH1Nee6Homq+OfEEVjZRyXuoXT5JJyST1Yn0r6g8F/sjaNY2ccniK7lv7wjLQwNsjX2z1Nel9Vy3J4L617038/wFdy2PEPDnx88b6TrUN22rTaiAcNazcq4PbHrX2j4D8TXPi7wxaand6bPpU8wybe4GD9R7GsXw/8ABHwZ4bvY7uz0aL7RH9x5CXx+dd1wOAMCvmc0x2DxXKsNS5bddvwLimtz5n+JHhq+8TftI6hBZ+GNH8UFPDUDGHWJdiQ5ncbl4PJ6VzEGn3/wF8R2sV/qKQXlh4KvplkiVpordpL9CkaL1YLuCivrJNFsY9Xk1RbWMajJCLd7nHzmMHIUn0yc1U1jwfoniCaWXUtMt72WW2azdpUBJhZgxT6ZAP4V5ccQklFrQZ8w6X8aPHWmnxSbm6mnh8Pw6dq8sd5FGJ3tXkK3CkISB8o3DuMV7j8F/GV/8QtP13xDLOJdEutSlj0dVXGbaP5A+e+5gx+mKb4i+CejzeGtT07w1BaeHb3ULU2M18sHmsYG+8pBPJwTgnpXYeEPC9h4J8L6XoGlxeTp+m2yW0Kf7KjGT7nr+NFapSlH3FZga9FFFcIwooooAKKKKACiiigAooooAKKKKACiiigAooooAKKKKACiiigAooopgFFFFIAooopgFFFFIAooooAKKKKAClLYBJ6CkrlviB49tvh/a2NzfWl1Lp11K0Et1bxGQWx2EqWA5wxG3PqRSeiA2tC1yy8SaVBqOnzefZzZ2SYxnDFT+oNX6+RfEF3faZ4L8L6VdrrGmS/2LPd232czIHneeQogWMZMgG04bgBq3rnXpruTSLrxRc+JFuJtC02XSI9J8xTPdFP3wIAwX34BD8YrmVd9URzH0do+uWeuR3L2UolW3uJLWTtiRDhl/A1fGPWvmvwuut6R411eXVmvotHvb/U4tK+xq37i85YmRR95mUHZnjK+pFc54c17Xf7B160s5tXvrKOO0kvtTtTP5ix+diZQkgys2zJOzsKfttNh3PrfPoeKMd6+ZbOCbXpotO0HUdfHgy516xhhuppZVmIMcn2hUdvm8vITk9CTivXPhBZ3Gk2/iXSpbi7uLSx1aSG0a9kaSQQ7EYDceSASauNS72Hc72ilPXikrYYUUUUAFFFFABRRRQAUUUUAFFFFABRRRQAUUUUAFFFFABRRRQAUUUUAFFFFABRRRQAvGar6jZR6jYz2sg3RzIVP4irFApSipJpiaurHyVrmlyaJq11YyKQ8Llef0Ne9/B/xR/b/AIZS3lfdc2Z8ps9Sv8J/L+Vcn8dfDPlyQazCnDfupto79j/SuQ+F/if/AIRvxPCZG22tx+6l9BnofwNfm2Hk8pzN038L0+T2PAg3hcRZ7M+lKKNwZQQcj1or9KPoAooooAKKKX+VAxa4vxp41XT1eysm3XJ4eQdE/wDr0njTxoNPV7KyfNweHcfwf/XrzmGCbULlY41aWeRvqSa/NeI+I3RvgsC7zeja6eS8z1MNhub95PYLe3m1C6CIrSyyH6kmvV/CPhSPQbfzZsPdyDlv7vsKb4R8Ix6DCJpcSXbDluy+wrpc1pw5w79WtjcYr1Hsn0/4IsViub93T2F+79abRRX6MeWFFFFABRRRQAUUUUAFFFFABRRRQAUUUUAFFFFABRRRQAUUUUAFJJIsMbux2qoJJPoKcK4D44+KD4W+HuoSxPtuboC1i55y/BP4DNROXJFyN6FF16saUd2z5d+I3iVvFnjPU9RLbo3kKReyLwK98/Zp8I/2R4Xm1mVMXGoP+7J6iNTgfmcmvmrQ9Lk1rVrKwiGZLiVYh+Jxmvu3RNMi0XSbOxgULFbxLGoHsK8jCR9pUdRn6HxBWWDwdPBU9L/ki63Wkoor2j81CiiigAooooAKKKKACiiigAooooAKKKXtQAelJRRQAUUUUAIKWiigAooooAKKKKACiiigAooooAKKKKACiiigAooooAKKKKACuH+Ni7vhT4h9rfP/AI8K7iuH+NzeX8KfEXvbY/NhXVhf48PVfmJnyX4BYjxtoRHX7ZF/6EKn/aX8XN4n+KF9Csm6100C0iXPAI5Y/iT+lZvhe8XTvEWnXbnCQTLKf+AnP9K4rVbyTXNau7s/NNd3DP8AUsxx/Ov12FBTxarv7Kf4mPSx9Sfsg+BUs9BvfE9xGPPu3MFuWHIReGI+p/lX0RXP/D3w+nhXwTomlxrt+zWqK3uxGWP5k10FfleZYh4vFTqva+nobLRWCiiivMGFFFFABRRRQAUUUUAFFFFABRRRQAUUUUAFFFFABRRRQAUUUUAFFFFABRRRQAUUUUAFFFFABRRRQAUUUUAFFFFABRRRQAUUUUAFL97g0lFABij8KKKQrCbR6e9L06cUUU7BYXj0+lAwPzpKKBgetFFFABRRRQAUUUUAFFFFABRRRQAUUUUAFFFFABRRRQAUUUUAFFFFABRRRQAUUUUAFFFFABRRRQBn+INGi8QaPc2EwysyEA+h7GvljVdMm0fUriznUpLC5U/419crXkPxw8JeZHHrVsnzKNk+B1HY18nxBgfb0fbwXvR/I8zG0eaPOt0dF8JfFn/CReH1t5n3Xlp8jZPLL2Nd31r5d8BeJ5PCviKC6BP2dj5cy+qn/DrX09DMlzCk0TBo3AZWHQg105HjvreH5Jv3o6GmDre0hZ7ofSikor6M7xe9cf428YDS42srRx9qYfOw/gH+NaPi7xMmg2JCMDdScIvp715Ixlvbgn5pJpG+pJNfnvE2fPBx+qYZ/vJb+S/zPUwmG53zz2CGGa/ulSMNLNIenU5r1bwj4Ri0G3E0wD3jD5m/u+wpng3womi2ouLhQ15IMn/Y9q6b7x/lWXDfDv1dLG4tXm9k+nn6jxWK5v3cNg5NFKRSV+jnlBRRRQAUUUUAFFFFABRRRQAUUUUAFFFFABRRRQAUUUUAFFFFABRRRQAq180/tR+JvteuWGixtlLWPzZAP77dP0/nX0lcTJbQSTSELHGpZmPQADmvhfxt4hfxX4q1TVGJIuJ2KD0QHCj8sV52NqctPlXU+v4Zw3tsW6r2gvxO+/Zt8MnWfHLajIubfTYi/PTzG4X9Mmvq6vKv2c/DP9h+BReSJifUJDMT32Dhf8+9eq1thYclJeZxZ9ifrGOnZ6R0XyDHGaSlPpSV1nzwUUUUCCiiigAooooAKKKKACiiigAooopgFFFFABRRRSAKKKMH0oAKKKKdgAkDk8CsDU/H3h3R5fLvNYtIH/utIK8D+P8A8brx9Vn8N6FcNbQW7FLq5iOGdu6A9gK+ery+SP8Ae3VwF3H78r9T9TX1mByGeIpqrVlyp7EOXY+9P+Fr+Ef+g/Zf9/RS/wDC2PCP/Qfsv+/or4Gt7q2umIhnjlPcIwNT7R/dr1P9WaX/AD9f3ApM+8f+FseET/zH7L/v4KP+FreEf+g/Zf8Af0V8G7R6UbaP9WaX/Px/cHMfeX/C1vCP/Qfsv+/oo/4Wt4R/6D9l/wB/RXwbs9qNoo/1Zpf8/H9wcx95f8LW8I/9B+y/7+ij/ha3hH/oP2X/AH9FfBu0Uu1fxo/1Zpf8/H9wcx94/wDC1/CP/Qfsv+/opV+K3hJiANessn/pqK+C1MbswVgxX7wHUU4KMGj/AFZpf8/H9wcx+ienarZatEJbO6iuYz/FGwardfn/AOE/HGs+C9RjvNLvHhZTloycxuPQivtb4a+O7b4h+FrfVIR5cv3Joh/BIOo+lfPZjlFTAWne8e5Vzqa82/aI1BbP4W6hGThrh44h/wB9ZP8AKvSfrxXzZ+0944t9SvbPw/ZyiUWrebcFTkByMBfwFcuWYeVbFwS6O4pbHz/fyGGzlIOGxgGrXwe8Ot4o+JGhWG3cn2lZJB/sr8x/lWXrkwW3EYPzMa+gv2Q/h9JD9u8WXce0Ov2a03DqP43H6D86/T8diFhMHOo97WXqzJK7PpvG1QB0opfxpK/HGbhRRVPUda0/R1Rr++t7JXOFM8gTcfbNSBcopscqTRq8bq6MMqynII9RSySJDGzyOqRqMszHAAoAWikRlkUMrBlIyCOhpaACiiigAooooAKKKKACiiigAooooAKKKKACiiigAooooAKKKUUAJRS8UcUAJRRS0AJRS0YoASiiigAopaMfjQAlFLSUAFFFFABRRRQAUUUUAFFFFABRRRQAUUUUAFFFFABRRRQAUUUUAFFFFABRRRQAUUUUAFFFFABRRRQAUUUUAFFFFABRRRQAUUUUAFFFFACiq2pWEWqWE9pOu+KVSjD6irSnqKTbSlFSi0xNJqzPlHxRoUvhvW7qwlHMbfK3qvY/lXs3wX8WDVtFfSpnzc2f3Mnlk7fkapfHLwx9p0+DWIUzJB+7m4/hPQ/gf515h4F19vDvieyu922Itsk/3Twa/NVzZNmVvsv8n/keB/uuI8mfUdV9Qv4tMs5bmZtqRjNTo6yorqcqwyDXnPxK1zzrlNOibKR/NJg/xelfYZtmUctwcsQ9+nmz6jD0/bTSOV1rVpda1CS5lPLH5V9B6V2/w/8ACvloupXafOf9UrDoPWuX8G6Adc1VQ65t4iGc/wBK9iVRGoVRgLwBX53wxlcsxryzLF6q+l+r7/I9PF1lTj7KAvqccUDAz60maK/XjxAooopgFFFFABRRRQAUUUUAFFFFABRRRQAUUUUAFFFFABRRRQAUUUUAFLSUtAHnnx38Tf8ACN/D69VH23F7/osfr833j+Wa+SdB0uXWtYsdPhGZLmVYgB7nGa9U/aW8XDWfFkGjwSZh05P3mOhkbk/kMU/9mnwoNV8VXGsSpuhsEwmR/wAtG4/QZrwsQ/bV1BH6hlUVlmVyxMt3r/kfS+kadHpGl2tlCu2O3iWJR9BirVOY9qbXtx0Vj8ylJybk92FFFFUQFFFFABRRRQAUUVFcXUNnEZJ5VijHJZyAKYEtFeY+Lv2hfCfhXdGlydTuh/yyteRn0LdK8k8RftWa3f700mwh0+M8B5DvevXw+VYvE6whZd3oTzI+qGYIMsQo9zisTVvHPh/Qgft+r2luR/C0ozXxPrnxQ8U+ImYXus3JU/wRvsX9K5zy57yTP7ydz9WNfQUeG5PWtUt6E8x9kat+0f4J03Kx3z3zjtbxkj865O+/a00eMH7JpNzN6FyFFfPOneBPEOrEC10i6myf4YjXVad+z7431DaRpJhU95nC11rKMsofxqn4i5mdze/tbalIf9F0aCMeskmax7r9qjxVN/qrezgHbCk0+x/ZT8U3GPtN3Y2w9C5Y/pW9afsi3GB9o16Me0cRP86LZHS6p/ew944m4/aS8bTH5b2GL/dhFZ8vx+8cyf8AMaZf92Nf8K9dt/2SNMUfv9buHP8Asxgf1q9D+yh4dU/vNRvH/IUvrmTR2gvuHaR4VJ8bPGsnXxBcD6AD+lRN8YvGTdfEV3+DD/CvoeP9lvwko+aW7f8A4GKmj/Zf8HL1F0frJR/amUJ6U/8AyUXLI8U8B/tAeKPD+rL9tuJdbtZSA8EvL/8AAT619YW+utf+FX1WOCW1drVplhnXa6kKTgiuZ8J/BHwr4P1D7baWRmuR91rg79vuBXeyxrPDJEwyjqVI9QeK+bzLFYTETi8NC1t+l/kWr9T857i4kuriWeVi8srF3Y9SScmvMvjRD9o/4RSE2jX6Santa1Vtvm/u24r3H4keCrjwH4tvtNlRhAJGe3kI4eMnINcDrnhuDXrzSp5nZG065+1RbehbaVwfbBr9Kjy1sOvZvRpGaOBkkk8F6De6lpvhoaNe+ZDAgmfcJAzgevHWrniTxdrOgSWlnc6hZQXZhaWQpGzszZ4UKOcY7123iDQIvEmnizndkj81Jcr1yrBh+orI1vwHHq+tf2nHfT2U7wfZ5fKwd6Zzjnp1PSlKlUjpAZy1j8QNe8RSeHLfTltoJNSsJrqZ5QSEKMF4HvnpRo/jzxDLbaNqV8LX7BeXjWbxRg7xgsN4P1U8V0nh34c2fh260+aK5mlaxgmt4hJjGyRgxz9MVPD4BsoNN06xEshisbo3aHuWLM2D7fMaz5K/V6j0ODs/jJfXjwX0axPaTXfkfYlibzFj37d+7pnvirV58WtRsbixtpIIzLFeyx6hgH93Arqob8d610tr8MbWznjSK/ul0yO4+0pYjAQNndjPXGecVNffDLSr6+126cv5mrwCCbHRAO6+5IH5UuXE23DQwrXx1rOuXVlZ2Aggkv5rl4ZnBIW3iIUHHck1BJ4/8QefDpMSWp1ZdTbTpJTny2Hl7ww/Cumn+Hdp/Z+kQWlzPYz6WhjguI8FtpADAjvnFGn/AA5srOSxmNxNNc2941880mN0spUqS34GqVOvbcNDhrXxne6H411bQ0ZH1S/vIU+0yAiFP3QJ/E4OBWpffEDV7HxRc2M8lvZRQzpFCtyhC3CEDLB+gOSeK6jUvh3p2qrqnmvIsl9OlwZF+9FIgAUqfwqjffC+PUJZVn1a6eymkWaW1YAhmGOh6jOO1R7OvHZgdx/CDX0B+yq82oQ+KdLFxJbxPFHKJIjhkYkjIr59UbVAAwAMCvq39nP4dzaf4I1C7vPNtZdXwFKHa6xDoQe2cmuTOqkIYOSnu7W+8I6s88+KniDxP4N8QyaWni2fUIWTd+7kAZAeNrY6GvJ7m6+ZpppCzMcszHJJ9a+u5/2c/Cdw7ySrdySOctI0xJPvXm3xE/ZVa2sZr7w5dyXUkY3Gzn+8w9FPrXnZfmeBgo027S72sJxZ85rC2qXW9jtT09q9G034seKtFsILGy1R7e1gUJHGiLhR+Vefws2m3ymSIlonxJE3HQ8g19geD/hF4E8X+G9P1e2sWMV1EHx5h4buPwNezmeJw+HhF4iHNF7dSYp9DwkfG7xp/wBByX/vlf8ACuh8GftBeJtM1RTqEraxbyEKYSo3fVcd69u/4Z98Gf8AQPf/AL+GtTw78IfC3he+F5Zacv2gDCtKd236Zr5WtmOWSg1Gjr6WLtI6fR9R/tbS7a88mS385A/lTLhlz2Irwj4veG38SfF4SWcGj+JLiz0dEn8P6zKYgiO7ETRE/LuOCpPbAr6DrlvF/wAL/Dfjq5gutZ01Li6gUok6u0cm087dykEj2r5SnOMJ83Q0Pnn4eeONY1c6N4U8Kax/wi+k2mj3dw66kBcSrNDcmMxq5PzIPX0FJa/Ffxn4+03XppLy0tdL0/wnDqlzaeRuFzK5nQgHPCHyw1ev6j+zr4W1TxRY381jCul2WlnToNPjygTMm8sGB78g+ua7KLwB4dt0u0j0m3jS6s00+ZUXAe3TO2M+w3N+ZrrnXo7xiI+drz4n+OrXSfF+sWGqWlppPhZNK8rT/s2fPWaCFpFLZ4HznFX9a+L3jBXGu2+tWVnp7eMIfDq6LJCDJ5PniNn3ZzuIyemMGveH+Hvh2Sx1KybS4Da6kIxdxY4l8tVVM/QKo/CvMNW/ZtGvfESPXb2/tDp8eqxassUdsVuC8ZBVC2duMgc4yaI1aEm7qwHuLfeNJSscmkryxhRRRQAUUUUAFFFFABRRRQAUUUUAFFFFABRRRQAV5x4q+LC+C/Guq2upqqaJp+irqckqKTJuM3l4x3HIr0cV5f8AEb4RXXjbWdavYbyOBNQ0ePTVVwflZZxLuPtgYpmdTm5fc3KevftEadZ6Rcz2OmX017bXVpDLZzQsjiOdsLIB6EA4963R8bvDh8QLpW6f/j6Wxa68s+Slw2MRFv72Tj61jeMPg/f69rWs6laXkMUl3b6fHCkgOA9tKz8+xzXO6f8As6XNn4qkuy9lNYTav/a7yytIZVJYO0YXO372cN1p6HLzV76ot+LP2iBPDpcHhayupZrrW00l7u4tmMS4ZhIF/vMNhrsrb40aBP4ij0mRbm1kmklihuJoisUrRglwCfQA/lWPYfB28s9A8Naeb6MtpXiGTWnfB+dWeVto9/3g/KuRh/Z11qTWbC8u7+1mNteXE0l0XkaaeOVXQjk4XAfoPSjQXNWXQ7y0+PnhqeCe6n+12dksD3MV1cQFY541bBKHvyRj1zTX+P3hq30u9uroXVpLatCrWs0RWVvNbbHge54rmL34JeJte8DL4R1PV7NNHtbJbW1MEZ3yMrKY2cnoAFGQOuTUEHwF1P8As/VSYdHS5vPs8f2Z1kljkjjbcwZmO4E9iOlGgOpX6I9d8J+K7XxfpZvbaOaALI0TxXCFHVh1BFR+KvGumeEbXzLyb96R8kK/eb8KxPhH4FvfAOg3dne3PnG4u3nihWRpFt0IGI1ZuSBgnn1rT8afD3TvGVuBcJ5V0o/dzr1HsfUUK19QryxLw7lQS5/M4Bf2h180htKOwHqJOa6LQvjhoGqOkc7PZSNx+9HH51xV5+z9qalmhvoXPUBgRXF+JPhzrnhZDLd2haAf8tY/mUVvywex8BLMs7wb560Lr0/yPqi2u4L2BZreVJo25DIcipK+WPA/xC1DwbeJskaayY/vLdjwR6j0NfTWi6xba9plvfWr74JlDA9x7H3rGUXE+vyvN6WZRaWkluv8i7RRRUHvhRRRQAUUUUAFFFFABRRRQAUUUUAFFFFABRRRQAUUUUAFFFFABRRRQAUUUUAFFFFABRRRQAUUUUAFFFFABRRRQAUUUUAFFFFABtI59acOOtJn5aKYFbVtPj1bT7i1lAZJkKMD9K+T9WsJNJ1O5tJOHhkaM/ga+uRXz58bNH/s/wAXG4VcR3UYkz7jg/yr43iTDqdCNdLWL/Bnl5hT5oKa6HpXw/8AFy3nw/S7mbM1mhif3K9PzGK89uLl7u4eaQlpJG3H6msbwZqs0Ok39gCfJmdJD9Rn/P4V1fhPS/7W1y3hIyitvf6CvzfNsdPNJ4fBR3Wnzen5H0+VaYX2sj0zwbo40fRYgy4mlG9/x7VuUqqOF6AUlftmDwsMHh4YeG0VY4ak3OTkwooortMgooooAKKKKACiiigAooooAKKKKACiiigAooooAKKKKACiiigBelH86KP50D6hWR4u8RQeFfDt/qk5AS3iLAHu3YfnWvXzf+0t48+2XsPhm1fMNuRLdFT1fHyr+HX8qwrVFTg5HpZbhJY7ExpLbr6HiWqajPq2pXN7OS89zI0rn3JzX2F8FfCP/CJ+BbGKRNl3cj7RNxyC3IB+gxXzn8FPBX/CZeNrZZU32VmRPNxwcHgH6mvscKFXAGB2rz8FT5m6sj6/ibFKEYYKn01f6IGpKKK9c/PQooooAKKKKYBUN5eW+n27z3UyW8KDLSSNgCuA+JXxs0T4extB5gvtUP3bWI52+7HtXyx48+KmvfEG6ZtQumjtM/JaQkqij39fxr3MDlFfG+98Me7JcrHvXj79qDS9E8210CH+1LsZXzmOIlPr7189+LviZ4j8aTNJqWoyNGTkQRnZGPbApvg34e6746uxDpVi8q5+edhhE+pr6E8D/suaVpfl3GvzHULhefIj4jB9/WvqeTLcoj72s/vf/AI1kfNWh+F9V8R3Ah06xmu3J/5ZoSPzr1bw3+y34i1TY+pXEOmRdSPvt+VfU+l6PYaLbrBYWcNpEowFiQKKuHmvJxHEVeelCPKvxKUTyLw7+zD4T0lUa98/VJh1MjbV/IV6DpPgXQNDULZaTawdsiME/ma3KK+drY3E1v4lRv5lWQixpCNsaqg9FGKXPvRRXFe+4wooopAFFFFABRRRQAUUUUwOV8efDnR/iJpptdThxIoPlXMfDxn29vavAtX/AGTtbguW/s7U7a5gz8pkyjYr6nor1cJmmKwa5aUtOz1FZHyT/wAMr+K/+fiy/wC+zR/wyv4r/wCfiy/7+GvraivQ/wBYcd3X3BZHySf2V/Ff/PxZf99ml/4ZZ8V/8/Fl/wB9n/CvrWij/WHG919wcqPkr/hlnxX0E9l/32aP+GV/Ff8Az8WX/fZr61ozT/1hxvl9wcqPklf2V/Fn/PxZf9/DSn9lfxX/AM97L/vs19a5ozR/rDjfL7g5UfJI/ZX8Wcfv7L/v4acv7K3iokZubID/AHzX1pRS/wBYcb5fcHKjwz4f/sv6fod5Fe69dLqcsZ3LbIMRg+/rXuMcawxrHGoRFGFVRgAelOorxsTjK+MlzVpXBaBRRRXEM+Nf2mfBK+F/Hn9oW0ey01RTNhRwJB94fyP413n7I/jTzLXUvDE75aI/arbJ/hPDqPxAP416B+0N4FPjT4e3DwJvv9Ob7VDgckDhl/Efyr5H8AeLp/Avi7T9Yhz+4fEiD+JDww/Kv0XCv+1crdF6zj+mxk/dZ+g1FZXhvxLpvizSYNR0y5jubeZcgqeR7EdiK1dvtX57OMoycZbmou70FGaSo5riK3AMsqRAnA3sBn86SAlzSUdRkcihmCgkkAdyaQBRRnv2oo9QCimSzRwYMkixg9NxApUkWRdyMHX1U5FADqKWko2AKKKKXMAUUUUAFFFFABRRRQAUUUUAFFFFABRRRQAUtJRQAtAbjFJRQApyaSiigBfQelLuptFA7i+1Mnt47iJopUWSNhgqwyCKdUjYwaCWk1Zo+b/jB4DTwrqSXlkm2wuifl7Rt3H0rY+AfihodQuNFmfMcwMsQJ6MOo/KvSfijoo1vwXqCBN0kKecnrlef5V83eE9UfRPEmnXiHHlTLu+mcH9K6o+/GzPy7MKf9j5rCtS0jL+mj68opFYSKGU5VhkUtcx+op3V0FFFFIYUUUUAFFFFABRRRQAUUUUAFFFFABRRRQAUUUUAFFFFABRRRQAUUUUAFFFFABRRRQAUUUUAFFFFABRRRQAUUUUAFFFFAB/OiiigBVry34+ad5mjWF4BlopjGT7Ef8A1q9RrjPi9a/avAt6TyYyrj8xXl5pT9rg6kfI58RHmpSR494Zt/L0/eeC7E16n8LbEeZeXRHQBB/M15zpsflWcCdwor2L4d2v2fw5HIfvTOW/z+VfjfDVFYvOFN7Ruz6Ll+r4GEPJHTLSUvFJX7weKFFFFABRRRQAUUUUAFFFKvWgBKKkbpUdABRRRQAUUUUAFFFFABRRS0AJRRRQAUvakqpq2r2mhafNfX0ywW0KlndjSei1KScnyrqc98TfHdv4B8Lz3zsGu3/d20Pd3PT8B1r4wvLi71vUZLiVmuLy5kLHuWYmum+KHxDufiF4jluiWjsIiUtoSfur6/U13v7PXwvbV9QXxFqMX+g25/0ZGH+sf+99BXh1pPE1PZx2P1DAYenkmClia/xP+kj1r4L+AR4G8JxCZANRusTXDdwT0X8BXf0v8PpSV7MIKnFRR+b4ivPFVZVp7sSilNJWhyhRRXM+NviHovgHT2udTulWTHyQKcu59AK0hTlUkowV2wOgu7yDT7d7i5mSCGMbmkc4AFfN/wAWv2k3nafSvCr7I/uyX+OT6hP8a86+Jvxo1j4iXTxFjZaUp/d2kZxkerHuaxvAnw31n4gagtvp1uRFn95cOMRoPc19xgclp4eP1jGvbp29TNy6IwY4rzXdQwizXl5O3uzuTX0F8Lv2ZSwh1HxV8oPzLYKef+Bn+leqfDf4P6L8O7VDFEt1qWP3l5IMtnvt9BXeVyZhnspL2WE0j3/y7DUe5V0zS7PRbNLWxto7WBOAkagCrVFFfISk5O7ZYUUUVIBRRRQAUUUUAFFFFABRRRQAUUUUAFFFFABRRRQAUUUUAFFFFMAooopAFFFFABRRRQAUUUUAFFFFACModWUjIYYIr5J+OfwFvvDuo3GtaHbm60mZi8kMYy8DE88dxX1vQQGBBGQeoNelgMfVy+p7Snr3XcTVz879D8Va14TmY6bf3OnsT8yoxAP1Fem+BP2lPEuj6mi6s7azZyEK0eAJB7rX0nr3wj8JeJJDJe6LbmRjkvGuwn8qpeHfgb4P8L6mNQstMBuF+75zb1X3APevp62cZfiYP2tHX5fmRytHYaLqseuaVa30UckUc6BwkylWGexFeEfGzQdR1v4nQy22nReMbK10pVm8OrqH2We3ZnYi4UZAbIGPbFfQgGOAMCuP8YfCnw9421SHUtQt5o9Qii8kXVpO0MhjznYSvUZPQ18hTqRjO+yNDwz4f/EnxFri6H4Y8G6slnZw6NdXk0/iFDLcxyw3BjMJwecdN3oM0yP41+MfH2n628S6fZaVp/haLVr2FlYvNI5nQohB4UmLOa9Fuv2bfD914wsLxYfsuiWWkvp8VrbSvHIHaXezFgeQwznPXNdta/CvwzZw30VvpccUV5p8elzqpID20e7Yn4b2/OuiVWjulqI8KvPjL44sdN8UatYS6bFofhRdMDWkkbNLcrNDC7ruzxjzDg1pax8avGIm/t2yn0yHQW8WReHBp06H7Rs88RPLuz1JycelewyfCnwzLpesae2mKbTV/J+2x7j+98pVSP8AJUUfhXleufs5an4h+Iseo3MmmwaLDrcWsrNAZBO3lkMsZj+5kkDL9SKcZ0ZN3VgF/aiS8vPGfwq0+1sm1VbnUL4SaeLs2yzhbfI3PkdDzXB/DXx94k8L69r/AIHtgNG1u/8AEUcUFrezG7g0y2e28zKyZ+ctsJ254Jr6U8cfDPQPiJJpr63avPJp0jy2skcrRPEzLtYgqe44rKX4G+DY9Il09NK8tJLhbprhZW+0GVRhX8zO7IHFZwrQVPkkgPMdK+L/AIz8QeLl8AQXem2uu299eQ3GtmItDJFAiMNiZ+8fMAIzxtNUfBfxG8W+NvjD4C+0alDbWv2XV7W+tYFJiuZLeVEMi898gj05r1xvgb4QfSbawGnvCLaeS4juYp2WcSP99jJ1JbvWhY/Cbwxpc2gT2mni3l0PzPsLxuQU8z/WZP8AFuxk570nUpW0QHWc0UtFefyoYUUUVQBRRRQAUUUUAFFFFABRRRQAUUUUAFFFFAGb4k1628L+H9S1i8OLWxt3uZMddqqSf5V5ZcfFHxpovhu18W6rollH4elMckttFITcwQuQA57EjIJFeoeLfDsPi3wvq2iXDFYNQtZLZ2XqoZSM/hXlVx4F8f8AiTwza+DdXOmQ6LGI4bjVIJC0s8KEcBMcFgoB+tM5qrmnoaVv8RvFPjbVtcXwbp9jJpmkzmza5vpCDcTqoLKgHQDIGTWPa/HjVfEU+gWulWdjYXd5Ddm8XVJtiwTW7hHjB78mtDT/AAT40+HGra9D4Ri03UNG1a7a/RL2UxvaTOAHHA+ZcgGqOhfs5wW2qeHX1sW2tW1rb3sl80wI8y7uJFcuo9AcinoY3qvTqdz8KfH1x4+0bUJru3ihurC+ksZGt33xSFADuRu45/StrxT4x0zwjZma+mCsR8kQ+834Vd0XQNP8N6dHY6XZw2FnHysMK7VGeprC8dfDmw8awZmzFeKMJOvUex9qFa+oYiWJjQl7BJz8zh/+GiLZZSG0yTbnghhXRaN8b/D2pSKk8j2Tt/z1HH515/d/s+6ypYw3dvIO2ciuQ8QfDjXvDas93ZM0I/5ax/MtdPJTezPzyWa57hHz1qd16f5H1Ks9vrGmy+RKk8M0bKGQgggivkG+t20/ULiE8NDKV/I1ueCfH+o+C76NopGks937y3Y8Ed8ehqh4ture/wDEWoXVod1vcSGZfbdzj9auEeRnn5tmtLNMPTqJWnF6o+pvCd7/AGh4Z0y5znzLdD+la1cV8Hr77d4DsMnLRboz+Brta45bs/VMDV9thadTukFFFFSdwUUUUAFFFFABRRRQAUUUUAFFFFABRRRQAUUUUAFFFFABRRRQAUUUUAFFFFABRRRQAUUUUAFFFFABRRRQAUUUUAFFFFABRRRQAVg+O7cXXhHU4z3hJ/Lmt6s7xFH5uhXy+sLfyrlxSvQqLyf5Ca5tDw9cKgHsK9s8KxeT4dsF6fug3514pwM17poq7dIsh/0xT+Qr8k4JjfGVpeX6nuY7SnFFyiiiv2U8QKKKKACiiigAooooAKKKKACiiigAooooAKKKKACiiigAp1NpaYwJpKK5fxx8SNG8Bae09/cB7jH7u1jILufTFZyko6sulSnWkoQV2zc1jWLPQdNmvr+dbe2iXczsf8818mfF74uXPxBvvstput9HhPyR55lP95v6Csz4ifFLVfiFdf6S/wBnsUbMdqh+Ue59TUvwz+FeofELURtDW+mxn99csOPovqa8etiJVn7Onsfo+W5TSy2n9cxrV1+H/BH/AAn+F918QtWBYNDpcDDz5sdf9ke5r7B0vTbfR9Phs7WJYbeFQiIo6AVW8N+G7HwppMGnafCIYIxjjqx7k+5rT9q78PQVKOu58pm+aTzGrppBbL9RT19qKSmTXEdvGZJZFiQDJZjgCu30Pnx9RzTR28TSSuscajJZjgCvL/Hn7Q3hvwkskNrL/a1+OBFbnKg+7V83eOvjJ4j8eO6XN21tZE8WtuSq49/WvcweT4jFu7XLHuyHI9x+Jn7S1joglsPDey/vRlWuT/qkPt6mvmXXNe1HxNqUl7qV1JeXUhyWc5/ADtVvwt4M1fxlfpaaVYyXLE8sBhF9ya+ofhj+zvpfhFYr7WAmpaoPmCkZjjPsO5r6z/Yckp95/j/wCdZHlXwq/Z4v/FbQ6hrYksNLOGEZGJJR7DsK+ptB8P6f4Z06Kx021jtbaMYVUH6n1NaAAGABgdABRXxmOzKvjpXm7R6LoaJWCiiivJGFFFFABRRRQAUUUUAFFFFABRRRQAUUUUAFFFFABRRRQAUUUUAFFFFABRRRQAUUUUAFFFFABRRRQAUUUUAFFFFABRRRQAUUUUAFFFFABShsUlFAC5NJmiigAooop3AKXPGKSikAUUUUAFFFFABRRRQAUUUUAFFFFABRRRQAUUUUAFFFFABRRRQAUUUUAO/hzmm0uTjFJQAU2SNLiNo5EV1IwVYZBp9IRQJq6sz51+Mvw/XwzqCajYptsLk/Mg6Rv/ga81X9K+v/ABV4fh8UaDd6fKv+tT5Sf4W7H86+SdS02fRdSuLG5UpNC5Rh9K7qcuZWPxziLLVgsQq1NWhP8Ge2/s96sJdM1HTmb54pBKq+xGP6V6/ivlX4b+K/+ER8UW905/0aQeVMP9k9/wADX1LbXMV5bxzQuskUg3KynIIrnqxs7n2vDOLjXwaot+9D8iSilIorE+vCj8K8v+Inxkh8NTyafpqLc3q8PIfuofT3NeT3PxX8UXkjOdTkjz/CgAAraNKTVz5fGcR4LB1PZNuTW9j6o2+1GD6V8oH4neJ/+gvN+YpP+FneJ/8AoLzfmKv2LPN/1uwf8kvwPq/B9KK+UP8AhZnif/oLz/mP8KP+Fm+Jv+gvP+Y/wo9iyf8AW/CfyS/A+seKDtr5O/4WZ4m/6C8/5il/4WZ4m/6C8/5il7Fl/wCt+E/kl+H+Z9X8UV8zaF8avEWkzAz3Avoe6Sjn86938E+NLLxtpv2m1bZKvEsLfeU/4VEqbie1l2eYTMZclN2l2Z0NFLikrI98KKKWgBKKKWgBKKXPvRn3oASilyaMmgBKXFGaKAA0UUooGJR+lL+FJQAlFLUV1dQ2NvLcTuI4Y1LOzdABQIkpplRerqPxr598dfGzUNWuJLXRnNlZqcCVfvv7+1eet4g1OZy7ajcsxPJ81qAPsPzo/wC+v5ijzo/76/mK+O/7c1H/AKCFwf8AtqaT+3NR/wCf64/7+t/jQB9i+dH/AH1/MUedH/fX8xXx1/bmo/8AP9cf9/W/xo/tzUf+f64/7+t/jQB9i+dH/fX8xR50f99fzFfHX9uaj/z/AFx/39b/ABo/tzUf+f64/wC/rf40AfYvnR/31/MVV1Zlm0u6RWUs0TADI54r5E/tzUf+f64/7+t/jR/bmo/8/wBcf9/W/wAaipHng4ProM+iJfAcI8M4DKdRA8wtkc/7NdrpjrHplorMqssSAjPTgV8h/wBuaj/z/XH/AH9P+NJ/bmo/8/1x/wB/W/xrycFlOGwE+ehG2iXrbr6m1StKorSZ9i+dH/z0X86POj/56L+dfHX9uaj/AM/1x/39b/Gj+3NR/wCf64/7+t/jXsmB9i+dH/z0X86POj/56L+dfHX9uaj/AM/1x/39b/Gj+3NR/wCf64/7+t/jQB9i+dH/AM9F/Ojzo/8Anov518df25qP/P8AXH/f1v8AGj+3NR/5/rj/AL+t/jQB9jrJG3/LRfzoLL2ZT9DXxx/bmo/8/wBcf9/W/wAafH4i1SF1ZNRuVZeQRKaAPsWivn7wH8br7TbiO01tjd2bHHnn76e59RXv1vMl1BHNEwkikUMrLyCDQA+iiigAooooAKWk5pJJEhUtJIsajuxAoGvIWlx+dc5q/wARvDehxs13q9qpH8KuGP5CvPde/ac8P2OV063mv5OxxtWspVoQ+JndRwGKxGlKm2ey/WsXxF400bwrbmXUr6K3GMhS3zH6CvmPxV+0R4m13fFaSR6XbtwBCMv/AN9GvNb7UrrU5jNd3MlxKTktKxY1wzxq2pq59PheGasrSxMlFfie4+PP2lp7xHtPDcLW0Z4N3KPm/wCAivE77UL3Xb4y3M0t5dSHGWJZjn0rW8PeEBrG2W71K00u07y3EgB/AV634V174W/DhRKt7/a+ogcz+Xuwf9nsKVLB43HPSDt6HuTxeWZHDlpLmn5b/NmT8L/2f7zX5Ir/AF4NZ6fwy2/R5Pr6CvpLSdHtNDsY7Oxt1t7eMYVEGBXieq/tZaPagrp+mXFx6b8KK4jXP2rPEd8pXT7O2sF6BiN7V9PheHcWlpC3qfB5hmtbHyvUdl0XQ+r3kWNSzsqqOpJwK5nXvid4Y8Nq327VrdGUf6tWDN+Qr4x1z4l+KPEhY32s3Lox/wBWj7F/IVgwWt1qlwEiimupWPRFLE19LR4ba1xFS3oePzH0f4v/AGr7WDfD4e09rh+n2i5O1fwFeJ+Lfip4l8Ysf7Q1KXyT/wAsITsT8hW34X+APi3xKVdrH+z7c9ZLr5f0r2Twn+yxounNHNrN3JqUq8mFPkjz/Wu2+U5Zt70vvZHvM+adB8K6r4muVg0yymu3Y/wKSB+Ne9fD39lvDR3nii49xZQH/wBCb/CvoDR9D0/QbVbfT7OG0iUYCxoBV7+deLjOIK9ZclBcq/EpRM7RPD2neHbNbXTrOK0hX+GNcZ+vrWjx2oznrSV8vKbm7yd2WFFFFQAUUUUAFFFFABRRRQAUvHehax/FXirT/BuizalqMwigjHA7s3YD3q4xlOSjFXbFKSirs16p3etWFj/x8XkEP+/IBXyd49/aL8QeJZpYNLc6TYZIHln94w9z2/CvLpr/AFDVJCZbi4upGPOWZjmvq8Pw7WqJSqy5Tw62awg7QVz7/wBO8Qabq0jx2V9BcugyyxuCRV+vhr4eaH4tuvENudAjure7Ug+bgqgH+1ntX2xocd9HpNoupPHLfhB5zxDClvavMzHLo4GSUZqV/vOzC4p4hNuNjkPFXxi0nw1rs2jxWd/q+oW8QmuYtOgMvkKehf0JHaug0Pxpo/iHQbHWbW9jWxvFzE0xCEnOCMHuDxivKYddl+EfxG8czapo+oXtrr1xFfWV5ZWxmD4iCGE46EFe/rXH69Dd32vQ6p408JXa6Xd6BJHp2m6fGzx2100rEhgvSRlKc9ua4PZRex0+0Z9MzalZ27Kkt1DEzYAV5ACc9Kz7Xxjo15q2paZFfwm900ot1GXA8suMrmvmCT4Wa5qXhbxZPr9je3mvWvg2zjsZN75W6VJCdmDzICEBNQ+KPAd9qGpeIbY6NffatWvfDs09xCjAyQhkFxlh6HO6qWHj/MHtX2PrT+1rHzI4/tkG+QZRfMGWHtzzSTatZW8rxS3cKSohkaNpAGCgZJxXyP8AF7RdRtfFWuWuj+H7q2axurL7E9vBLK7wR7CWjfOEUDcCOSa3fC/h+K/8QX1p4h8Oave+LbnXbq4XUhvWL7GwPlZfOPL2EKV9c0vq6sncPavsfQUPj7StQ8GDxPphk1bTXjEsf2Nd7yAkDAHrXNeEfjvovjLVprG007U4DbzNb3E9zblIoJFXcVdj04I/Oqv7MekDQfgt4e0yTT5dNurRGhuYJkKMJVYhjg+vrXlvjDwz4lTwf4zFlZ3CRS+OVu7mMRsxnsdiBiFHLLuAzjrg1MacG3FhKcrJo+m21WyjtRctdwC3PAlMg2n8ax9W8f6LpF5NZvdrNex2TX4toSGd4VOCVHevlVvCepLoMl466jHpDa+1zaW7WMjWqr5AVgYc7hGzZI/2s0+Pwtqc2hx3z+Fryx1K68H39naeWsjMkglJQZPKlk6A884rRYeP8wKrK2x9eQ61ZSrADcxRyTAFIncBzkZxj15qU6jarceQbmET/wDPMuN3PtXzDcfDW8n8P+M9ZfTL2TxDHqmntp8pZ96IiwbjGM9Pv5/Gufulhs9X0pNR07UJPGMnjhWm1QFzE0BnOxQwO3aE2jb2Iqfq6b0Ye1fY+yPWk9aT8c0Vxm4UUUUhhRRRQAUUUUAFFFFABRRRQAUUUUAFFFFABRRRQAUUUUAFFFFABRRRQAUUUUAFFFFABRRRQAUUUUAFFFFABRRRQAVz/wAQNav/AA34K1jVdMtlvL2yt2uEgbo4Xlh9doNdBTJoUuIXikXdG6lWU9wRgigT2PMta+NVrY6j4TS38uSy1Owl1a9mOT9ntUVfmwO5dgo/Grsfx68HnSbzUJb2a2is5ooJ45oGWRGl/wBX8vXDdjXA6P8AAHxFoug+Mo49Rt5dRukSx0ZyTiCxSQyCM+hJYjPsKqaV8CPFLa3c3d3HYw213d6ZdPD9oaZkFtISykt94kGq0OPnqroejQfGrRYrTUb+7ncWkc8EMEMcDm4LSIGCsmM7iOfpWVrH7Q2iWOqeF5LZpLrR9WS8DyRQs0ySw7Pk2AZzljn6Vl+OPhH4n1DXtS1LSpLeW3utVhvHs2mMTTRLB5eN4HykNzx1ArA8N/Bnx34PvtD1Gzh0m6udLvNRnMEszbZEuRHgBiMgqVPNLQTnVXQ9G/4XVo82sWEkV3D/AMI9caTNqTXzHGzy5FQqR65JGPUVZh+OnhCTRb3Umv5II7No1khmhZJsyHEeEPJ3HgV5nqX7Nur6n4ZXT3v7eK5lsLvzmTIQXM10twFX/YBG2nN8EfEd7pur3U+m6YL64+yotjNcvKJEifc373qpz93HTFGguer2PcvCvizT/GWki/055GhDtGyyoUdGHUEHoaXxN4s03wrZtcX86px8sY+8x9AK5n4O+E9Y8IeH7231mVTLPePPDAJTL5EZAAQufvHg8+9XfiB8N7PxxCru7QXka4jlHT6EU1a+oYieIjh3KhG8+zOOk/aKs1kZRpkmAcA7xTf+Gi7X/oGSf991zbfs+66WJ+023X1NH/DPevf8/Nt+Zro5aZ8HLGcQ/wAn4I6Vf2jLT/oFyf8AfYrz34ieNNO8aXMN3b2LWd4Pld8j517Z963f+Ge9e/5+rX8zXK+MvANz4J8lby6glll6RxkkgeprSCgnoeVmGIzerh3HGQ9z0Rzmfeuu8J/FDWPCEfkwy/aLXPEMnIH09K43NWdP0u61i6W3s4XnmboqDNbuKe58th8RXw9RSoNqXkex2/7Rm4BZNJLOTj5H612k3jTUJPBWpaxPpraaI4C0KyNlmJ4Bx2615JpnwP8AE0vlT4htnUhlDtyMHNepahpPiLUPAWrafq4gmuPIPlSQn7+OeR68VyyjFPQ/SMvxWaVYT+tKS0dvd3durPm2aZ7iZ5ZGLO7Fix7k1H6U5lKMwIwQab6V2H5ZJtybe5jeMvESeE/C2qaw6eYLOBpQn949h+eK4y30/wAftpFprUeq291eShJn0nywse1sEoG9QD19q7Xxh4fTxV4Y1PSJH8tLyBot/wDdJ6H88VwHl/ETUNCtvDz2FvpskeyGbWopwQY1PLIvXcQP1pM9DDqPI7WvfW/Y3PEHxe0rw/fXdq9pfXa2Cq1/cWsJeK0yM4cjuByaluPixo0XiKPR4UubuZoo7hp4Y8xRwupYSM3ZcCuU1Lwn4o0X/hMtL0rTotRtPEcrSx30swX7OXjEb7x3AxkYrR0H4X3elf8ACQWMkg+y3ej22mw3OfmJSJlY47cmp1NvY4bl5pP8dzX0L4uaRr2q2lmlve2qXpYWd1cQlIrkgZIQ/TpXcV4j4L+Gur2mqeHLa90cW0WjtulvpLwyLKVUqpjTtn3r26qjfqcuKp0qckqTD1rtvg/r0ui+NrRFYiK6PkyL2Oen61xNdb8K9Jk1XxxpqoMiJ/NY+gHNKfwsrLpTji6Tp73R9QajqVrpVq9zdzpbwqMl3OBXlesftA2treMlnZG5gHSRjt3fhXo/izwrZ+LNMazvFbZ1VlOCp9a8R1P4Ca1HdOlrLDNAD8jscEj3rhiovc/Ws6rZnRaWChdd939xr/8ADRh/6BX/AI/S/wDDRR/6BWP+B1zw+A3iTt9n/wC+6RvgP4k/6d/++60Spnyv1ziH+R/+AnRf8NFH/oFf+P0v/DRR/wCgV/4/XN/8KF8Sf9MP++6T/hQ/iT/ph/33T5aYfXOIv5X/AOAo6X/hoo/9Ar/x+lH7Rh/6BP8A4/XM/wDCh/En/TD/AL7pf+FDeJP+mH/fdLlph9d4i/lf/gKOk/4aLP8A0Cf/AB+j/hoo/wDQK/8AH65v/hQ3iT/ph/33R/wobxJ/0w/77p8tMX13iL+V/wDgKOk/4aKP/QK/8foH7RZ/6BX/AI/XN/8AChvEn/TD/vuj/hQviT/ph/33TUaY/rvEW6i//AUdGP2ij/0Cv/H6P+Giz/0Cv/H65mb4F+ILeN5JHt0RBlmZ8ACuAmtzb3Dxh1kVW2716Nj0rpoYRYiXLBHp5fHibMayo01bu2kkvU9oH7RRA50v/wAfo/4aKPJGkH/vuvG4YGkfZEjO56KoyTXT6X8MfEmrqGh0941P8Uvyj9a9pZXhaSvWl+J+wYPIlhYKWOxDlL5JHoNj8eNQ1W8jtbLQTcTSHARXyan+M3iPUrfwXY210iWl1fyHzY4mzhFAOM/XFc/4a+GPjTwzqkd/YpbxzKMHc4IYdwa1vjdY6lf+E9K1C9tlguLeYpOsbblG4DBz9RXi46nQptewtb1ObHU6FNpUNV63PEsc15x4P+I0c/iLxlY6zqdrbrp+peRapI4Q+XsB/HmvR1ryfwV8O7S+8VeObrXNGjm+0apvtZLiPO6PYBke2a8k8steHfipbxt4yvtVvo5NL0/UFt7V4RuLgqCFXH3iTWjb/Gnw/NZ6jNOl5Yy2MQnltrmApL5ZON4U9RmvN77wBqWmya3c2GksbSw8SwajHZRrgTQKmG2DvgnP4V0r6XN8UvHMmpNplxp+j2+jz2DPdJseeSU9Mei4oA7xfiBoreKrXw+LgnULmz+2xqB8vl4znP0q1oniuy8Q+HzrFiJJbTEhX5DucISDgd+RXzrH4J8YReGZPEYsJf8AhJrWddMgix8xtlhMO76ZO6vovwjoKeGfCulaTGOLS3SI+5A5P55oA4Xwb8brPUvBk2s6xDNbSLePaxxpEd0x3EKqD+JsDmuu8I+PtN8ZPdQ2q3Frd2uPOtbuMxyKD0OD2PrXkGk6Nq2k6Xoc8ukXU3/CPa7dT3NuqcyRyltsif3sZFdz4Niu/EnxM1XxSbGfT9N+wRWEK3C7HnYMWL7fQZxQBlfFD4mat4L+JXh20gZTokiCS/XbkqjSCPdntgsKPjN8TtT8M+JPDelaKy5mlSW+kIzthaQIo/Ek/lV3xx4Ln8U/EOSOS3c2Fx4fuLUz4+VZS6lRn1yM/hXC2fg3xFq3hO51bVtPl/tufVLC3WLGWW3t3ALfQnLUAepeIPjDofhvU7yynivJxY7ftc9vbl4rfIz8zDpwRVnX/itoug3dvbBLrUZ5rcXYSxhMhWE9HOOgryTxlpeu6xL41sbuy1V7+6kkWxgsVCW0kW0bXdu565zVq8s2MGh3d3pes6bcLpEMEd/pykyF1GGikT0yOKAO01D4yQf8Jt4V06wgmudN1aB5WmWIk9Btx9DnPpWnN8aPDkOqPaF7gwJP9ma/WEm2Emcbd/TrxXEWem+IIdQ+Heoalp8zyRQXlrOYYxmIy4EbMB045Ncva+Cbu18NHwtdafrVzqX2pkaFH22jqZSwl3Y6YIP1oA9sl+KGjL4wPhmMXE+qLIqOsURKpuXcGY9hjvXX1wHgXQbjS/H3jK6ntWSK4NqkE7D76rEAcH61Y8beKNZ8KeJNHuIrCa/8PSQypdrax75Ul4MZx6daAMbwr8Ujb6H4j1HXZGkSz1qbT7eO3j3O4GAiADqa04/jNoP9l6hezx3lp/Z7xrdQTwFZIg5wrEf3fevOIdE8Q6d4N+1myuraHUvEMuoXMcMYa5gt2+6QOzcD86u+DfCj6t4o8X2t5p+pJpetaYkMNxqPLvt3AkntyQQPagD1jUvG2laTrFhps87G5vIJLqPaMqIkGWcnsOaxNB+MOh69q1pYxxXts14SLWa5tykc+Bn5SevHNcJ4F8NeJ/7F8R6vqNkTrtrp39j6akwyGWMHL/8AAzj8qw9N0+/fWvBd+LDXLn7DdKb17pMRxMylcIg7A9/SgD6Rr3f4W+Jdam+HM66bbR6je6fLsWGZ9u5CMgA+teEV7b8J7fWtI+H1/d6RYpeX93P+5SZ9qABcbj7Zq4fEgOZ1H9qbVtJvJbS98NLa3MZw8UjkMKqH9ri9/wCgFCP+2hrK8VfA34ieMtam1TUo7WS6lwCRKAAB0A+lZB/Zl8agZFvbn/tqK+7o4bKHBe0kubr7zM7s6O6/a01dv9TpFsn1Ymsq6/al8VzA+VFawf8AASayZf2cfG8fWwjf/dkFZd98EPGljnfo8pA7pzXVHA5PLZp/9vf8Er6x7NXt+Ba1D9oDxpfZH9qGFT2hUCua1Hx5r2rZ+16rdzA9mlOPypLzwHrun5NzplzFjqTGayZNPkiYrLujPoy4rujk+WS2pp/O/wColnDo7Tt8l/kNe7kY7ictTftT+uKcLbH8Vdd4Ig8HyXAi8SC8jDH/AF0DDaPqKuWW5fh486oJ/K7K/wBYKs/d9u/yOOaV26tTCzeufxr648L/AAL+HOsWaXVhu1CJuc+fn8xXX2Pwb8HafgRaHbsR3kG4148s3y+g7Ro6+iRr9YrVFd1G/mz4ZSGWZhsRnPsCa1LLwlrepMBbaXeTE9NsJr7ws/B+hWAH2fSrOIj0hFacUSQjEcaoP9kAVhPiZLSnS/Ew5e58VaL8APGus4I0lrRD/FcsE/Su60f9kvU5GU6pqsFuvdYRuNfT+aSvMq8Q4yfw2j8irI8h0H9mXwppuGuhPqDjr5jYX8hXo+h+D9F8ORKmnabb2uB95Yxu/OtgUu4V4tbG4nEfxZtlKwN82KTj1ooriAMigmkopiCilwaMGkAlFLtNG00AJRS7TSUAFFFFABRRRQAZCqWJwoGSa+Mvjx8SZvG3iua2glb+ybFjFCg6Mw4ZzX0p8aPF48GfD3UrpW23U6/Z7fnne3GfwGT+FfG3hHQZ/Fniaw0yPJe6mCluuBnLH8s19pw/hY+/i6u0dv1Pns0rS0oQ6npvwT+BreOIV1fVi8Ok7tscY4abHX8K+mNF8A+H/D0CRWWl2sQUY3GMFj9Sa0tF0uDQ9KtLC1QR29vGI0VewAq3zXiY/Mq2MqN81o9EehhcHTowWl2Mjt4oc+XGkY/2VAqT9aSivHu+p6FkO5pOaTNGaLsegUUUUtRWQUu6koo1CyFooyaTNMLIX/PSj86TNGaLhZC+lcZb/CHwxa+Jm12OyYXpnN0EaZjCsx6yBM4De9dlRVKTWzDlQUUUVAwooooAKKKKACiiigAooooAKKKKACiiigAooooAKKKKACiiigAooooAKKKKACiiigAooooAKKKKACiiigAooooAKKKKACiiigAooooAXcfWjcfWkooAKKKKACnelJRQMKOaKPfpQSynrGqQ6LpdzfXDbYoULnP8q+R/FniK48S6zc387EtKx2qT9xewFeo/HPx2l4w0Kxk3pG264dTwT2WvF5M+YBXdSj1Z+UcT5l7ap9Vpv3Y7+ov8NfRvwL8OW1j4Ti1Exg3V2zMZCOQoJAAr5xb7uK+q/hKoHw90f/rkf/QjV1naJxcK041Me3JX5Yto7CkYZXB5FFFefc/ZLHiHxL+DNw97NqehoJEkO+S1HUHuRXk82ganayFJbC4Rh28s19kA4pjRRv8AeRT9QK6I1nFWZ8PjuFaGKqurSlyX3XQ+N/7Iv/8Anzn/AO/ZpP7Hv+1nP/37NfY/2eL/AJ5J/wB8il+zRf8APJP++RV/WPI87/U3/p9+B8cf2PfdfsU//fs0n9j33T7HP/37NfZH2eL/AJ5J/wB8ilW1hxzEn/fIo+seQv8AU3/p9+B8bf2Pf/8APnP/AN+zR/Y9/wD8+c//AH7NfY/2eL/nkn/fIo+zxf8APJP++RS9v5B/qb/0+/A+StH8D63rkyx22ny8nlnUqo/OvoT4a/DuDwRYs8hE2oTY8yT0H90V2iKsf3VAHsKUnNZzquSse9lnDtDL5+2k+aX5C5z2ob2pKKwPrdEOHSk496SloGGTRk+lJS/jQMN1HFH40c0C1DNGaOaOaYahkUcH60Vi+MvECeF/Dd9qLH5o0wgPdjwBVRi5yUY7sqEXOSiup5X8bviE0kx0DT5Ssac3Uinqf7n+NebeFPCd74v1JLOzTv8AvJT91F9TWVNLNf3TyPuknmfJ7lmJr6d+GvgxPCPh2FGX/TJwJZ2/2vT8K+xqShleGUY/E/zPs6so5XhVGK95kvg/4b6V4RtVEUK3F11e4kGWJ9vQV1QUY44pKK+QqVJ1Zc03dnx1SrOrLmm7sMVT1jSbfXNNuLC6TfbzIVZf61corIyPlvxr8MtV8I3bkQPc2JOUnjGePf0rjipDYIIP0r7UZFkUqwDKeoYZFZknhfSJWLPplqWPU+UKAPj6k9q+wP8AhEtF/wCgXa/9+hR/wiWi/wDQLtP+/QoA+QM0V9f/APCJaL/0C7T/AL9Cj/hEtF/6Bdp/36FAHyBSd+tfYH/CJaL/ANAu0/79Cj/hEtF/6Bdp/wB+hQB8gZIBApQO9fX3/CJaL/0C7T/v0Kp614d0ix0e9uU0u03wwtIuYhjIBNKT5U2xxTk0kfJtFfQMvirwuvgUa1Hp1kbll8sW5jXcJfTHp3rtdN8NaRc6dazPploXkiR2xEOpUE1hTxFOs7Qd9LnRUw9WiuaatrY+Scd+9JX2B/wiejf9Au1/79Ck/wCET0X/AKBdr/36FdBzHyAeaAePevr/AP4RPRf+gXa/9+hR/wAInov/AEC7X/v0KAPkCj3r6/8A+ET0X/oF2v8A36FH/CJ6L/0C7X/v0KAPkDr70qoWwqjJ9hX19/wiei/9Au1/79Cnx+GdJhcOmm2qsOhEQoA+cvA/wt1TxZdRtJE9pYA/PNIuCR7CvpfS9Ot9H06CytowkEKhFH0qwqhRgKAPQUtAC80ZpKKEAv6Un60UUAMkhjkGHjVh6MM1i6p4F0DWlIvNJtZs9zGAfzFbtFaRqThrF2IlCMt0eL+Kv2Y9D1JZJNJmk06Y8hCdyfT2rw7xp8IfEXgks9zam4tAf+PiEblx7+lfbNMlhjnjaORFkRhgqwyDXvYXPMTh9JvmXn/mebWy6jU1joz4O8NeMNX8H3yXOl3kluynJTOVb2Ir6V+HP7Q2leJhFaawV03UCMbif3bn2PaqfxH/AGcbDXGlvdAZbC8OWMB/1bn29K+cvEXhXVPCmoPaanZyWsqn7zL8p9wa+lccDnULx0n+P/BPJviMBLXWP4H3tHLHNGskbrIjDIZTkU76dK+JfCHxc8SeDNsdnfNNaj/l3nO5fw9K9b0H9qq1ZVTVdKkjf+J4DkflXzeJyLFUX7i5l5Hq0syoz+LRnv8ARXm+m/tB+DNQVd1+1qx/hmQjFbtt8VPCV4AYtetP+BPivHlhMRT+KDXyO+OIpS2kjq6Kwk8deHZPu6zZn/tsK17K+ttRhE1rPHcRHo8bBhWDpzjurGinGWzJqxPFXjTR/Btn9o1W8S3U/dTOWb6CrXiTXIPDOg32qT/6q1iMhHrjoPzr4e8YeLtQ8a63cajfys7O3yR5+VF7KBXs5XlssfNtu0VucGMxiwsVbVs+ibr9qTw9DMVis7qZOzYAzUQ/aq0P/oG3X6V8o61q8ehadJdyxSzRoQCkCF25OOAK5fSfizpWtah9jtra/aVZRDJm2IEbnsx7V9b/AGHgIWUm7+p4X9o4mWsT7W/4aq0P/oHXX6Uf8NVaH/0Drr9K+XhIGBKkH1xVa81K20+znuriZY7eBS8kh6KBWn9g4Ls/vE8zxJ9Vf8NVaH/0Drr9KP8AhqnQ/wDoG3X6V8nWmvW15fG1hLMfIW4Em35CrHjB9a0BIDwCD60lkWBfR/eL+0sR1PqH/hqrQ/8AoG3X6Vv+Gf2h/C/iC4S3lkfT5mOB9oGFP418feYrHgg0tTPh/ByVo3THHNK8XqfodHIk0ayRsHRhkMDkH3pa+d/2a/iRcXFw3hm/nMoCF7RpDkjHVPyr3qTX9MjYq+oWysOCGlXI/WvhcZgqmErOk9f8j6WhiI14KaL1Fc9qnxD8N6PGz3etWcSqM/60E/kK8b+I/wC05aizmsfDCtJO+V+2uMBfdR3NLD4HEYmSjTix1MTSpK8mcn+0346XxD4kh0a2l32um5Em08GU9fyHFan7Kvg43mrX3iGeP9zbL9ngZh1c8sR9Bj868T0rT7rxRrkNqr77m6k+aSRsDJPLEmvtrwLZ6H4J8M2Wk21/ahYUy7CVfmc/eJ59a+zzC2XYBYOl8Uv6Z89hr4rE+2nsjsMUdKof8JBpeP8AkJWv/f5f8aP7f0z/AKCNr/3+X/GvgPZy7H1CnG25eoqj/b+l/wDQQtf+/wAv+NH9v6X/ANBC1/7/AC/40vZz7MOePcvUVS/t7Sv+gja/9/V/xo/t7Sv+gja/9/V/xp+zn2Dnj3LtFUv7e0r/AKCNr/39X/Gk/t7Sv+gjbf8Af1f8aPZz7Bzx7l6iqP8Ab2l/9BG1/wC/q/41Ztry3vI99vPHOvTdGwYVLjJboaknsyWiisDw3440nxRpst9aXAS3juJrZjMQnzxttfr2zSs2O6N+islvFekjxFBof22L+05rY3kcG4ZaINtLfma0Ib22nV2jnjkRPvMrggfX0osx6E1FQLqNo8ZkW5hKLwWEgxz0oGoWhdE+1Q73GUXzBlh6jmmk2BPRXM2vxE0bUNTWxspmvJvt0mnyGEblhmRdzBz2GO9dBHf2szSCO5icx/fCuDt+vpSs+waE1FQwXlvdM4hnjlK/eEbAkfXFea+IP2gNI8N+JxoVxo2tvfPJLHCsVkzLP5f3mQ9xjnNUouWiQnJI9Qoqjpes22q2sMsbeXJJGJDBIQJEBGcMvUGqut+MNG8PaTc6lfajBFZ25USybwdhJwM49zU2YzYorJsfE9jfXN/CGMP2OURO82FVyVDZU9xg1fa+tVhSZriIROcLJvG0/Q0WYronopqSLKodGDoejKcinUhhRRRQAUUUUAFFFFABRRRQAUUUUAFFFFABRRRQAUUUUAFFFFABRRRQAUUUUAFFFFABRRRQAUUUUAc38QvG0PgHwzLqklu95KZEt7e2j+9NM7bUQfUmuNvPid4t8L2moz+I/DEUMUenTX8M1lN5kYMa7jFIexI710nxY8H3fjPwqlvpzomp2d3Df2vm/caSJtwU+x5H41x/iTTfiB8RNM1SyuLCHQbFtLubY2vnCQ3c8ibV5/hUHmmc03Lmsjrofi14chTTYr/UYrO9u4IJTC2cIZVBVSegyTV2P4leG5tck0iPU4mvo3aNk5xvUZZc9Mgdq8I8YfBnxnrUF3Z/ZBcYSxNtItwI4lEKx7lZcZZsqcHpzWxF8MfFC+NheWOlppiSX0l1dlpxJaTxshGdhGVkOQCR707GPtqnY9b0z4qeFtXW7a21eFktYzNK7ZVRGDgsCeozxxTIfiz4Um0u61EavCLW1ZElZsgqWOFGDzyeleFzfAnxZqmi6jpNnAdEsnsfKNtLcCWMyiRXCwnGVQ7TkH1rSf4N6xf2Gr3U/h9pXnNon2W7v8zOsT7iyMBhWU/d+lFh+2qdj33w/wCJNO8U6eL3TLkXNvuKFgCMMOoIPQ0a/wCJNP8ADVm1zf3CwqBkL/E3sBXI/Bfw5rXhrw/fxa0WBlvXmto5WDSpCQAA7DhmyDzV74hfDa28cW4kErW97GMRvn5T7EUK19RVqldUHOjG8+iOWvP2iLCNmFvps0mOAzsADXG+JPjhrWtQvDbKlhEwwfLOWx9auL8ANbeQ5uLdFz3Nb+j/ALPUEUgbUb9pVHWOIYz+NdP7uJ8FOWf4z3LOK+48j0LQdR8WaolvaxvNNI3zSHoOeSTVbxLp8ekeIr2wjYyLbP5W71I4J/PNfWOkeH9N8J6e6WVukEcaFi2OTgZyTXyJql4dQ1i+umOTNM7/AJsTWtOXM9Dwc2yv+zaFP2kr1JP8CCvqX4NzfaPh3ph/uhl/JjXy1619J/AO4M3gVUP/ACzuJF/XNFb4TfhOSjj2u8WejUUppK88/YwooooAKKKKAFo6UlFAC0lFFABRRRQAvtSUUUALSUUUAL+NJRRQAUu6kooAXdRupKKAF6/WvGP2htcYf2bo6HCtm4l98cKP517Nj5etfMvxi1M6j4+vxuytvthX8Bz+texlVJVMSm+mp7OVUvaYlN7LUd8IfD417xnbF13QWo89/TI6D86+ma8h/Z60vy9M1TUGHMkohU+yjJ/U/pXr1VmtX2mIcf5dB5tWdTEOP8olFFFeKeKFFFFABRRRQAUUUUAFFFFABRRRQAVmeKP+Rb1T/r2k/wDQTWnWX4o/5FvU/wDr2k/9BNZ1P4cvRmtL+JH1X5nyKWJXBJx6Z4r7B0TjRbAf9ME/9BFfHh6V9h6J/wAgWwP/AEwT/wBBFfF8Pv8Ae1PRH2/En8Ol8y7RRRX3B8GFFFFABRRRQAUUUUAFFFFABRRRQAUUUUAFFFFABRRRQAv4Vm654c0zxJZtb6jaR3UZGP3i5I+hrRoqoylB80XZilFSVmjwvxZ+y3p94Hl0O+aykPIhm+ZPzryvW/gB4w0djtsRfRj+O3YHP4V9kUV7+HzzF0dG+ZeZ5lTLaFTVaHwbeeB9e09m+0aTdR7ev7smsxtIu4yS1pOv+9Ga/QRo1k+8qt9RmoG0uyk5e0hY+8Yr1o8Su3v0vxOB5Qr6TPz+NrOv/LGQD/dNeqfA3/hNBrKLoe8afu/f/ac+Tjv+P0r6mbw/pj/e062P/bIVatLK3sIvKt4Y4I+u2NcD9KwxGfRxFJ0/Zb9zWjljpzUuc8++Pnnn4VapsHzDy9+3pjcM/hXxv2r7/wBf0WDxFot7ptzzBdRNE3tkda+HvG3gnUfAutTaffxkAMfLmx8si9iDXbw7XgoTot+9e5zZtTlzRmtjAHLV4fdaheaXo/xPnsGZLj+21TevBVSiBjntx3r3BfWqq6TZqt0otogt026cbR+8JGMn14r6yrSdRKx4kJcu54zpkl9p9xq8UOoRWFq+kyM7R3RuPLfosvt1rLVguka1pF0srTyaM9xvtroywS7CPnPdW56V7lY+GdL0yOaO1sIYUlG2QKn3h6Gks/C+k6aswttPgh85dkm1PvD0PtXL9Wnbc2VaPVHi+tXUtjpuowafdypAnh+0aJkkJ2s0uCQfWtTxVDd+CL2/TSLm5eSbQ5JmEjlz5iso3j3wTXq8fh/TI4TGthAI9gj27B90HIX6ZpdX0ePUrW4SMrb3MkDQJcqoLID6Z7e1H1eVtxqtG+x5bon2LT/iJ4Rt9L1Wa8S4s55LqMzF1Zggwx985r2HsK4Pwv8ADibSvEFtqt9cW801rC8MKWsIjHzYy7epwK7vBzjqa6KEZRi+YxqyUmrHefA8SH4p6AYs581t3+7tOa7D9oz/AIRaS72aRFK2vb/3z2wPlAd93v8ASui/Zt+Glzp8z+JdRhaFmjMdrG4wcHq1e6toenSOWaxt2J5JMS8/pXx2YZhSp49VI68qtoz3sLhZzwzi9Ln54yRypjzVcf74P9abxxX3/qngHw9rMJju9JtZVP8A0zAP6V4Z8T/2ZUt7ebUfC5Y7AWaxc5OP9k/0r1cLn2HrSUJrkv8AccdbLatOPMnc+dkkKHKsVPqOKf8AaJT/AMtX/wC+jT7WQ6XqUbTwCRoJAXglHBweVNfVPhf4TeAfiV4YtdWs7BrUzLhxBIQUcdVr1cbjqeEUZ1Y3T6o48Ph5124wep8qrdSr/wAtX/76NSLeSd5H/wC+jX0hrf7JdiysdM1eaJ+yTqCPzrzTxN+z34s8PK0kdsuowj+K3OT+VYUczwNfSMkn56GlTB4in8UTz6OSaZgqNI5PZSTU/wBjv/8Anlcfk1V1+3aFfglZbS6hOQGXBB+hr2j4b/tBQ28kVl4nsLeeH7ovEiAYf7w7104mc6UOelTUzGlGM3yzlY8f+yX3/PK4/JqPst9/zyuPyavu/SBoeuWMd3YxWl1byDKvGikVc/sfT/8Anxt/+/Yr5Z8QRi7Oj/X3HsRytyV1UPgT7Nff88rj8mo+zX3/ADyuPyavvz+x9P8A+fK3/wC/YpP7H0//AJ8bf/v2KP8AWKH/AD6/H/gD/smX858CG1vv+eVx+TV6T8E18bR64i6GJFttw8/7Tnycd857/SvrL+x9P/58oP8Av2P8KngtYLVSsMKRLnOEUCuTEZ9CtSdNUlr3NaeWSpzUuccm/wAoeZjfjnHTNfLXhP4cXWveKvDNprOnXf8AZMdx4hnmjyyIWaaPyi2PUZI+lfVG6k4r5eFTlTt1PalG58ZT+CvENto2lXFjp98PEh8JajY2lyQxdZUum8tCex8rOM+1Rf2Drlv4X1+fR7i8XT/7Pskv4YYJLcOv2hDMoLnJl8veOOua+0uPSs/XvD9h4m0e60vUYFuLG5XbJFkjPOeo75rdYnyI9mfI0mj2PijXvGGmeGbTU4NEbUvD4a3JkVlj3yGVgCcqMdaX4nabqdt421sadpt3Ytpeo2EdksMUsskttH5e6RHztVMbgR1ODX1R4R8CaL4Ht7iLSbUxG4YPNJI5keQgYGWPJwOlb/lrnO0Z6ZxTeIs9BeyPk618J6pp3jTUI9A0+6s7yTxPqV0sgVgjRyWL+Q5PQjeR+NUbTQ7y4s9LTw1p2q2l/D4b1CPxE8wcGW4aICNefvP5m4gjtX1/tHXHNAVVyQoBPWp+seQ/ZHiHw28Ct4L+JXh82NtdQWVz4WH25ndmV7lZFwWyfv4LV0fjrS726+M/w7u4IJHtreHUBLMBlYy0IC5PbJr038KPwrL2r5rl+z0sfGfgnwz4oOvaa97LqA8QQz3zaottbuJHjKyDDSMdpByu3HfFZcfhK9vPCviPSYtMudYsv7Kine6aGWKZJEuFPlyKTh5NpY5X0r7fCqGJAAJ6nFII1XOFAz1wOtbfWfIz9k+58wxeC7jxP8TIIJ7K+bw1L4gEyoS6IbcacoQHn7u4Yx61i2+jDw74igs/FNnqM3hG1l1dLG0jZ22y+chiJAOSuwsFPQZr652j0rm/GHw60Px01q2rWzyyWu7ypIpWjYBuGGQeQaX1juh+zOY/Zqlef4I+GJH83LRSEeexZwvmvgEnvjFemVU0nSLPQdMttP0+Bbazt0EcUSdFUdqt1yyfM7o3SsgoooqRhRRRQAUUUUAFFFFABRRRQAUUUUAFFFFABRRRQAUUUUAFFFFABRRRQAUUUUAFFFFABRRRQAoozSUUABooooAcMfSkPXrxSUUADUtJRQAtFJQx2gk9KA9TmviPrC6H4L1W5LbWMRjT6txXyNEe/evXfj14/j1S4j0OxkEkEB3zyKcgv/d/CvJYYXEIlKnyy20NjjPpXfRjyxPxribGxxWMVKm7qC/HqPr6D/Z1m3+Fb6M/wXR/VRXz5Xun7N9wG07WYc/dmRvzB/wqq3wmHDUrZnD0f5HslFL3pPSvOP2wKKKKACiiigAooooAKKKKACiiigAooooAKKKKACiiigAooooAKKKKADOAT6c18g+JLo3/AIg1K4JyZLiRs/jxX1tqU5tdMu5h/wAs4Xf8lJr44ZjIWY9WJJr6fJI6zkfUZHH3py9D6b+D1iLHwBp3GGl3TH8WP9MV2tY/g+3Fn4X0iEdFtkH6Vr14GInz1pvzZ4OJlz1pyfdhRRRXOcoUUUUAFFFFABRRRQAUUUUAFFFFABWX4o/5FvVP+vaT/wBBNalZnij/AJFrVf8Ar2k/9BNZ1P4cvRmtL+JH1X5nyF/Ca+w9C/5Aenf9e8f/AKCK+Oz90/SvsPQf+QHp3/XvH/6CK+K4d/iVPRH3HEv8Ol6svUUUV9yfBBRRRQAUUUUAFFFFABRRRQAUUUUAFFFFABRRRQAUUUUAFFFFABRRRQAUUUUALSUUUALWP4k8J6V4usza6rZx3cfYsPmX6GteirjOUGpRdmRKMZK0kePXX7MPheaQtFLdQqeih84qP/hlzw5jm7u/++hXstFel/amNtb2jOT6lh/5Txn/AIZd8N5/4+7z/vqlb9l3w3/z+Xf/AH0K9mFKcbaf9q43/n4w+o4f+Q8YH7L3hr/n8u/++hSf8Mu+G/8An7uv++hXs9JS/tbG/wDPxj+o4f8AkPGh+y74b/5/Lr/voVveGfgH4U8N3C3ItTfTqchrg7gD9K9HxRUzzPGVFyyqOw1g6EXdREVVRQqgKo4AA4FLRRXmHXYKKKKYz5T/AGoPh/HoGu22vWcWy21AlZgo4WUf4j+VTfsp+LnsfEF9oEr5gvE86JSeBIvXH1H8q9q+OXhxPEvwz1iIrult4/tMXqGTn+Wa+QvhrrTeH/Hmi3qtsVLlFY/7JOD/ADr9AwMv7RyydGerj/w6Pl8TH6ri4zjsz76PXmjaPWmqwZQR0Ipa/Pz6eyOV8afDPQPG9uU1GxTzsfLcRja4/Gvl/wCJ/wACdX8BmS8tQdQ0kc+cg+aP/eH9a+yqZPBHdQvFKiyRuMMrDII9K9nA5pXwbSTvHszz8RgqdddmfDfw3+KWrfDvU1e2kaWxdv31qx+Vh6j0NfZfg3xnp3jjRYdS06UPGww6Z+ZG7g18+fG74Cvo/na74ehL2ed09qgyY/8AaX29q8x+HfxE1P4c60t1aOWgY4ntmPyyD/GvqMVhaGcUfrGG0mv6szx6Vapgans6vwn3f6Um6uf8E+NtN8daLDqGmzB1YfPGT80bdwRW/XwU4SpycZqzR9PCSnG6FyaM0lFZDFo+pozRn2oGFHXrRn2oz7UAJRRRTAKKKKQBRRRQAUUUUAFFFFABRRRQAUUUUAFFFFABRRRQAUUUUAFFFFABRRRQAUUUUAFFFFABS4rM8QeIrPwvp63t+7R2xljh3KucM7BVz7ZIqpF430ibxhdeGFuP+Jva2q3ssWOBGxwDn19qBcyW5u0VneHvEFl4n0az1Oxk32t2nmQlhtLLnrik1rxFZaBHbPdy7RcXEdqm3k+Y5wo/OgLq1zSoqnLqkMOowWZDGSVHcOoyihcZBPY81bDq2cMDjrg0BdC4oojkR87WDfQ0eYpwQwOenNBWgYoxWPfeL9M0qaSO8mNuFmgtxI4wjySnaiqe5J4qfQ/EVl4jtHubKTfEk0kBzwd0bFG4+oNBPNE0aKKKBhSqMkfWkpythhnpQByfw78cL468O3OqNbizWC9ubQqWyMQyMm7PvtzUWk/Fnwrrl3PbWurRGWGN5jvyoZE+8yk8MB3xXnvg7w3468N6Dq3heTQ7ZtPv76+cait0A0cc8jkNt9QG6Vh3Hwb8VeLNL0HR76ytNFh0DS7qzju4ZATdySRiNTgdFwMnPrTOP2sraI9Xt/jR4PuLK+u/7Xjjgs4xNK0qlP3ZOA4z1XPcVJB8YPCVxpt7fLq0awWbIsodSrAucJhTydx6eteF/FvwX4m1Twdc6rqWj2ulDSdIXTYreFw/2p2miyTgfcGz9TXQeKfhb4l8bXGq6xfaDZ27PBZ2semxT7S4il3mRXH3WBPy/SgXtqnY9y8N+JtO8Wab9u0yf7Rb7zGTggqw6gg9DUmueILDw5ZtdX9wsEQGeTyfYCuO+C3hvXfDPh29t9dZjJNeSTQJIweRIiFADsPvNnPNWPiV8Mo/HUKzR3DwXka4TJOw/UU1a+pOIq144eU6EOafY5u9/aM0mEuLexnlIOASQAa4Xxd8dNY8RQvbWarp1sww3lnLsPr2qWL9n3xBLIfNkt4l/wB7NdPof7OUUUivqd+0q944Rj9a6l7KOp+dzqcQ469NxcU/keQ+GfDGo+MNUS2tI2kZm+eUjIX1JNeg/F3wxa+D9D8PaZbDJQO7v3djjJr3XQfDOm+GbNbbT7ZIEHUgcsfUmvGv2i7hW1TSYQfmWFifxNVGfNJJbDxGSxyvLatWq+apK3y1PHmr2j9m2T99rSdyI2/nXjJQ7A3Y8V69+zixGtauvYwof1NaVfgPneH3bM6Xm/0Pej96koorzT90CiiigAooooAKKKKACiiigAooooAKKKKACiiigAooooAKKKKACiiigDH8ZTfZvCWsy/3bSQ/+O18kwruaNfoK+qviVIY/AOusP+fVh+dfLNku66tx6uo/UV9bkq/d1GfXZKv3c35n2BpUfk6XZp/diUfpVvNQ2o220Q/2B/Kpa+UnrJs+Um/fbCiiipICiiigAooooAKKKKACiiigAooooAKzfE3/ACLWq/8AXtJ/6Ca0qzPE/wDyLeq/9e0n/oJrOp/Dl6M1pfxI+q/M+Qf4T9K+w/D/APyAdN/69o//AEEV8eN90/SvsLw+f+JDpv8A17R/+giviuHf4lT0R9xxL/Dper/Q0O2aSiivuj4IKKKKQBRRRQAUUUUAFFFFABRRRQAUUUUAFFFFABRRRQAUUUUAFFFFABS0lLQAYpKWkoAKKKKACiiigApaSigAooooAKKKKACiiigAooooAralarfabd27DKyxMhH1Br89L6FtO1W4jHyvBMwHsVY/4V+in8u9fAnxIsv7O8ea9b4xtvJOPqxr7Thmfv1KfdI+fzePuwn2PufwrqA1bwzpN4Dnz7WKTP1UGtSuD+Bd8dS+FPh6QncUg8on/dYj+ld5XymJh7OtOHZs9qjLmpxl3QUUUVzGwMiyIyuoZGGCp6Gvmf44fAV7OWfXvDsRa3bL3Fmo5Q92X29q+mKRlDKQRkHqDXoYLG1cDU9pTfqu5y18PDER5ZHwN4N8c6t4D1QXemTtEwP7yFvuv7EV9VfDv49aH4zjigupF03UiMGKQ4Vj7Gsv4ofs76b4saW/0bZpupN8zIBiOQ/Tsa+avFXgPXfBN8YdRspYCD8syglD7givs3HA53G6fLU/H/gnz6licA7bxPvhXWRQyMHU9GU5FOr4V8L/ABa8U+E8LZ6pK0A/5YzHev616Xov7WGpQqq6npcVx6vC20/lXh1uH8VTfuWkj0qeZ0ZL3tD6f7UleIWH7VXh+ZR9psbmA98YatqD9pbwXKoLXE8R/wBqI15c8txdPemztji6EvtI9WxRtrzez/aD8E3txHCmqFGkbaC6EDPua2fEHxX8NeGZkj1C/wDK8xQ6OFLI4Pow4NczwtdOzg7+hoq9J6qR19JXnyfHzwQ3/MZjH1U0/wD4Xx4I/wCg5D+RqvqmI/59v7hfWKX8yO+orgf+F7+CP+g5F+Rpf+F6eCP+g3F+RpfVMR/I/uD6xR/mX3ne0Vwf/C8vBP8A0HIv++TR/wALy8E/9ByL/vk0vqmI/wCfb+4f1il/MvvO8org/wDheXgn/oORf98mj/heXgn/AKDkX/fJo+qYj/n2/uD6xS/mX3neUVwf/C8vBP8A0HIv++TR/wALy8E/9ByL/vk0fVMR/wA+39wfWKX8y+87yiuD/wCF5eCf+g5F/wB8mj/heXgn/oORf98mj6piP+fb+4PrFL+Zfed5RXHaZ8X/AAjq99FaW2tQvPKdqK3GT9TXYghgCDkVlOlOm7Ti16lxqRn8LCiuN+LHxQsfhL4VbW762mvR5qxR21sMySE8nA9lBJ9hWjN8QfD1rZ6ZdXGr2ttFqUSzWplkA8xGAII9uRzUcsrXsXzK9joaKxl8aaE+tHSF1a1bUwMm2Eo39M/y5qGH4g+GrhLx49csXSz5uGE4xGM4yfbPGaOV9hcyOgx70ba4BfjZ4cvtWvNN0y7j1C6tWthJ5cgCFZn2Ahj1wR0roI/Hvh2bULuxTWrNru1Vnmi80ZQL94n6d/SnySXQrmib1FZGh+L9F8TSTppWqWuoPBjzFt5AxXPQn296reHPGVv4kuvEEMMLxto969lLu6MyqGyPbmlysV0dBS496890P42+HtR1q70y+uodKuYY7d0E8y4l83dgKe+Nv6iukuPHXh61mu4pdZs45LT/AI+EaUZi6fe9Oo/Om4yXQLo3qSudk+InhiGwgvX12xW1nLLFIZhhyOoHuM9K0rbxFpl5JZJBf28r3sbS2wRwTMi43MvqBkfnU2aC6NCiiikM574iaCfFHgfW9MT/AF09q/kn0kUbkP8A30BXgupWviK88IR+PLbTLmLxDrl3cWbW2w+ZDBPF9nhLDsEZEf8AE19N0EDOMDFMxqU1Udz5k1zw/NoN/qWkJaa0/iW3mtoPDs1rv+zrAqxqDkfKACH3Z9atav4E1m+8P6pf2sl1B4juPFpjhup9zpBCJ8qyp02jrmvpHuDXOePPGMXgXQP7Tls5r7dPFbpbwY3u8jBVAz7mi5jKgktWeFalDrUngua0gtNRtdVtPD2t216NzsXvgi4kVu+8/MpHrVjxD4X1Hwbp+uw6S+pLZ3Gg2FxdM07MzOLkC42EniQxbuB7V69o3jy71CSJb7w3eaP51ylshunT5iwPIx6Y6e9Ivizwz408F20+rS29rpurBo1t72UIz7XK46+q549qYvZqXU4L9n+80268d+PE0P8AtBdEii04QRagWyrFZi+0McgHiuQ1xfGXhLV76Sxt7+8i8LXc8Foo3MLuO9Z2iP8AtCLegPptNe6+H9N8KeAG/szT5bWwnvGEhjeYGWY4wpJJyeOBXU4HpSK9nzRs2fNPjLwFPZ6fdWV/DfalZaRe6BIXQuxZU4uJFweepJrT8LeCZdH/AOEe121S/i1GbxVcJKC77fsjyTcFOm3G0596+hNo9OtGBgcUXGqCTvcOc0UtJSOoKKKKACiiigBk0MdxGY5UWSM9VcZB/Cn5NFFABRRRQAUZoooAK+a/jvfC78dNEDkW8Kp+OM/1r6QuLhLS3knlYJHGpdmPTA618f8AinWG8QeItQvz/wAt5mZf93PA/Kuijvc+G4srqGFjR6yf5DbqzMOgWM5GDNNJj6AAV6X+zj82t6sf+mC/zNcv4+0s6N4f8KWrDEhtXmce7MDXW/s3xf8AEw1iTHHloP1NdE3eDZ8hldF0c3oQ9Pyue7UUUV55+0BRRRQAUUUUAFFFFABRRRQAUUUUAFFFFABRRRQAUUUUAFFFFABRRRQByvxSbb8Ptb/64EfmQK+Y9NXdqNmv/TVP5ivpn4sNt+HetH/pkv8A6GtfNGj/ADavZD/pun/oQr67J/4E/X9D7DJv4E/X9D7BhG2FB/sj+VPpF4VR7Clr5J7nyEt2FFFFIQUUUUAFFFFABRRRQAUUUUAFFFFABWZ4n58N6oP+naT/ANBNadZviX/kXNU/69pP/QTWdT+HL0ZrS/iR9UfIDf6s/SvsHw7/AMi/pn/XtH/6CK+Pm/1Z+hr7A8Of8i9pf/XrH/6CK+J4d/i1PRH3PEv8Kl6v9DRopaSvuj4EKKKKACiiigAooooAKKKKACiiigAooooAKKKKACiiigAooooAKKKWgYc0VjeJPFum+FbQzX84jJHyRjlm+gryXXvjzf3EhTS7VLaPs8nzMfwrgxGOoYX+JLXselhcuxGM1pR07nuf4UV8wT/FPxNcSMTqjpnsoAAr1L4T+PNX8QhrW/tXnjjHF8BgfQ+tcdDNqGIqKnG9ztxOS4nC03Vk1ZHpckiorOxCqoySTgAVU0/WbDVWcWV5BdlPveTIGx9cVznxeWGX4YeJI7i8m06GSzdGu4ELPEDxuAHp/KvnS78VXfw7sdWlsF0qLWYdCaS31jRJC9vsWSMZmjPRvmyPxr051eRnk06PtE3c+u/ao4riK43+XIsmxijbTnaw6g+9fONz458WLd3eh6Z4pGpI+p6ZBHrKwqSn2gSebHgcHG0Eemaj0TWvFWpeJ7zw/Y66+mJ/aurie6jgUyS+QkOw88ZJY5qViF2K+rStds+lqr32oWumxCS7uIraMnaGlcKM+nNfKt18a/FeoeArvXJfEceh32n6Ja3UFr5KkX8zg7257ZGMDpXp3xya1urD4bnVnjFjNr1sbrzjiMqYJCd3tmmqyknZClQcGrnrtrfW99GJbaaO4i6b42DD8xUpYAgEgE9B618wan4qt/BvirxcfB19JbeH5hp9sJLYb4VvHd94jLcAlAuT0BqDQPH+s+INb8MXup69NDHpetajavjafOjjt96K+OGJ5HHXtU/WEt0V9Vk9U9D6npk08UBQSSKhc7VDHG4+gr5++CXxY1rxN8RotKv9Re9sL7R21CMzqgIkEgGFC9BtPQ88Vt+PvHGm+KPEvhCx0y6L3dl4glgurfkSL5cL7iR/d5HPStFWi1dEOhJT5Wet2uu6bfTeTb6hazzdo45lZvyBqzBdQ3LSrFLHI0TbXCMCVPofQ18n/DfwvqVh8PfCXjO6tNP0nTNDibVZ9Qhkc3d2iB/3bDp8xxmt74C6lrXhf4hLD4gsLywHjK1a+DXTZVr1WLsq+gMTDj/ZqI1m2k1uW8OkpPm2Ppel9KMYpK6jiA9a+Ivj9Y/Yfixri4x5jrKP+BKDX291xzXyH+1Rp/2X4lR3GMC6so2z7qWBr6jh2fLjOXumePmsb0L9mexfsu3n2j4WwxZz5N1Mn5tn+tes14J+yRqHmeGdZsyeYboSY9mX/wCtXvdebmsPZ42ovP8AM6sFLmw8GFFFFeSdwUVlN4m09fE6eHzP/wATR7Vr0Q4/5ZBwhb82FJo3irTdeudUgs7hZJNNuTZ3I6bJQoYj8iKdmI1qg1DTbXU4Whu7eO4ibgrIoIrO1rxZpnh9x9vuBbx/Z5LppmHyLGgG4lu3Wo/EHjTTfDuhxaxcNLNZSldjW0ZkLBhkEAdsVUeZaoTs9zifEP7OfhPWneWKB7CVv+eDYH5V57q37Jc6l203WlYfwpOmP1Feu+CPjJ4b+INw0Wjy3EiqrMZpYGSP5TgjceM5rtGmSMAs6qG4BJxmvZpZpjaGin95wTweHqa2Pj++/Zn8Z2bkRQW90o/ijlxn86xp/gT42gYg6JI3ujAivr/UvG+kaTPeW81zuubTyvPgjG50ErbUJA7E1t+Ym4LvXce2RmvQjxDi4/FFM5HldB9WfDqfBfxm0yoNDnDMdoJxgfU16Xe/DHxVongmXQRpsmvT3CAiSQgx2h9Iyec/pX0uJF3FRIpPpnmnfjWdXPq9XlvBaO5UMspxvZvU+G5Pgj42Trocx+mKo3Hwl8X23+s0C6x7JmvvP8aT9a6lxNiOsF+JzvJ6b+0z8+LvwhrdjkT6VdR49YjWZNHLbNiWJoz6MpFfotJbxSjDxo3+8oNY+reB9B1pSt5pVrNnuYxmuynxQv8Al5T+5mMsmdvdmfn+slXtLsJdWuo7WAKZ5DhQzBQT6ZNfU3iz9l/w/q0ckmkySaZc4yqg7o8+4r5+8dfCXxD8Ppt17bmW1z8t1Byv/wBavfw2a4XG+7TlaXZnlVsDWw+sldF5fgf4zkUMujOynkEMKd/wovxr/wBAST/voVs/Cr4/al4PuIbHVna/0gnaS3MkQ9Qe49q+sdF1uy8RabDfWE6XFtKu5XQ5/A142OzLHYCVpwTXR6/5noYbB4bEr3ZO/Y+Nf+FF+Nf+gJJ/30KP+FF+Nf8AoCSf99CvtmivJ/1kxP8AIvxO7+x6X8zPib/hRfjX/oCSf99Cj/hRfjX/AKAkn/fQr7Zoo/1kxP8AIvxD+x6X8zPjDTfgL41ur6CNtMa1VnAMzOMJ719YeBvDt14X8O2+n3eoSajPGOZpOv0HtW/SivLx2aVselGokkux3YbAwwzbi9zy74kfDbUviL440cy3UlhoGmWsrh4SC8txJ8hG09ghbn/aryPUfgj4003SdP02HTV1ObTLefStPvhcLzb+bui85GHK7cZxz8tfVlHWvOjXlFWOx009T5lk+DfjCTxfMbWyisftUzS3OpCVWhIaDy9yKfmV88dccVh2X7O/ii+8MT6dc6Z5Fxb6Wum7pLlSt2fNRmIAH3cKT83PNfW1FX9Zl2J9ijwLxt8GdWvPF2qPoul2tvp11JpEsU0ZVPL+zXG6RduP7pz+Fc/cfBTxVqWl6fof9j2tmdJN/I2srMu/UPOR1RPXneCc/wB2vp7NJUfWJKweyR5j4L+Gs/hXxppl9b2dvZ6fF4ch06fyMDdOj55A68Z596ydHs/G3hPxZ4vgtvC8Wo6VrOrPdR3321UKRuiqSUPORgnFeyc0d81PtHe71LUFbQ+VbX4J+L9Ptda05vDdjf8A9saVZ2CahJOu6yeMybmwRnHzg8dxXRXfwb1/TfDPikWenW17quo+Io73eWXzZrREiHDHgNlGODX0RR796t15dhezR82/DX4Ja5Y+LtNu/EOkW/8AZ1nqGoXwWaVZcefGgTjGMgg5rX+APg+VPGniTVJJVudG0WSXSNBYZwIXk86UjPoSqZ9Fr3uore1hs4/LgiSFM52xqAM1MqzlfQFTSJaKKK5zQKKKKBhXCfGjwnP418IQaVDA86SajavMsblGESyguQe2BXd0vagmUeZNM8vvvhbB4dHhiHw/DcyQw69Be3fn3DSlI1jkBbLHpyOK8ru/hZ4qtLXSXm0iTUIm0p7D7OqRyG3kM8jE4bhdysp3DnivqOl+9xTuYOimfN2rfDrxTpfiTSZtM064u7n7LYwzz3TJNbyeUMHfn5kZRnlevFfR6/dHr3p3l47UlBdOmqd7BRRRSNgormNd8fWPh/xZY6LeDyluLKe9a6dgEjSIjdu/76qj4i+LXh/RvDGsazaX1vqq6YiyTw28oJAZgoJ9uaCOaKdrna0VhWHjrw/qWnXN7b6vaS21rj7RIso2xEjI3elNPj7w2umDUTrdkLFn8sTmUBSwGSv1x2oHzR7m/RXBw/GLRf8AhJLDRrmRYbnULqe3tWWQMriNc7j6Z7Ct+z8deHb+W5it9Zs5ZLZWeZVkGUVfvE+w9aBKcXszdorD0/x14e1X7SbPWbO4FqnmTFJRhF/vH296jt/iB4butNm1CLWrN7KFgkkwlG1WPQH3oHzLudBRVTS9Wstbs0u7C6iu7Z/uywtuU0mq6xZ6LZvc3s6W8KjJZjQEpRiuZvQuUteW3n7QWhwb1htbidlOM4AFcb4l+PmpalFJDpsC2KMMeZnL1qqcn0PAxGfYChFv2l32R1Xxs+IMNhp76HZSh7qcYnKH7i+n1NeTfDnwm/i7xRa2xU/Zo2Ek7Y4Cg5x+NZNjp2oeJtUEUCSXV3O/J5PXuTX018N/AsPgnR/KOJL2b5p5B3PoPYVvpTjofF0Y1uIseq1RWpx/Lt8zyX9oOVV8TWNvGMLDagADtkn/AAroP2b7c/ZNZnPQyRp+QJ/rXFfG28F54/uwDkRIsf5D/wCvXp37PdibfwbPORjz7lmHuAAKcv4RWDXteIpNbK/4Kx6h0pKdxTa4j9UCiiigQUUUUAFFFFABRRRQAUUUUAFFFFABRRRQAUUUUAFFFFABRRRQByHxb/5J1rX/AFzX/wBDWvmzRR/xOLH/AK7p/wChCvpP4uf8k51r/rmv/oa182aL/wAhew/67p/6EK+uyf8A3efr+h9hk/8Au8/X9D7CHQfSigdqK+Se58g9wooopCCiiigAooooAKKKKACiiigAopVXdQy7aAErN8Sf8i9qf/XtJ/6Ca0qzvEn/ACLup/8AXtJ/6CazqfBL0ZrS/iR9UfIDfdP0NfX/AIb/AORd0v8A69Y//QRXyA/Q/Svr/wANf8i7pf8A16x/+givieHf41T0PueJf4VL1ZpUlL2pK+6PgQooooAXFFJS0DCg0UdjmgQlFRXF3BarmaZIR6uwFVv7c03/AJ/7f/v4Knmit2WoSeqReoqj/b2m/wDP/b/9/BR/b2m/8/8Ab/8AfwVPtIfzIfs5/wArL1FUf7e03/n/ALf/AL+Ck/t7TR/y/wBv/wB/BR7WHcPZz/lZfoqh/wAJBpn/AD/2/wD38FKuvaazAC/tyf8AroKPaQ7h7OfZl6ikjkSVQyMrqe6nIpau99iLMKKWkpiFrN8Ra5b+G9HuNQumxHCuQv8AePYD61o/SvBfjd4wGr6qukW8mba0OZMHhpP/AK1edjsSsLRdTr0PTy7CSxleNJbdfQ4nXdav/GettcS75riZ9scY5wOygV6Z4V+BSNEk+sztuYA+REcY9iai+B/g0TyPrt1HlUOy3Vh37tXtRrwsvy9Yj/acTq2fR5pmcsM/qmEdlHdnJWvws8NWq7RpqP6lySa6Sx0+20y3WC1hSCFRgKgwKsmkr6inh6VH4IpHyNTEVq2lSTY2aJLiJopUWSNhtZGGQR6EVyfiL4W+H9c8M6posNjBp0OoKqTSWsSqxAYNj9K6+itHFPdGKk1szNs/DeladCIrXTra3jEglCxxADeOjfX3qxHpFlDK00drCkpZmLrGASW+8c++Bn6VapKOWPYOaXc828Z/A3TfGWoK8l5Laaa0UcEunwxp5bIrZwpxlM9Diu+vtFsNStY7W8s4LqCLGyOaMOowMAgHvirnPakpKEVsN1JNJX2MxvDOkNp7WJ0y0+xMdzW/krsJ9cY60R+FdHi2hNLs0VXEg2wqMMBgN0644rU/Gj8afKuwc0u5l2HhfR9LnSa00y1tpl3bZIYVVhu6jIHenx+HdKh1R9STTrZb+QYe5WIBz25OK0dopW5o5V2Dml3KR0uyOn/YfskP2Lbs+z7Bsx6belSTWdtNJbyvBG8lud0LMoJjOMEqe3HHFWQKTgdDTsK7EzRRRTJCvnD9r3STu8Pamq/LiS3ZvyYf1r6PrzD9o3w+2vfDK7aNd0tlItyPXA4b9DXrZVW9jjKcn3scONp+0oSSPJ/2TdYFt4p1XTmOPtVuJFHup/8Ar19UGvhD4SeJh4S+IWj6hI22DzRFMf8AYbg/z/Svu5GEigg5yMjFenxFR5MUqnSS/I48qqc1Fw7MKKKK+WPaPGvHurxeAfjtofijVYp00KfQ59Ne8iiaRYpvOSRQwUZGQp5rzjT/AA3c+NNasbuaDUbXQ/EXjS6vNqb4WltRahVL45Csy96+qpI0lXbIiundWGRS7BwAowOnHSumFblWxk4OR8X6t4b1nUPC+raDJDqV3ZWtp4mtbWKQuSUSVfs4z34+76ivqT4Xw2S/DHw2lijfZF06HYsoO4EIMg7ueua60Kv9xfyoVVVQqgKo6KBxROtzJKwKnY+Nry11rT/hv4Et5beS28PPrOqHVfMWRAP3rmDfs+baST+lZ+rR6qvgvw4+sX97PbxRag1nb3SzIksZl/dBXX5g6gfLu6givtdokkQoyKyHqpAI/Kka0hmjCvEjqpyFZQQPpWqxNt0R7I+NNe0+7a61vVItP1Sy1zU9J8PzqH3tLj7SgmDEcbgAM/jXSN4U1Ox0+08U2j6mfEjeM5YFZ5XKi2LSKE2dNnQ5r6o8tN2Sqk9M47UNEjqysoKtnIxS+sc3QXsmfJPw6u7OPx58MQlzqw8UXM93/by3LSeW8gjc4YH5Tg9Mdq+uK4jw58H9C8M61DqcDXVxNb+Z9lS5mMi2+/72wGu3GKyrTjNqxpCLitQooornNQooooAKhvrGDULWSG5hSeFxtaORcgipqDzTXu6oTSasz5W+NH7P8mgrNrXh6JpdP5aa1Xlofceorh/hb8W9T+G+o4RmudMkP761Y8f7y+hr7geMSqVYBkbgqeeK+fvi/wDs5rqU02reGUWKY5eSy6Bj6r7+1faZfmtPEU/qmP1Xd/1+J87isDKnL22H37HsHgzx5pHjvTVu9LuVk4+eEnDofQiui6V+ftrfa54F1YvA9zpd7GcMpyp/Ed69c8M/tVarYxxxaxYx34XjzIztascZw/Vj7+FfNF/ebUM0i/drKzPqaivHdL/ak8JXioLpLqyc9d0e4D8RXR2vx38EXWNutRr/AL6kV4E8vxdN2lTf3HpxxVCW00d/RXLaf8UPCmrXUdtaa3ayzyHCR78En0rqlwwyDXHOnOm7Ti16m0akZ/C7iUVw/if4sab4W+I/hnwfdwSfatejleC5GPLRk6Kfc9qp6N8cNB1Txh4v0J2+xx+GjCtzfTsBE7SZ4U+oIx9aXJK17FcyPRKK5+b4g+GrfSI9Uk1qzTT5H8tLgyjazDqB7+1UtO+J2iahrWpaf9pjjW1a3SO4LgpcGZN6BPXijll2DmR1tFcfZfFXw8dOtrjUtStNLlnDFYJp1LbQ7Jnjtla07nx54ds9STT59as4r19u2FpQGO77v59qOSXYOZG7RS4PpSVBQUUUUAFFFFABRRRQAUUUUAFK33jSUGgAoBxRRQApYmlVcjNNpwbAxQA2loozQM8Y+OfgXWvFmpTy6XaGdW8N6jYgg4zNKF2L+ODXPeNPg7qM1jqFrpOkJHDc+FoNPZIsKHnWeNip9TtDc19D0v407nPKhGTbPnD4jfB7W7rWtefQ7I22myQ6TJ5NrhfPMDyeaoHTdhl69cVB4c+EGo3muWN9daRcf2ZJr8V5Jb35XcY0t2QuUHC5bHHfGa+lvpRRcj6vG9z52Hw31zSfGVpq0eiLdLHruqzRgY+SOaLELn/Z3AfSuP0/4Z+MJ7+zuX0S7jkbRdQ0+63bEjWeVBsCAdUyDyfUV9c0ZouJ4aL6nzb42+Cus3Om6TBoWmxWxi8Opa3KIQgmkSWJ/KYjqWCuM+9M8beB9b8VyWWraZ4Tk0GwstRhlntICouLqNYnUts+78rMMZ64r6V5o3EUXD6tHuecfAvwrd+F/DOoLd29xaG8v5bqOG6YFwrBQCQOFzgnA9at/Ez4cv42t1lt7t4bqEfJGx/dt+HrXd5pc0J2dxVsLTr0XQqapnzQvwO8TSSE+TEgz1Z66TQv2d5mkR9Uv1VO8cI5/Ovc8mkrb2rPn6fDOApy5pJy9WYnhvwbpfhW38qwtlQnrIRlj+NbTMFUsTwBk06uY+JGvr4b8H6hdZxKyGKIerNx/XNZK8me/KNLBUG4pRjFHzH4w1H+1/FGp3ancss7bT7Z4/lX038MNN/srwPpULDDeSHP1bmvl/w3pj65r9jZoNzTzKCPbPP6V9h20K21vHEgwiKFA+grqrO0Uj8/4Vpuvia+Ml/V9SXpSUvpSVxn6d0CiiigQUUUUAFFFFABRRRQAUUUUAFFFFABRRRQAUUUUAFFFFABRRRQBx/xebb8OdZ/3E/9DWvm3Qhu1qwH/TxH/wChCvo74xNt+HOre4Qf+PivnXw2u7xBpo9bhP5ivr8o/wB3n/XQ+wyf/d5+v6H18vaiiivkHufIMKKKKBBRRRQAUUUUAFFFFABRRRQAoYin/eFR0oYigBXGKzPEn/Ivan/17Sf+gmtItms3xJ/yL+p/9e0n/oJrOp8EvQ0p/wASPqvzPkB+h+lfX/hn/kXtL/69Y/8A0EV8gP0P0r6/8M/8i9pf/XrH/wCgivieHf41T0Pu+Jf4VL1NLtSUvakr7o+BCiiigQUUUtABzXH/ABM8eJ4J0dXjCyX0+VhRu3qx+ldga+dPj5dyzeNkhYny4bZAg7c5JNeVmmIlhcNKcNz2cowscXi40p7bv5HEat4k1LXLhpr28lmdjnBY4/Ks/wA6T++3502ivzGVSc3eTuz9djSpwSjGKSQ7znwSZGA+tJ9ocjcJCV9Q1cB8Qml1bxN4Z8PNcy2mn37TS3DQvsaXy1BWMH3zn8K47xxFL4GPibTNJu7gWc+gT3nkvKWNvIpADKTyM5/StIwlJJ33MJ1owbXLoj3H7QzdJSf+BUec/wDz0OPXNeBae02k+IfB/wBlttU0o3hYTzXc5eK4HkFtgGepPI+lZ3hzxfqtn8O9T8Py3csmr3jrJYzs2XMUxbJH+7sf9Kv2E7XuY/WoWvyn0d9ofqHYj65pfOk6+Y35muR+FMklx8N/Dkk8rzTNZR75HOSxx1JrrK55OUW43O2HLOKlbc6vwb8SNV8J30bLO9xZ5Akgdsgj29DX05o+rW+u6Zb39q++GZdy18bYr3j4MrPqnw/vLX7ZJZrFcMI50bBQYB/LOa+oyPGVVUdGTurXR8hxBgKTpLERVnezPXsHr1qOa4jt0LSusajkliBXzL4i8ceItJ1e6sofEU15FE20TRkYauavPEmq6gT9p1C4mz1DyGvSq5/Sptx5HdHlUeGq1RKfOrP1PdviF8XLPSbKaz0mVbjUJBt8xDlY898+teM+G9BvPF2uRWkQaSSV90sp7DuxNYHmN3Oa09H8V6p4f3/2fdG2L9WUDJ/Gvm8RmDxlVSrfCuiPq8Nlf1ChKOH+N9WfWOjaXBoum29lbrtihQKP8au18qf8LS8Uf9BaWl/4Wl4oH/MWl/Svo4Z9hoK0Ys+Ulw3jKjcpTV/mfVeD1ptfKx+Knij/AKC836V638JfiJqfijNlf2jytGuftij5T7H3rtw2cUMTUVNJps4MXkWJwdN1ZNNI9Oqjea/punhjdahb2yq/lsZJQuGxnHPfFVfFnizT/BejvquqSNDZJIkbyAZCbmCgn0GTya+ZvE0jeJ/G8b6ZFa61bXXjV1hSdybeYLYYIyOoBB6dxXrVKvJseJSo+0vc+pE1zTpLE3kd9bvaDg3CyAoOcdc4q6rBlBByDyCK+TvGng3WbUN4HSyEs/iW8bV7vS9JkKx2dpCgQBSem+UoT9DXuPwJ8UT+KPhtp325Wi1fTS2mX8L/AHkniO05+oCn8aUKjk7NFVKKjHmTuegUUuMd6Suk5QpaSigBaKSigAooooAKKKKACq2pafDqun3NnOu6G4jaNwfQjFWaKadtUG+jPgDxv4XuPBfii/0m5Uq1vKRG395M/Kw/Cvqz4B/EqLxp4WhsbmZRqtiojdWPLqOjVW+P3wmfx1paanpsSnV7RT8o6zJ12/X0r5T0fWtT8H63HdWkklnfW79DkEEdVIr9DSp55glG9qkfz/yZ8q3LLsRt7rP0JNJXiXgL9prR9Yt4rfXh/Z1990yAZjb39q9a03xPpGroGstStbgf7EozXw+IwdfDS5asWj6KniKVZXhI06KasqSfcdXH+yQadXJZ3sb7hRXF+IPjJ4P8K61c6Tqmsx2t9bKjTxlGPlBhlSxA4yOa62wvrbVLKC8s50urWZBJHNEdyup6EEU+VrcLon60vK8VRttdsLvWL7S4LhZL+ySOSeEdY1fOwn67T+VXuppWC4oTNNpysfwpkrrDG8jZCKCxPsOtFguheaTmq+l6lb6xp9ve2b+bbTrvjfBGR61axnpSASiiigYUUUUAFFFFABRRRTAwPFHgDQvGUOzVNPinP9/GGH415B4h/ZN066kkk0jVJbPPIjmXeo/Gvf8AJpK9DD5jisLpSm0jkq4SjW1nHU+RNT/Zb8WWZY28treKOm1tp/WsC5+APjW1bnSTJ7owNfbeaSvZjxJjI/EkzzpZRQbum0fEWn/A/wAZyajbxppU1s7OAJmOFT3Jr698A+H7/wAM+G7aw1LUW1O6QczOOnsK6CiuDH5rVx8VGcUrHXhcDDCtuLbPGfjT8Ldb8aeJrXWdGWIXemaazWMkjYxeLMkkY9gdpBPvXAr+z74r08xambe31C9WfTtTvbRpMLezpJM9xGT6AyjGePlFfUmaK82NeUVZHW6aep83p8KfFFnq1t4o/sC0vQ2pX903hp5gI4UmhjjRgfu5BjJPH8ZpNJ+B/ibSvHth4vFtaia1exjOkRSf6MYxFsmKA9GQn5T7V9I0UfWJi9kj5z8L/AbVbXTdVj1SxtZ55PD9zp9uXIbbM9xLIPpw681w11pV/odz/wAIrLpttqWqz+INOuHvyxM0QVYtyAYyQu08g4wTX2LUDWFs1yLg28RuAMCXYNw/GqjiGviQey7FjOe9JRRXIbh+NFFFABRRRQAUUUUAFFFFABRRRQAUUUoFAxKKdikoASlxRRz0oEGfakoooGLmkpaKBCZpfxoooCwfjRQF70GgYlFFFAgpcUlLQAba+f8A4+eLl1DVYdFgfMVr80uD1cjp+Ar034mfEC38FaSyo4fUZlIijHUZ/iPtXzJb2974i1VY4w1zeXUn1JYnrXVRhrzM/P8AijMuWH1GjrKW/wDl8z039n/wyb3WrjV5V/dWq7I893PX8h/OvoGsLwT4Xh8J+HbWwjA3quZGH8TdzW7WVSXNI+iyTA/2fg405bvV+rCj+dFH1rI94SiiigAooooAKKKKACiiigAooooAKKKKACiiigAooooAKKKKACiiigDh/jQ234d6gOm54x/48K+fvCq7vFGkr63Uf/oQr3j46S+X8P5l6F7iIfrmvDfBMfneL9GXv9qT+dfYZVphZv1Pscp0wk2/P8j60brSUrfeNG2vjz48SiiigQUUUUAFFFFABRRRQAUUUUAFFFFABWd4j/5F/Uv+veT/ANBNaNZ3iL/kAal/17yf+gms6nwS9DSn8cfVHyA33Wr6+8L/APIu6X/17R/+givkF+jV9e+F/wDkW9K/69Y//QRXxPDv8ap6H3XEn8Kl6mnRRRX3R8CFFFFACilptLTGFeOfHzwfNeLb65aoZDCvlTqvULn5W/nXsdNlhS4jeORA6MMMrcgiuHGYaOLoulLqduCxcsHXjWhrY+LaK+i/EHwM0XVrh5rZ5LB3OSsfK/lWI37Otox/5C0v/fAr4KWS4yLaUbn6TDiDAyim5WfofO/ibwtY+KrWKG8Vg8L+ZDNExWSJvVSOlZlv8NdIi03VLSXz7ttSh8i4uLiQtIyf3c9hX05/wzra/wDQWm/74FKf2d7b/oLS/wDfAo/snHpWUdPUHnWWyfM5a+jPnTUvCdhq0elxzIxXTZFltyrYKkKVH6E1nRfDXQoLnTLgWx87TYJLe3bPRHznPr1P519Nf8M723T+1pf++BSf8M62/wD0FpP++BQspx/8v4j/ALYyx/a/Bngei6PbaDpNrp1opW2toxHGpOSFFXa9w/4Z1tv+gtJ/3wKVf2dLXPzarKR3+UVH9j456uH4lf27l8VZT/BniVvby3kyQwoZJZDhUUck19OeB/AsWk+CIdKvl3vN+8nAJGWPb8BgVJ4T+F+jeEZBNBGbi6/57TckfT0rsK+lyvKnhm6lb4npY+TzfOVjEqVDSK1ucf8A8Km8Lt102Me+TWRqnwL8P3it9n820fsVbIH4V6NRXsSwGGmrOmjw4ZljKesar+8+Y/G/wt1HwaDOR9rsM4Eyjlf94VX+Ht9o9vrCW2s2cdxazkIJGHMbHofpX09e2UOo2sttcxrLDINrK3IIr5b8f+E38HeJJrTk2zHzIX9VP+FfKY/L1gZqvSV49mfaZbmcsypyw1d2nbRo9/X4X+GZFDDS4SD3FL/wq7w130qGsz4P+L/+Ei8NrbTSZvLP92+Tyy/wtXe19Ph6OFr01UjBWfkfH4mtjMNVlSlUldeZyv8Awq7wx/0Cofyrf0zSbTR7dbeygS3iUYCoMVborshh6NN3hBJnDUxFaquWpNtebIb6xttSs5bS7gjuraVdskUqhlYehBqnY+G9K023toLTTra3htnMkKRxACNiMEj0OD1rSoreyMLvYhFjb/bTeeRH9q8vyvO2jfsznbn0z2pbXT7ax85reCOBp5DLKY1A3ueCx9TwKmFJTsg9RaKKO1AhKKKKACiiigAooooAKKKKACiiigAry/4nfAfSPH7NeQEadqeMmaMfLIf9oV6hRXRQxFXDT56TszKpShWjyzV0fD3i74K+KvCMjGXTnurcHie2G8EfTqK5Dy7/AEyTgXFo/wDwJK/RBgGGCMj3rPvPDumah/x82FvN/vxA/wBK+rpcRy5bV6aZ4k8q1vTlY+KfAPjjxXomuwHR57m8uJCENu2XVxnpivtXw/dX17o9rNqVstpeugMkKtkKfTNR6f4U0jSbg3Fnp1vbzEY3xxgGtbpXj5ljqeNalTp8tjvwuGnQ+KVz5/t/Fnhjwn8bviu3iea3hhmh01o47iEuZlFr8wUYOfSvINJuvE+j6R4d0e6uJvD/AIfk0+91GxjmuHttu65YxISB95YypCV9pXGjafd3Hnz2NtNPx+8kiVm46ckU6+0mx1ONEu7OC6SM5RZYwwU+2a8+NdR6HX7NnxvDqTya54n1DxB4kv8ATfEH/CMafcWb2peIXVwqy7TjHzNnb8p/vV0HiT4pa3oOg+P7bVtRurPX7iHR30+2UNvy8EQmMYx0378+nNfU1xo2n3UiyTWFtLImNrPEpIx0wcdqW50ewvLhZ57K3mnUbRJJGrMB6ZIqvbxfQXs33PlDxr4wvbXVLy7m8S6lZ+KB4yt9Ng0pHZYjZeeir8uMbWTnd6mo28YXa33hK6bxPqf/AAlWo69cQanpJdvLSJVmwuzGFAwmPWvd9Q+Bmiap4u/t27ury5H2xL8WMjgxCZMFW6ZwCAcdM0um/A/RrHxZFrst3d3rwXD3UFtcMCkUrAgt0ycBjjPTNaKtT7E8sjwiwXxD4m8L393NrurWcmm+B4NQt47eRkBut853kAcn5V4qt8QvHWot4Z8Yarq3ifUtG12z0+xbR7W2ZkWYSQxs77cYOXZgfTFfX6afbRqyrbxKpXyyAgwV/u/T2rgfF3wM0Txlrkl/f3V4LaYRrPYIwEMgTGBjGQOBkDrUKvFt3ViuR7o7/T5Gk0+2dyS7RqST/uips0BRGoVRhQMAe1FcJsGaKKKBhRRRQAUUUUAFFFFABRRRQAUUUUAFFFFABRRRQAUUUUAFFFFABRRRQAUUUUAFFFFABRRRQAUUUUAFOFNooGcV8VPEWseH9L0hNDlt4b/UNThsRJdR70RX3ZOPwrJ0zx5rfhXXL7SPGLWt0Y9ObUoLzToWG+NWCuhTk7gSuMdc1u/EzwjqHi7S9NXSruGzv7DUIr6OS4QuhKZ4IH1rldQ+FHiHxJb61eav4gSPXbux/s+0nsotkdtHvDtgdSWIAPtTOWbnze6HiD9oGysPDGqahYaZey6hYXFrDLYzxbXVZpAquRnpgnHvit2T4yaND4gttKntr63a4nW1W5lgKxecw4TPr29K4qz+AeqRab4lSTU7OK61aKzEX2eAiOF7ebzFJBOSDjmluPgPrt/4mh1K81u1nWPVI9T8xoWMpwwbys5wFHIGBT0Muet2Ok1D456U/hzX9S0q0ur8aZa3M6MseY5WhyGXIPHzA9ewNM0z496Tcaek1zY38U8Wmx6jejyPkt0aMuMn3wcfhWDa/s/3f9u61eTanbQRX9peWrGyhMTTidWXdKM7SV3Z4HWtrSfhDe/8Iz4i03VNSiln1fSoNNaa3j2hPKiaMNg+oINLQrnqt7HT6x8TtE0Ga+hu5JEezsoL5wqZLJK7JGFHdiykYrm7r45Qf2z4dsrfRtRA1G8ktLhbi3KPBtj3hvcEYOfTNZf/AApfXdUm1O81fXoZdSuLKzt7eS3g2pC9tM0iNjuCTzWw3w+8T6he6TqWqa9Bc39nf+eY0g2wiFojE6KOuSCTk96NB89W2xtR/FXQ5NL0nUA0v2fU9Pn1OA7OfJiQO+ffBFZL/HjQFsbGcWepSveRNcxWyWxMv2dcZmI7JyMHvXO6L8DdbsbawsrzXobmw0zSr3SbKNYNrCOaMKrOe5GBVnxh8CptaudCvrK8tkvbHSk0mYXUZeN41wQwAIwQc/nRoHPVtdI6ib4xeH11KxsrZp797q2hu1a2TcFilJCMRnODg9OldzxzzXifir9n241k6JBZaha2Vvp9pBbLcRwbbiHYclomB4z6HgV7S0giiZ3OFUZJoNacptvmQ/FJXjXjT46NbXb2uixZ8s4aaZep9hXDXnxt8UXSsouliB/uJitY0pSPmsVxJgcNN07uTXY+mri5itIzJPKkSD+J2AFebeNfjdp+iRy22llb28xgOPuKf614PqfifV9cb/TL2e45+6znH5Vo+Gvh/rfimcLa2jpF3mlBVRW0aKjrJnzuJ4nxGK/dYGm7vruzL1LUtQ8Uaq01w8l3dzNgDqfoBXvPwh+F58MRDVNRUHUJF+SM/wDLMf41peAPhLp/hFUuZ8Xeof8APRhwv0Fd9Wc6nSJ6GTZDOnU+uY7We6X+YZo60lFc596LRSUUDCiiigQUUUUAFFFFABRRRQAUUUUAFFFFABRRRQAUUUUAFFFFABRRRQB5j+0BPs8I2kWeZLtf0UmvJfhnAbrx5oyAZxPvP0AJr0b9oi5xZ6Pb92keTH0GP61yHwQtfP8AiBbMRkQwyOfyA/rX2GD/AHeXyl6n2OC/d5fKXqfSXc0lL34o9K+PPjhKKKKACiiigAooooAKKKKACiiigAooooAKz/EP/IB1H/r3k/8AQTWhWf4h/wCQDqP/AF7yf+gms6nwS9DSn8cfVHx8/evr3wv/AMizpX/XrH/6CK+Q2+6a+vfC/wDyLWlf9esf/oIr4nh3+NU9D7riT+DS9TTooor7o+ACiiigYUUUUALRSUUAFLmkooAKjubmKzt5J53EcUalmZjwABUlct8UmKfD3XCDj9wR+orKrL2dOUuyNaMPaVIw7uxy3g34xJr3jC6sLgCKznfbZseox2P1r1OvkXwX83izR/8Ar7j/APQhX1zXh5Pi6mKpzdToz6HPMFSwVWCpdV+QtJRRX0J8yFFFFABRRRQAtcL8XPBn/CVeHjLbrnULT54/9pf4lruaKwr0Y16bpy2Z0YevLD1Y1Ybo+TvB3ii58G69FeRg7V+SaI8bl7g+9fTXh3xVpviizSexuUckZMZPzL7EV578Rvg3/a1xLqejbUuH+aS36Bz6j3rxuS31bw3ekPHc2Fwh68r+tfIU61fKJunON4H3Nahhs8gqtOdp9f8Agn19ikxXy1a/FDxNaRhF1SUj/b5r1v4WfEq88Ut9hvbR2mRc/aox8h+voa9vDZtQxE1Ts02fP4rJcRhabqtppHpLMsalmYKo6ljgUjSIpALqCegJ6159+0TNLD8EfGUkDtHMunuUdCQQcjnNec+JtR8WN448EJrcNpZwNp2peX9imZi5FoT82fTivUnVUHY8enR9or3PohJEk+46uf8AZYHrTua+RPAvi/XvD+j65qllrcMX2DQ9HuTZXQ3tckxMCBk5Gfbviup0n48eLdX8UTSR2Ih02PWDphtZFUYQKMtknduyc4xjFR9Yh1LeFnfRn0lzRXzz4R8e+PvFVj4L3arZW0viGzur13W3z5KRAbQPUnPP1rC1j9ojxMmg2l/avE1za6bDdXkKRLs3tKyEsxPAIXgCn7eIvq82fUVFfLsPxO8U+H77xKkF61/PqPihbOIbVY2sZtUk+UE45zgZ969q+DvizVfGHg9rvWYkjvobye2LIRiRUcgNxwDjqPUVcKsZuyIqUJU1dncUUUVsc4UUUUAFFFFABRRRQAUUUUAFFFFABS/WkopgLxRkUlFIdwooooEFFFFABSg0lFAwooooEFFFFABRRRQAUUUUAFFFFABRRRQAUUUUAFFFFABRRRQAUUUUAFFFFABRRRQAUUUUAFFFFABRRRQAUUUUAFFFLQBxvi3XLzTfH3gbT4JilrqM14txHj74SDcv5GqXjr4iQ+CdcleeG7uorfSJr9re3wQ+2RE6dc/N17DNXfiF8PrjxpdaJeWWuXWgX+kyyyQ3FtGrk+YmxgQw9Kzm+Ek19Du1TxJf32o/YZrH7eFSOTa8iyBhgYypUD3HWmYVFPXlOX1f45axd6f4XudG0NZDe69Fp9ykd2kgMZjZsK2Opx6cbTXUeA/jBD468QXGmxaY9okYkKSSTqX+RtpDx9VJ6jrWVZ/s+2tlp2wa/fHVP7Tg1QagqIpEkSlVUIBtwVZgeO9Taf8ABNtF1671y3169utRS3ni08TKgFu0g6kgZfHGN3SjQzXtrq5ofHXVda0nwBIfD939h1e4vbW1t58Z2tJMqf1rifEnxc1bVpPhw+jz/ZFu7yzOsR45/ey+SYT6fMJD/wAAr1XXPCP/AAlHh/TbDULp/Otbi0u5JowPnkhdX6ejMv61zK/A3SY7q+miu7hPtOuQ63t4xG0bFhEvohYsf+BGgqcZt+6VofjpC3i4aNc6HPaQzNPHa3TTo3mPEjMQyDlchTjNRaT8fI7mzS+1DwzqOm2dzp0mo2EhKyNdrGgd1CjkNg8Z6iqtr+z5FpeoQahHr9/ef2e9xNZWcypsUyRupVjjLff6nkU7wF8EZrHw7pY13WtSubqDSvsUFs0gAsC8YEnlsOSeMAnoKNCP3tzrPhp8Rk+IlnczCyFkYSuAtwsoIYZHI6H1BFczb/tAWV54m/s6HSZ5LCS7fT4NQ85f3lwuRt2dQpYFd1b/AMOfhZD8P7zUr1tUuNWvr4Ikk0yLGAiZ2gKoAzycnqazdL+Btjo/iwapb6vdjTlu2vk0navlrMxJJ3Y3YySducUaDaq2Xc57wX8ctc1LwvpHn+FbnU/EN2Lm4NrbTIB9njlKeZk9OflC9ypr2PTbwalp1tdeVJB58SyGGYYdMjO1h6ivMofgONPtbddN8Uanp1zbNcRw3UITettM+9oOnIDZIPUZr0vR9Mi0XSrSwgaR4bWJYVaVizkKMZYnqfeg0pxn9o5TxV8JdE8T3AuGRrS4P33h43fUVkW/wB8PwsGkeeb2ZsV6bRVc8lpc86plGBqzdSdJNs5fSfhr4e0dlaHTo2cdGcbjXTRxJCoVEVFHQKMU6ik5N7nfRwtHDq1KCXogoooqTpCiiigAooooAKKKKACiiigAooooAKKKKACiiigAooooAKKKKACiiigAooooAKWkp3OOB3pgeAftBXnneJrG2DZ8m33H/gR/+tU37PdiZNd1O8xxFAsf4s2f6VyXxS1P+1PH2ryA7kjkEK/8BGP516p8AdM+z+Gbu8Iw11Nxx2UY/nmvsKv7jLFHq0vxPsq37jLFHq1+Z6j9KDRRXxx8aJRRRQAUUUUAFFFFABRRRQAUUUUAFFFFABWf4iO3w/qR9Ld//QTWhWb4m/5FvVf+vaT/ANBNZ1Pgl6GlP44+qPkFvumvr/wyu3w3pQ/6do//AEEV8fn/AFZ+hr7C8N/8i9pf/XtH/wCgivieHf41T0PuuJP4VL1L9FFFfdHwIUUUUAFFFFABRRRQAUUUUAFcd8YJvJ+Herdt6qv5sK7GvOfjxdeT4HMWcGa4jX8ua4sbLlw1R+TO/AR58XSXmjxL4fQ+d420VP8Ap5Vvy5r6zr5e+D9r9s+IWl5GREWk/JTX1DXg8PRtQm/M+j4nkniYR7IKKKK+rPjQooooAKKKKACiiigBV5qrfaXaakm25to5x/tqDVmiplFSVpIqMnF3i7HMz/DXw3cMWfS4cn0GK2dJ0Wy0O2FvZW6QRD+FRV2iso4elB80YpP0Np4itUjyTm2vUralptrrFjNZXsCXNpMuySGQZV19CKhvNCsNQntpri1jlltldIXZclAy7WA+o4q/RWvKjHmZzEnwx8LTXMFw+iWhmgVEjby+ip90fQdqsN4D8Ptrh1g6Vb/2kTk3GzknGM/XHGa36KXJHsPnl3Myz8M6Vp62S21jDCLKJobbYuPKRuqj0BxWRd/CzwpfSRvPodpIY4vJAKcbck4x35JrqqKfLHsHPLuc3P8ADnw3cw3UcmkWzLdFGm+Xlig2qfqBxmtjSdHstB0+Kx0+2jtLSIYSKMYA7n8auUUKKWyE5SluwoooqiQooooAKKKKACiiigAooooAKKKKACiiigAooooAKKKKACiiigAooooAKKKKACiiigAooooAKKKKACiiigAooooAKKKKACiiigAooooAKKKKACiiigAooooAKKKKACiiigAopNx9OO1HNAC0U3dRuoAdRTd1G6gB1FN3UbqAHUZpu6jdQA6im7qN1ADqKbuo3UAOopu6jdQA6im7qN1ADqKbuo3UAOopu6jdQA6im7qN1ADqKbuo3UAOopu6jdQA6im7qN1ADqKbuo3UAOopu6jdQA6im7qN1ADqKbuo3UAOopu6jdQA6im7qN1ADqKbuo3UAOopu6jdQA6qHiHVk0LRb2/kOFt4mk/HHA/Or2415N8fvEwt9Lt9FiYefct5koB6IOn5n+VdWGpOtVjBHThqLr1owXU8Nlmkup5J5G3ySOXZj3JOa+r/AAFox0HwjptoRiRYQ7/7x5P86+cvhv4dPifxZZWpXMEbedN/urzj8TgV9VK23AxgY4r3s4qpKFCPTU+gzmrZQoRFxRzS7j6Uxmr5c+XFopu6jdQIdRTd1G6gB1FN3UbqAHUvHem7qM0DHUlG6k3GgQtFJu9qNw9KBi1meJ/+Rb1T/r2k/wDQTWluHpVfULVdQsbi1Y4SaNoyfYjFRUTlBpdi4Plmm+58cYyuPavsLQV2aDpq+lvGP/HRXzjY/DW/l8cHQZEKpG255scGLPDD6ivpe3hW2t4oU+5GgVfoBivkchw9SlOpKat0PsOIMRTrQpRg79SWim7qN1fYnxY6im7jRuoAdRTd1G6gB1FN3UbqAHUUmTRmgB1eK/tFaoMaVp6nnLTMPboP617QXCqWJAA5JNfK3xO8Tf8ACUeMby4Rt1tEfIh/3V4z+JzXgZ1W9lhXDrLQ+lyDDutjFN7R1Or/AGfNL+0eJb28IysEGwH/AGmP+ANe/wBebfAvRW0zwkbuRdsl4/mDj+EcCvSFOeta5PSdLCRvu9TDO6yr46bWy0+4WikY4PFJur2jwR1FN3UbqAHUU3dRuoAdRTd1G6gB1FN3UbqAHUU3dRuoAdRTd1G6gB1FN3UbqAHUU3dRuoAdRTd1G6gB1FN3UbqAHUU3dRuoAdRTd1G6gB1FN3UbqAHUU3dRuoAdRTd1G6gB1FN3UbqAHUU3dRuoAdRTd1G6gB1FN3UbqAHUU3dRuoAdRTd1G6gB1FN3UbqAHUU3dRuoAdRTd1G6gB1FN3UbqAHUU3dRuoAdRTd1G6gB1FN3UbqAHUU3dRuoAdRTd1G6gB1FN3UbqAHUU3dRuoAdRTd1G6gB1FN3UUAfHv7FX7XUfxGs7fwP4qulXxJbJiyu5Dj7ZGP4T/tgfmK+vg361/PRpfja80LVLTUdPu5LS+tZFlhnibDI4OQQa/Yj9jH9quy/aQ8B7L144fF+loseo2wOPN7CZB6N39DQB9HbqN1RbsjNG6gCXdRuqLdRuoAl3Ubqi3UbqAJd1G6ot1G6gCXdRuqLdRuoAl3Ubqi3UbqAJd1G6ot1G6gCXdRuqLdRuoAl3Ubqi3UbqAJd1G6ot1G6gCXdRuqLdRuoAl3Ubqi3UbqAJd1G6ot1G6gCXdRuqLdRuoAl3Ubqjzxmuf1Xx9oGizGK71OBJB1VW3EfXFXGEpaRVy4xlJ2irnSbqN1cZ/wtnwt/0FI/++T/AIUf8LZ8Lf8AQUj/AO+T/hWv1et/I/uNfq9b+R/cdnuo3Vxn/C2PC3/QUj/I/wCFH/C2PC3/AEFI/wDvk/4UfV638j+4f1at/I/uOz3Ubq43/hbPhX/oKx/98n/Cj/hbHhb/AKCsf/fJ/wAKPq9b+R/cH1at/I/uOy3Ubq5Wy+JXhvUJhFDqsO88DeSv6mukjkWRQykMp5DA5BrKVOcPiVjKVOcPiVibdRuqLdRuqDMl3Ubqi3UbqAJd1KGqHdVbUtWtdHs5Lq9mS3gjGWdzimk3ohpOTshdb1q20DS7i/unCQwjJ56nsB718p+JvEVx4n1q71G44aZsqueEUdAK3/iV8RpvGt8IYN0Wlwn93H/fP940vwt8Cv4u1YTXEbDTbdgZG7Of7tfXYHDxwNJ4itoz7DA4eOBpOvW0Z6d8D/CZ0fQ21S4j23N6MpnqI+3516bu9qrRqsMaxooRFGFUdABT91fMYitLEVHUl1Pl8RWeIquo+pP5nWm7qi3e1Ju9q5zmJd1G6ot1G6gCXdRuqLdRuoAl3Ubqi3UbqAJt3tRuqHdS7qAJd3tVHVdesNDj3311FbjsHYZP4Vh+P/GSeDNBe72h7hzshjPdq+ZdY1681y8lu7+dp5WOSzngD0HoK8LMc0jgfcSvI9/Lcpnj1zydoo+l2+K3hlTj+04/yNH/AAtbwx/0Ek/I18iW/i7RLu68iHVrN5s4EazrnPpjNaxfvnNfP/2/iOsEfRrh3DvabPqT/hbHhj/oJJ+Ro/4Wx4Y/6CSfka+WfMXeFLDcei55p2aX+sGI/kQ/9XcP/Oz6hHxQ8JiYzfbovNK7d+05x6VIPix4Yz/yEk/I18q2t5Dfwia3kSaFiQHjIIODg/rU272qf7fr/wAiH/q9h39tn1K3xa8MdtST8jTf+Fs+Gf8AoJJ+Rr5c3e1Ju9qr/WGv/Kg/1dw/87PqUfFbwyx/5CUf5Gt/S9csdah8yyuo7le+xskfhXx3+FX9D16+8O30d3Y3DQyqc8Hgj0IralxBU50qsFbyOetw5Dlfspu/mfYW6jdXNeBfF0XjDw/DeoAsoOyaP+64610G4V9lSqwrQVSL0Z8RVpTozdOa1RLuo3VFuqGa+trZd01xFGP9pwK15ktWzOz6FzdRu9q5DWPij4c0VX8zUI5pF/gh+Y15f4w+O93fxvbaNEbSNxgzNy/4elediMxw+HV5S17I9TC5XisU7Rg0u7Ou+MPxJi0bT5dI0+UPfzjbKynPlKRz+Jrxfwf4bn8Wa9bWEQbYzZlcfwp3NU9L0vUPE+pLBbRyXVzK2Wbr+JNfSPw68BweCdNwcS30wBllx+g9q+VjGrnOJ55q0EfYTlRyLCunB3qS/r7kdbYWcWnWcNrCuyKFAij2AqcNzxUW6gNzmvu1FRSSPzuUnJ3ZKW55pN1RFuaN1MRLuo3VFuo3UAS7qN1RbqN1AEu6jdUW6jdQBLuo3VFuo3UAS7qN1RbqN1AEu6jdUW6jdQBLuo3VFuo3UAS7qN1RbqN1AEu6jdUW6jdQBLuo3VFuo3UAS7qN1RbqN1AEu6jdUW6jdQBLuo3VFuo3UAS7qN1RbqN1AEu6jdUW6jdQBLuo3VFuo3UAS7qN1RbqN1AEu6jdUW6jdQBLuo3VFuo3UAS7qN1RbqN1AEu6jdUW6jdQBLuo3VFuo3UAS7qN1RbqN1AEu6jdUW6jdQBLuo3VFuo3UAS7qN1RbqN1AEu6jdUW6jdQBLuo3VFuo3UAS7qN1RbqN1AEu6jdUW6jdQBLuo3VFuo3UAS7qN1RbqN1AEu6jdUW6jdQBLuoqLdRQB/NZ9sb1rvPgd8cNf8AgN8SNK8XaDKwmtXxPaljsuYT9+NvYj8jXnVNagD+iz4T/FLRPjF8P9G8XaBP52najAsm3OWifHzRt6MpyK64sO2a/Hn/AIJp/tTN8J/iGPAXiC62+FPEcoWB5G+WzvOAreyv90++DX7AbvQ5oAl3Ubqi3UbqAJd1G6ot1G6gCXdRuqLdRuoAl3Ubqi3UbqAJd1G6ot1G6gCXdRuqLdRuoAl3Ubqi3UbqAJd1G6ot1G6gCXdRuqLdRuoAl3Ubqi3UbqAJd1G6ot1G6gCXdRuqLdRuoAl3Uu6od1KG5FAHj3xi+Jdxb3kmh6ZM0IjH+kSoecn+EGvG3YyNuY7mPUnkmrev3T3eu6jLKSZGuZCc/wC8aobq/Q8Hh4UKSSWrP0TB4eFClFJask3H0o3H0qPd9aqaxdSWuk3s0IJljhd0HuFJFdrfU77jLnxRpNld/ZZ9RtYbjOPKaQBvyq499CsixGWMOyl1XIyVHU/SvF9D0XTp/hbZ6nLoza/eahG0t5cCQCRWOSzbj0xVP/hJ31vQdGGlySQRT+HrxknuAHmXy/l5PvgisPbdzn9t3PeFkV1BUhgemKdxXE/CD7T/AMK38PvdXTXMrWkbb2GCAV4Hviuy3VrGXMkzeMuZJku4V6H8L/iZdeH9RgsL6ZpdNmYJ85yYiehHtXnGaN23kdayrUYVoOE0ZVqMMRBwmj7N8wMAQcg9KN478Vz+h6lMvg+yvDFJcTC1V/LX7zHaOK8H8afErXda1CaKR5dMiibC2yZUj6+pr4ehg54io4Rex8Lh8DPEVHCL2PpZriNRlpFUe5FZuoeK9H0qMvc6jBGv++Cfyr5Sk17UZlIe/uGX0MhqqHa4cAF5XPbkmvWjk2vvzPWjkuvvTPefEvx302xVotJia+m6CR/lQf415D4l8Z6n4rujJf3DOmflhU4RfwqTR/AOu67Iot7CRVb/AJaSjaor1Lwj8D7XT5EuNZlF5IORCowg+vrXSlgsv1veX3s6VHBZfre7/E8/8C/Di/8AGVyshVrbTlPzzsOvsvrX0bo2kWug6bDZWcQigjGAB39zT7eCGzhWKCNYo1GAqjAqXzK8HGY2eKl2j2PBxmOninZ6R7ErNSbqi30bq808sl3Ubqi3UbqAJd1G6ot1G6gCXdRuqLdRuoAl3Ubqi3UbqAJd1G6ot1G6gDxj9oW6f7ZpMGT5Yjdx9cgV43enFnP/ANc2/lX0L8avC82u6HDe2yGSeyJYqo5KHrXz3KoljZG4DDBr84zqEo4xyezsfpuR1IzwShF6q9zxfwp4P0DUPgn9uvbWGK5W2nl+2fdkVgzEEN65xTP+E61j/hHfDkP9pTQXsmjpcyw2tt5szORwzZ4VSBXW2/wV0G3t1tjNfy2SsW+ySXLGI5OcEema0tY+Guk61q0d+WuLSVbcWjrayFFkiHRGx2rh9tTbd9T0PY1UrR0PPvDevar4q8WeBtauNQ+ym40e5nmiVRsOwgNn68fTFSaZ8SdXbxBoRGoTaha6leNbyj7NstwpDEeWx5J4rtrD4T6LpselRwtcqumiRIB5h/1cn3oz6r7VVtfgzoln9i23F8y2MwmtVaY7YCCeFHpzT9rR7C9lX7nB+D9W8QeF/AGn65FqKSaeuptb/wBnbBzG1wyn5uu7JzV3xd8TtW0nUry8stSkuoLbUUthbw22bdULqpDyH+Lk9O9dppvwg0HS5oDG129tDP8AaltJJi0Xm5zuK+uahvvgvoF8b1XlvFtrqc3RtkmIjWUndvA9c80/a0G7tfgHsq6ilF/ic/rHjrXLHxbfJd3z6XaxXaRWu6332ssZIB3uOVY8/pWXqXxY166m16/095/L0y8a2gsY7bfHMqEBtz9ief0rvLr4T6Te3Ukkt1etbyyrNNaecfLldcfMR65Ap958J9FvNQuLgNdQQ3MomuLSGUrDK4x8xX8BUe0odhunXfU4/wARfEDXrHxFeyT3j6RYxtD9lZrfzLd1YKWErDlTyRXs0cvmRo+QwZQQV6HiuJ1n4V6VrV9dTTTXaW926vcWaSkRSlcYyPwFdpHHtVI0XgAKqj8gKwqyhJLkR0UY1It87PX/AIEr9ut9cs5HdIGVGLK2CDyM5rG8aale+HdcktrDXri8ixncJCdn+ya734TeCjpnhWc36MsmoEO8ecEKOg/z61tN8L/DT5zYDJ77jX11PB16mCpwjpL1PjamOw1PHVJz1j6Jng03ijWLhfn1K5I/66Gsu5uLm6OZLmaQ/wC25Ne1698EdPuInfTJ5LWbsjnchryDXtBvvDd81rfQtE4Pyt/C49Qa8PF4XFYfWre3e59Fg8ZhMVpRST7W1Kml+H9R1mZo7K0kuXHXZ2+teieG/gRqF4yS6rOtpF1MSct+dcNoviC88P3qXVlM0Uqnn0PsR6V9HeDPGEHi7SUu4zsmX5Zo8/db/CurK8LhcTK1V3l2OXOMZjMJBOiko9+qLnhrwlpnhO18qxtwhP3pDyzfU1s7qjLU3dX3tOnClFRgrI/OalSdWTnUd2yXdRuqLdRurQyJd1G6ot1G6gCXdRuqLdRuoAl3Ubqi3UbqAJd1G6ot1G6gCXdRuqLdRuoAl3Ubqi3UbqAJd1G6ot1G6gCXdRuqLdRuoAl3Ubqi3UbqAJd1G6ot1G6gCXdRuqLdRuoAl3Ubqi3UbqAJd1G6ot1G6gCXdRuqLdRuoAl3Ubqi3UbqAJd1G6ot1G6gCXdRuqLdRuoAl3Ubqi3UbqAJd1G6ot1G6gCXdRuqLdRuoAl3Ubqi3UbqAJd1G6ot1G6gCXdRuqLdRuoAl3Ubqi3UbqAJd1G6ot1G6gCXdRuqLdRuoAl3Ubqi3UbqAJd1G6ot1G6gCXdRuqLdRuoAl3Ubqi3UbqAJd1G6ot1G6gCXdRuqLdRuoAl3Ubqi3UbqAJd1G6ot1G6gCXdRUW6igD+axjTaVqa1ADo5nhkSSJmjkRgyupwQR0Ir9vf2C/2kI/2gvgpafb7hW8VaAEsNTjJ+Z8D93N9HUfmpr8P6+gP2Hfj0/wABPjxpN/c3Bi0DVmXTtTUn5fLdvlc/7rYP0zQB+6W73o3e9QRzLJGrqwZGAZWHQg9DTt3vQBLu96N3vUW73o3e9AEu73o3e9Rbvejd70AS7vejd71Fu96N3vQBLu96N3vUW73o3e9AEu73o3e9Rbvejd70AS7vejd71Fu96N3vQBLu96N3vUW73o3e9AEu73o3e9Rbvejd70AS7vejd71Fu96N3vQBLu96N3vUW73o3e9AEu73o3e9Rbvejd70AS7vel3dOah3e9G73oA+cfit4Xl8OeKLmUIfsl4xlibHGTyR+dcZuFfWWuaLZeIrBrS/hWaI9MjkH1HpXluqfAMNcM1hqXlxk8JKmcfjX1uDzOn7NQrOzR9hgs0pezUKzs0eQbqRsMCDyD1r1P8A4UHqH/QVg/79mk/4UHf/APQUg/79mvS/tDC/zno/2jhf5z5tk+DmlmW4SDUdRtNNnkMkunQ3BELE9QB2B9K0NJ+F+i6Pb2MECy+TZ2s1nGjPkeXKcsD+dfQX/CgtQ/6CcH/fs0v/AAoPUP8AoKQf9+zWf1zB/wA6M/rmD/mR4r4V8OQeE9Dt9Ktpppre3G2MzNuYL2GfQVr5Fep/8KD1D/oKQf8Afs0f8KD1D/oJwf8AfBq1j8KtFM0WYYX+c8sz71reF/D8/ibWrext1LF2zI2OEXPJNehWvwCm83N1qieV3ESc/rXpnhXwfpvhC08qxi+dvvzNyzVy4jNKMIP2buzkxGaUYQapO7N6zhSztIYE4SNAg+gGKxde8D6L4lmWW+slkkX+NflJ+pFbO/3o3e9fHxqTi+aLsz46NWcZcydmczD8LPC8JyNLjY/7eTW3a+HdK07H2axt4sdNsYq3u96N3vVyr1ZfFJ/eVKvVlvJ/eTKQqgLgD6YpfM9DUG/3o3e9YmHUm3+9Ju96i3e9G73pAS7vejd71Fu96N3vQBLu96N3vUW73o3e9AEu73o3e9Rbvejd70AS7vejd71Fu96N3vQBLu96N3vUW73o3e9AEu73o3e9Rbvejd70ASlgwIPIPWvOfFnwZ0zXLl7qzkNhO5yyqPkJ+navQd3vSFulctfDUsTHlqxudWHxVbCy5qUrM8VPwBve2pQ/ippP+FA3w/5iUP8A3ya9ht9asrzUbuwhuo5b2zCG4hU/NEHBK5+oB/Krm6vL/sTBvo/vPX/tzGr7X4Hif/Cg7/8A6CUP/fJpP+FBah/0EYf++DXt26k30v7EwfZ/eH9u47fmX3HiX/Cg9R/6CUP/AHyaP+FB6h/0EYf++DXsNjrdlqdxeW9rdRzzWUvk3CIcmJ8A7W98EH8aub+2aX9iYLs/vH/buO/mX3HiX/Cg9Q/6CMP/AHyaP+FB3/8A0EYf++TXtu73pN1P+xMH2f3i/t3G/wA34Hii/AO+zzqMOPZTXXeEvg7pnh+5S6upDf3CcqHHyKfXFd1PdRWdvLPPIsUMSGR3boqgZJP0ApljqFvqVnDd2sy3FtMokjlT7rKehFbUspwlGXNGN2Y1c3xlaPLKWnkXAeABwKM+9Rb/AHpN3vXs6LY8W/cm3e9YPjLwpa+LtGltJ1AlA3RSY5Vu1bG73o31nUpxqxcJLRmlOpKlNTg7NHyfqNlPo+pT2NypSeFijA10vw18UN4Z8SQsz4tLgiKZe3J4P4Gui+O2gC3vrTWIhgTDypMD+IdD+VeWhjjKnBr81rU5YDFNR6PT0P1KjUhmWDTl9pWfqfYKyblBByMZFG73rmfAGtf254T0+5Zsv5ex/wDeXiug3e9fpFGaqU1NdT8uq03SnKm+jJd3vRu96i3e9G73rYxJd3vRu96i3e9G73oAl3e9G73qLd70bvegCXd70bveot3vRu96AJd3vRu96i3e9G73oAl3e9G73qLd70bvegCXd70bveot3vRu96AJd3vRu96i3e9G73oAl3e9G73qLf70ob3oGSbvejd71Gze9Ju96AJd3vRu96i3e9G73oES7vejd71Fu96N3vQBLu96N3vUW73o3e9AEu73o3e9Rbvel3e9AEu73o3VFv8Aejf70DJN3vRu96i3e9G73oES7vejd71Fu96N3vQBLu96N3vUW73o3e9AEu73o3e9Rbvejd70AS7vejd71Fu96N3vQBLu96N3vUW73o3e9AEu73o3e9Rbvejd70AS7vejd71Fu96N3vQBLu96N3vUW73o3e9AEu73o3e9Rbvejd70AS7vejd71Fu96N3vQBLu96N3vUW73o3e9AEu73o3e9Rbvejd70AS7vejd71Fu96N3vQBLu96N3vUW73o3e9AEu73o3e9Rbvejd70AS7vejd71Fu96N3vQBLu96N3vUW73o3e9AEu73o3e9Rbvejd70AS7vejd71Fu96N3vQBLu96Ki3e9FAH82rVHIaeWpjEd6AI9x9aXkr1pDjtSUAftn/wT1+Oz/Gj9n3TbfUbgTeIPDhGl3hY5aRFH7mQ/VMA+6mvpvdX41f8EzvjCfhz+0La6DdT+XpXiqP+z3VjhRcD5oT9Scr/AMCr9kNx696AJd1G6ot1G6gCXdRuqLdRuoAl3Ubqi3UbqAJd1G6ot1G6gCXdRuqLdRuoAl3Ubqi3UbqAJd1G6ot1G6gCXdRuqLdRuoAl3Ubqi3UbqAJd1G6ot1G6gCXdRuqLdRuoAl3Ubqi3UbqAJd1G6ot1G6gCfcMe9JuqHdRuoGS7qN1R7qN1AiXd9KTdUe6jdQBLv+hpN1R7jSbqAJd1G6ot1G6gCXdRuqLdRuNAEu6jdUeTSbqAJd1G6o1y1K2VoAfuo3VFuo3UAS7qN1RbqN1AEu6jdUW6jdQBLuo3VFuo3UAS7qN1RbqN1AEu6jdUW6jdQBLupzN81QbqNxoA8Rj0zxRrHxs+IMPh3VoNFi8rT2nuZIRK7MI32IAeg5JJ+lWofid4j1L4ezs99puja3p+ryaRqWoXH+qXy25kjXuSMcfWtbUvhz4otfHWv+JfDuvwafLqiQRNb3EHmJtjQjcR/eBPH1NZ938C7iDw3pMGn6srazZahJqk11exCSO6uJM7y6enPHpisNT1ualK3M10/LW5n+A/ivfweLNY0y88QR+KtOttIk1RbpbYwOjRsAye4INaXhm4+Jeu6bpPimLV7GWC+dJm0VoQqJbsegk67gpzU/h74S6vB4xk1zXNVttQW50ybTZ7W3txDGiOQRsA+hzn1qLT/hV4rtLGy8Pt4rA8L2kqMixw7bpolbKxGQduAKXvdRylR15bX0/4JyOmfEK60H4jePvDujiNfEGs+IVSCe5H7iBfs6ZZvU8HC9zXS/FD4l6p4f8AEmm+FrbWf7MkFl9rvNVFmZpGO7aFVFGBk5Oa0rr4LpqUPjYXF2qXGtaiuo2N1EuJLSRI1VGz6hlz+NSax8OfEN9eaN4gtNYtrXxVbWf2K7leDfb3SZzyp6HIz+NOzDnoNxb7a+tjlrH4za/H8O/GFwJVv9S0R4Da6hJatCl0kjADKHuOQce1b9vrHjXwn4z8Lx65rNrqmn69K8EltHbiP7K/llxsPccEc1Nc/CvWdU8F+IdO1TXFvdU1eWKQyeXsggCMpCog6Dg11PifwfLr2teE71LhIl0W8Ny6sM+YDGyYH/fVOzJlOjfRLr+X+Z5nc6943+IHhHxP4l03U7W10VVvLe20iSHPnQxh0Ys/UMcEjHtXp3wnbHwx8K46f2bB/wCgCuKuPhF4hsbfW9F0PxGmn+GdUeaRrZoA0sJlzvRH7KST9M16L4O0V/DPhPSNJkcSyWVrHAXUYDFVAzTincyryg6doNb/AKdTc3Um6oyxpN1annku6lDVDuo3GgDmfinpf9reCNRQDdJCvnJ7FeT+ma+cI2+WvrC+hF5ZTwMMrLGyN+IxXyfJG1tdSwtwY2KH8Divis+ppVIVO+h93w7VbhOl2dz2j4D6r5mm6jYM3MUglUezDB/UV6nur59+DuqfYPFyxE4W5jaM/Ucivfd1e1k9X2mFS7aHhZ1R9ni5P+bUk3Ubqi3Ubq9s8El3Ubqi3UbqAJd1G6ot1G6gCXdRuqLdRuoAl3Ubqi3UbqAJd1G6ot1G6gCXdRuqLdRuoAl3Ubqi3UbqAJd1LuqHdS7qAJd1G7PpUW41zHjL4iaZ4OjCXD+ZdsuVt4/vfj6VFSpGlFym7I1p051pKFNXbOsyaTd+FfOOu/GzX9TZhayJp8PYRjLfia5aXxhrVw5aTVblif8Apoa8CpndCLtFNn0dPh/EzV5tI+t91VNX1mz0HTpr/ULiO0tIRmSaQ4VRnFeffCPxNr+tWhj1K3L2ca4ju5OGb2x3+tS/tAK0nwp1bEbShZIGZUQsdomQngdeAa9ejiFXpe1gjxK2FeHrOjN39DrtB8aaJ4oaVdL1K3vXiGXSNvmUepHXFatzeQ2cYknlSGMsF3SHAyTgD8TXzv4x8TWd94jk8QeD7S78vSdDvBe3VnbNGXLhREiggbmBy3TjFcN9s1DX/D+u2d5qGp3FjaXmk30DLLM5wZNsxDEZYDIJA4Bo9vbdFLDc2zPsK4uI7W3knmdY4o1LuzdAoGSaLW8jvrWG4gkWSCZQ8cinIZSMgj8K+SdW8YavdeKJjbXWptBdXN9ZXFtO0r/uvJcRgpjaoJC4PU5pdF8R33hvwiJNF1HX76JfDYOpxuH32tzlFTZuHykAtwOwzS+sLsL6q7bn11+IoB+hr5Bj8T65Jo2r2C65f29jHqtq8cjtOyvC0TFk87G5VLgcjuMUav4y8U6hY6Mr3mqaZYLpLyWUskkgea6EzryVGXO0JtDdQaPrC7D+qy7n1nqur2mi2Mt9f3MVpaRDLyyttUfjVDw74y0bxYJf7Kv4bxoceYiH5lz0JB5wa84+KUd7c+B/Bd/qlvJe29jf2d3rEEUZYsgX52KDqA5BI9q5vxx4ws9UttVv/BthcwIEtLe/16zgZGFu048xUGMllTJyBxmrdWzM40eZH0Jk0butfM9i2ra9q1no2nazrTeFJPEHk2995jrNJB9lLSLvPOzzMYJrmtc8TeI9N0WwN5qurP8A2d9uihgDSRzXHl3TLGwcD532BRhuope38h/V/M+uIbyG4eVIpUkeJtsiqclT1wfQ806adYIXlkYKiAszHsB3r5cj03Urjx1LYWmoa1p/9q+KI3vTG7hhbtYu/XoAWGMjpVG+8Za1B4yV7S81VUkvbuzuIJ3lciMROI8pjao3AYPU5pOvpew/qzbtc+r7W7ivbeK4gcSQyKHR16EHoafLMsMTySMqRoCzMxwAB1Jr5bH/AAk1zpOr6wNT1iC40fTtHks7WNnWN5GRPNyv8WeQRTLrVtW1Lxh4l0ya+1S+OoRanEY4XkQQIsTGNWQjAAIAVlPOaft/IPq394+pobhLiFZYnWSJgGV1OQQe4p276V8kaXrl/o2oeGPs+parc28drp0UNgrypIpPEhAI2yAkndnpivrPd8orWnUU+hjVpez6km6jdUZY0m6tTAl3Ubqi3UbqAJd1G6ot1G6gCXdRuqLdRuoAl3Ubqi3UbqAJd1G6ot1G6gCXdRuqLdRuoAl3Ubqi3UbqAJd1G6ot1G6gCXdRuqLdRuoAl3Ubqi3UbqAJd1G6ot1G6gCXdRuqLdRuoAl3Ubqi3UbqAJd1G6ot1G6gCXdRUW6igD+bxutMcd6eaiZtxoASjdSNSCgC3pWrXWh6pZ6jYytb3tnMlxBKpwUkRgykfQgV/QT8G/iJB8V/hb4X8W2+Nuq2EU7qP4ZNuHX8GDCv57Dt4zxX6xf8EpfiV/wknwa1rwnNJvuPD99viUnkQzAsPw3K1AH3Huo3VFuo3UAS7qN1RbqN1AEu6jdUW6jdQBLuo3VFuo3UAS7qN1RbqN1AEu6jdUW6jdQBLuo3VFuo3UAS7qN1RbqN1AEu6jdUW6jdQBLuo3VFuo3UAS7qN1RbqN1AEu6jdUW6jdQBLuo3VFuo3UAS7qN1RbqN1AEu6jdUW6jdQBLuo3VFuo3UAS7qN1RbqN1AEu6jdUW6jdQBLupVfb2qHdRuoAnaTd2pu6ot1G6gCZX29qVpN3aoN1G6gCXdRuqLdRuoAl3Ubqi3UbqAJd1G6ot1G6gCXdRuqLdRuoAl3Ubqi3UbqAJd1G6ot1G6gCXdRuqLdRuoAm3Ubqh3UbqAJt1G72qHdRuoAm30bqh3UbqAJt3tSFs9qi3UbqAJt3tRuqHdRuoAm3Um6ot1G6gCXdRuqLdRuoAmDdPrXy94ygFl4v1WIDAFwxH4nNfTm6vm/wCKcPk+OtS4wGZW/MCvmM+j+4jLsz6rh2bWIlHujL0XUm0jV7S8QcwyK5+mea+pba4W6topozuSRQ6kdwRmvkrDeWrEfK3Q+vrXtvwh8YLqGlDSbh8XVqMR7j95O35VwZLiFTqOlL7R6WfYZ1KarRXw7npmaTdTN3503dX2x8IS7qN1RbqN1AiXdS7qizVK+1yx0z/j6u4oD6O4BpOSjqylFydkjR3UbqwP+E30P/oJW/8A33S/8Jtof/QSt/8AvqsvbU/5l95r7Cr/ACv7je3UuawP+E20P/oJW/8A31R/wnGh/wDQTt/++qarUv5l94ewq/yv7jf3Um6sH/hOND/6Cdv/AN9Uf8Jxof8A0E7f/vqj21L+ZfeHsKv8r+43t1G6sJfGmiOwUanbknp84rUt7qK6jEkMiyIejIciqjUhL4XcmVOcVeSaLO6jdUe72pN1WZE26l3e1Q7qN+0ZPAouMxfG3iyLwfoM19JhpcbYY8/ec9K+aWfUPFut5Ia6vruT/P0ArpPi94vHiTxEbe3k3WVnlEIPDN/E1dt8EPCAtbF9cuY/38/ywZ/hTufxr43EzlmWKWHg/dR9zg4xyrBvFVF78tv0L3hT4Jabp8CS6p/ptyeSmcIPb3rtIPB+h2qhYtLt1H+4K1S3tikVttfS0cFQox5YRR8pXx2Jry5pzY6GNII1jjjVEUYCqMAU9mVlKsoYHqDzTPMG3FM3V2WSVkcN2x6xxqpVY1VT1CqADSrawKu0QxgYxgKKj3UokIo5UF2KbaFWYiGPLck7RzQsMShgIkG772FHP1pu6jdRZBdim3gK7fIj24xt2DH5UvkwlVBhQheVBUcfT0pu6jdRZBdkpwy4IyO+eaYsUccZjWNFjPVQoANN3UbqLILsekccaqqxqqryAoAApskMUmN8Mb7TkblBwaTdRuosguyTam7d5a7v72OaZ5EO4t5Me4nJO0ZJpN1G6iyC7JMJ02L78Ck8qLe0giQSNwW2jJpm6l3DGcUwuw+zw7lbyY9y/dbaMj6VLu9qh3UbqBE272pN1R7qTdQBLuo3VFuo3UAS7qN1RbqN1AEu6jdUW6jdQBLuo3VFuo3UAS7qN1RbqN1AEu6jdUW6jdQBLuo3VFuo3UAS7qN1RbqN1AEu6jdUW6jdQBLuo3VFuo3UAS7qN1RbqN1AEu6jdUW6jdQBLuo3VFuo3UAS7qN1RbqN1AEu6iot1FAH84jUxqe1JQAwjNNpW4NJQAV9g/8ABLv4jHwj+0b/AGBM+208TafLaYJ486P97GfrhHH418fV3PwL8Xv4C+MXgzxAjlDYatbysw/u+YA4/FS1AH9Ae6jdUSzLModDlGAZSO4PIo3UAS7qN1RbqN1AEu6jdUW6jdQBLuo3VFuo3UAS7qN1RbqN1AEu6jdUW6jdQBLuo3VFuo3UAS7qN1RbqN1AEu6jdUW6jdQBLuo3VFuo3UAS7qN1RbqN1AEu6jdUW6jdQBLuo3VFuo3UAS7qN1RbqN1AEu6jdUW6jdQBLuo3VFuo3UAS7qN1RbqN1AEu6jdUW6jdQBLuo3VFuo3UAS7qN1RbqN1AEu6jdUW6jdQBLuo3VFuo3UAS7qN1RbqN1AEu6jdUW6jdQBLuo3VFuo3UAS7qN1RbqN1AEu6jdUW6jdQBLuo3VFuo3UAS7qN1RbqN1AEu6jdUW6jdQBLuo3VFuo3UAS7qN1RbqN1AEu6jdUW6jdQBLuo3VFuo3UAS7qN1RbqN1AE26vn34yDy/G9wf78SH9K99Dda8G+Ny7fGEbf3rdf5mvAzuP8AsnzR9HkLtjPkyx4P8Jjxd4DvBCB9utbkmJj3yoJX8a46Ga70PUt6NJa3du/0KkV6n8B5f+JLqa/9PA/9BFdH4y+H9h4sXzQPs98Okyjr7H1ryo4B18LTrUdJJfeevLMVh8XUoV9YN/cY/hX4yWd5CsOrj7NcdPNUfK3v7V3tnrVjqChra8imz2VxmvnvXPh3rWhyPutWuYVPEkI3fpXPbri0k+9NC4+qmrp5piMMuSvC9jOplOGxXv4epa/zPrDdnoc07d1r5Zs/EmqafcRzQX06yIcj5yR+Ve++B9e1LXdJWfUrQ2snRW6eYPXHavYweZQxcuRRaZ4uNyueCjzuSaM/4neO28LWKW1o3/EwuBlT/wA81/vV4Vc3095M0txK80jHJZ2yTXU/Fy4kk8b3YcnakcaqPbGf61xu6vl8zxNSrXlC+iPrcpwtOjh4zS96Wo/aB2NDSCPcWOFUZJPambs1zfxKjjn8GajFLefYFlVY/PbOASwwDjsen4146XM0j2pPlTdjfs9UtdQ3G2uYrgLwfKcNj8qIdWs7i4aCO7hknX70ayAsPwzXhesXF14Sj1BYdOh03VpNJm+zzaXKWjkVcZYr2YDkGrfiqx8MeH/B+kXOjTRx67vt5bGaF8zXDF0DZP8AFkE5Brq9hbqcv1jTY9vjnjmBKOrgHB2nOD6VJkV5/wDC29X7DrSyyqJP7XuRtZhn7wru931rCcXCVjeE1ONyXd6Vu+FfGV/4Wvklild7fP7yFjlWH+Nc7u+tG6nTqzpSUoOzCpShVi4TV0z6r0nVItY0+C8gbdDMgdfx7Vb3V5Z8P4YdT+HDxXty9pBFNIVnV9hQDnOfzryrV9evbXUbmGz1i6ubZH2pL5hG4etfcTzL2VKFScb8yPgaeUuvWqUoStyvsfT99q1npsLS3dzHBGvVnYCvKPiJ8YIJ7GbTtEkZnkG2S6HAA9FryC6v7i7bM88kp/22JqAZrxsTnE60XCkrHv4XIadGanWlzW+46PwP4SuPF+sx26hlt1IaeT+6vp9TX09Z28VjbRQQrsijUKqjsBXybp+vajpKslldy2ytyRG2M1c/4TbXv+grdf8Afw1lgMdRwcXeLcma5ll9fHTVpJRWyPqstQHr5U/4TbXv+grdf9/DSjxtr3/QVuv+/hr1/wC3KX8jPF/1erfzo+qt1VdS1iy0WzNzqF1DZW4ODLcOEUE9smuB+FPizWtetzFf2zPbxrhbw8bj6e9dzqOn2mrWrW97bR3UJ5McyhlyPavao1lXpqpA+er4eWHqOlPp2ItJ8WaNr0rxabqtpfyINzJbzK5A9SAa1Nw9a+ZvA1pd6f8ADfwNb6LN/Yl5qut3FpdXlvEPNMPmzHGSP9kYqO/+K2u2fxAtIbfWpmsG1S406WCd1yFSF8EoB8vzqMMTzn3p+2stUV7DmbUWfT26k3V82/8ACVeLdH8P6Tdy+Jp3uNY8Pz3jSXUeY7aZXiCsABwMSEH86pW/xU1j+z/7IbWrpb0X/lteNcoYdvk79ouMdM84xntR9Yit0Cw0pbM+n91QPqFvHLHG08aySMURS4yzAZIHvjnFfMmg/FLWPEGmaeda8VzaDFDpUlwt1CgzdXCzsm0gj5iFC/KOTuqLT/EmseHZNUmsr6fVNR/tu8l+zzpluLPehC9V3H+VL6wuiD6q72ufU+4etLuFfMGpeP8AxBa6ZFHoviu41V72ws57m62hvsc8lzEhUYHGQ7/KemK0/F3ifxP4fm1DQ4/E0v8Ao+rQotzeMInmia3MjRiXGFO7kZ9MU/bLsL6u+59FNIFUljgAZJJqp/blh5dpJ9sgCXbbbdjIAJiegX1/CvKb/wAW32rfs8XerRTXEl5JZsjTTAB8b9jNxx0ycjr1rhfi1p+teKNYisPC2nNdxeDdPhuLeSObYsV5hZFwP4sRrjH+1RKs0tETGjd2Z9E614q0jw2sX9qalbWHm8J9olClvoDUk3iHTLdA8t/bophNwC0qgeWMZfr93kc+9eGaD4w8Ma3401LXvFTwR22paTazaYdQX92ISp85FzxuD9R16Vx3jSSykt1bS7O6sdK/4Q688iG4yWEf2qPH4EcgelEqzSukUqCvZs+nbLxhompW9xPaavZ3MNuu+V4Z1YRr6tg8CtVZBIqsDuXGQQcg+9eCxf8ACL69498LW3hlLW4zY3Cau1kP3X2dosbZCOMlug69a7z4G6jPqXwr0GW5dpGWJokkbq8aOyofxUCrhU5nZoxnTUVe53+6jdUW+k3fWtjEm3Um6ot9G6gCXdRuqLdRuoAl3Ubqi3UbqAJd1G6ot1G6gCXdRuqLdRuoAl3Ubqi3UbqAJd1G6ot1G6gCXdRuqLdRuoAl3Ubqi3UbqAJd1G6ot1G6gCXdRuqLdRuoAl3Ubqi3UbqAJd1G6ot1G6gCXdRuqLdRuoAl3Ubqi3UbqAJd1FRbqKAP5z6bT6aaAGsPlqOpttRsuKAG0qSNCyyIcOh3L9RSUUAf0AfBnxKPF3wl8HayG3fbNJtpSQc8+Wuf1zXZbvevnz9g3xB/wkH7KXgWQvue1gls2z/0zlZR+mK9+3e9AEu73o3e9Rbvejd70AS7vejd71Fu96N3vQBLu96N3vUW73o3e9AEu73o3e9Rbvejd70AS7vejd71Fu96N3vQBLu96N3vUW73o3e9AEu73o3e9Rbvejd70AS7vejd71Fu96N3vQBLu96N3vUW73o3e9AEu73o3e9Rbvejd70AS7vejd71Fu96N3vQBLu96N3vUW73o3e9AEu73o3e9Rbvejd70AS7vejd71Fu96N3vQBLu96N3vUW73o3e9AEu73o3e9Rbvejd70AS7vejd71Fu96N3vQBLu96N3vUW73o3e9AEu73o3e9Rbvejd70AS7vejd71Fu96N3vQBLu96N3vUW73o3e9AEu73o3e9Rbvejd70AS7vejd71Fu96N3vQBLu96N3vUW73o3e9AEu73o3e9Rbvejd70AS7vejd71Fu96N3vQBLu96N3vUW73o3e9AEu73o3e9Rbvejd70AS7vejd71Fu96N3vQBLu96N3vUW73o3e9AEu73o3e9Rbvejd70AS7vejd71Fu96N3vQBLu96N3vUW73o3e9AEu73o3e9Rbvejd70ATbsV4d8cuPFFofW2H/oRr2zfnvXinx1+XxBYN625/Rq8XONcJL5HvZI7YyPzNz4Cyf8AEv1dc/8ALVD+lep7vevIfgNJhdYXPGYz/OvW93FXlOuEgZ5wrY2fy/IkLBuDVS40mwvM+fawyZ67kBqXd70u/wBa9VxjLdXPIUpR1TsZq+FNGjlWRdPgDqcg7BWuMKuBwPSo93HWk34zzUxpwj8KsOVSc/idzzD4yeE5bpotZtUaQqvlzqvXA6NXkW4/jX1W22RSrAMp4IIrjtY+Fuh6tM0wje0kY5JhOB+VfN4/Kp1qjq0nq90fUZdnEcPTVGstFszwbNQX9nBqVpJbXMSzQSDDxuMgivbf+FKaV/z+3P6f4Un/AApXSv8An9uf0/wryf7Hxfb8T2v7bwb0u/uPn7SPBejaHI8lpZIsjrsLN83y/wB3ntVCT4W+GGuFnGmRrMjh42XI8tgc5X05FfSB+Cmlf8/lz+Yo/wCFJ6V/z+3P5j/CrWV42+34mf8Aa+B/pHzx/wAIDoP25rwafGLhpPNLgkZfrn610St717L/AMKT0v8A5/bn8x/hR/wpPS/+fy4/Mf4UnlOMe6/EqOc4NfC/wPG+Kn0+xuNUvI7a2jaWaQ4CivXk+CukqwLXdyw9Mj/Cut8P+EdL8Nx4soFV8cyNyx/GtKWTV5S/eaIyrZ7h4x/dJtkei+EbOz8M2ulXMSzxxjc4boWPJNMl+H3h+ZGQ6bCA3HAwa3/Mo8z3r676tS5VFxvY+LeKrczkpNNu+h4j8RfhkPDsJ1DTiz2WcPGeTH7/AErz1WX7pGCK+qNQtY9SsZ7aUBo5VKEEeor5b1azbTtQubduGhlaP8jXx+a4OOHmqlNWTPuclx88VB06jvKP5HUfD7WrDTdWS21O2ims7g7d7qCY27H6V7knhXRtoP8AZ1sQechBXy+shb8K+gPhd4qGv6CsEr5urX924PUr2NdGT1oSfsaiT7HLnmHqQSxFOTS6nRf8Ipo3bTrf/v2KT/hFdH/6B1v/AN+xWlu96A3vX1nsaf8AKj4729X+d/eFvDHaxrHCojjUYCqMAVKD15qHfijzPetUklZGF23diLZ20SxokEarGSyKFGFPPI9OpqBtD01pnmNjbmVyGdzEMsR0JNWd3vSbqOVBdoZJp9rLGI2t42RUMYVkGAp6j6cVX/4R3SVt1t1061ECtvEflDaG9cY61b3+9Ab3o5V2C77lVtC0yRYw9jbMI33oDEPlY9SOOKmXTbRZmmFvCJmOWk2DcTjGc/Spd3HWk3+9HKgu+5Xt9F061WRYbK3iWRgzhYwNxByCePWnXek2N/G6XNrBcI5DMJEDZI6E1Lu96N3vRZdhXZFcaXaXelzac8KfY5IjC0KrhdpGCMUzRtHttD02GzgyyxxrGXfl3wNoLHucAVY30vmUWQ+ZlW40HTLqGKOextpY4T+7V4gQn0GOKmk0+1m/1lvE/wAnl/MgPy/3fp7VJvK8UeZ70uVB8yjN4dsH0+7s7eCOxW6jaJ3tkEbYIwSCO9WdJ0u20XS7TT7KMQ2lrEsUca9FUDAqXzKPM4607JCuyTd70bveot3vRu96YiXd70bveot3vRu96AJd3vRu96i3e9G73oAl3e9G73qLd70bvegCXd70bveot3vRu96AJd3vRu96i3e9G73oAl3e9G73qLd70bvegCXd70bveot3vRu96AJd3vRu96i3e9G73oAl3e9G73qLd70bvegCXd70bveot3vRu96AJd3vRu96i3e9G73oAl3e9G73qLd70bvegCXd70bveot3vRu96AJd3vRu96i3e9G73oAl3e9G73qLd70bvegCXd70VFu96KAP55fsD0hsX9K7k6CR2ph0I+lAHEfYX9KY1k+OldwdD9qibQz/AHeKAOHazb+7TTat6Yrs20P/AGajOi7f4c0AfqB/wTE1D7V+zGtuX3NZ61dxFfQHY4/9Cr6y3e9fHP8AwTEfyfgt4kthwY9ed/8AvqCL/CvsLdQBJu96N3vUW6jdQBLu96N3vUW6jdQBLu96N3vUW6jdQBLu96N3vUW6jdQBLu96N3vUW6jdQBLu96N3vUW6jdQBLu96N3vUW6jdQBLu96N3vUW6jdQBLu96N3vUW6jdQBLu96N3vUW6jdQBLu96N3vUW6jdQBLu96N3vUW6jdQBLu96N3vUW6jdQBLu96N3vUW6jdQBLu96N3vUW6jdQBLu96N3vUW6jdQBLu96N3vUW6jdQBLu96N3vUW6jdQBLu96N3vUW6jdQBLu96N3vUW6jdQBLu96N3vUW6jdQBLu96N3vUW6jdQBLu96N3vUW6jdQBLu96N3vUW6jdQBLu96N3vUW6jdQBLu96N3vUW6jdQBLu96N3vUW6jdQBLu96N3vUW6jdQBLu96N3vUW6jdQBLu96N3vUW6jdQBLu96N3vUW6jdQBLu96N3vUW6jdQBLu96N3vUW6jdQBLu96N3vUW6jdQBMre9eO/HiP8A4mOkyesUi/qK9f3dK8o+PEZ+z6RL6PIv5gH+leTmqvhJns5Q7YyBB8CZv9O1WPP8CH9TXsW/t3rw74GzbPEV7Hn79vn8jXtu6scmd8JH1ZrnatjZeiJA3vSM1R7uaC1e6eES7v8AOaQMM8niotxpN1IRMzDsaTd71Fuo3UAS7velDf7VQ7qN1AExb3pN3vUW40u6gCUN70u73qHcaNxoGTbqbu96j3Gk3UCJd3vRu96i3UbqAJtx9a+d/ihZiz8aakBwsjLIPxUGvoLdXh3xmhC+LFfpvtkP868DOo3wyfZn0mQy5cXbujhrGGS7u44IuZJDtUep9K2vDPiO58J6yl1HkFTsljPG5e4NYWl3ZtNUtJx1jmR/yYV7N41+GK66DqOmFYrl13NGeFfjr7Gvl8Lh6lSLqUfiifX43E0qUo0q/wAM0dr4f8Yab4ktVktLhfM/iiY4ZT9K2N5r5hvNG1XQbgiW3ntpFP3lBH6ipIvGWtW+FXUbgAf7Zr6CGcOC5a0Hc+aqZGqj5qFRNH03uqK6vIbOB5riaOCFeWkkYKo/GuB+GvjDVNfjMF7bM8aLxedAfY+pp3x03v8ACvXVRSzFE4Xr/rFr3aWIjWpe1jsfO1sNKhW9jPc9ADbuc8e1RSXkMM8UEk0aTTZ8uNmAZ8DJwO+BXg/9v+JbbVrjVl1W6lji8UjS4tPIHlG3K9Onr3rjrzxjrLXnhzX4dUuNU8RJp+qTy6ay5W0l8sAKABxjpg9cU/b6bDWGbe59X7vek3e9fL9t8QPFtvo+sSwas11NDb2k9lCsv2hpbpmI8kkKAFcdV6jFLdfELxPdaToIOrSwm6s7m6vJpJPs3k3SvgwZ2nhOgXvjNT9YjvYr6rLufUG73pu73r5qi+Inie31rRLrVNSeVXFjHLbWT7GVnwGJiZf3itnOR0r6RD57VtCoqmxz1Kbp2uyTd70bveot1G6tTAl3e9G73qLdRuoAm5pN3vUe80m6gCXd70bveot1G6gCXd70bveot1G6gCXd70bveot1G6gCXd70bveot1G6gCXd70bveot1G6gCXd70bveot1G6gCXd70bveot1G6gCXd70bveot1G6gCXd70bveot1G6gCXd70bveot1G6gCXd70bveot1G6gCXd70bveot1G6gCXd70bveot1G6gCXd70bveot1G6gCXd70bveot1G6gCXd70bveot1G6gCXd70bveot1G6gCXd70VFuooA/GdtJHpUTaUP7tdE6D0qrIwWgVzDbSx/dqJtLH92teSQCq7SCgLmPLpo9KqTWAH8NbkjCqzlaAPun/AIJtw/Z/ht4sGODq6/8Aola+vN1fKn/BPOBY/hPr8qjHma04z9IY/wDE19TbvagZLuo3VFuo3UAS7qN1RbqN1AEu6jdUW6jdQBLuo3VFuo3UAS7qN1RbqN1AEu6jdUW6jdQBLuo3VFuo3UAS7qN1RbqN1AEu6jdUW6jdQBLuo3VFuo3UAS7qN1RbqN1AEu6jdUW6jdQBLuo3VFuo3UAS7qN1RbqN1AEu6jdUW6jdQBLuo3VFuo3UAS7qN1RbqN1AEu6jdUW6jdQBLuo3VFuo3UAS7qN1RbqN1AEu6jdUW6jdQBLuo3VFuo3UAS7qN1RbqN1AEu6jdUW6jdQBLuo3VFuo3UAS7qN1RbqN1AEu6jdUW6jdQBLuo3VFuo3UAS7qN1RbqN1AEu6jdUW6jdQBLuo3VFuo3UAS7qN1RbqN1AEu6jdUW6jdQBLuo3VFuo3UAS7q85+OEBk8NWcwH+ruRn8VIr0ENXM/ErTTq3g2/jQZeNRKv/ATn+Wa4sbD2mHnHyO7A1FTxNOT7nl3wfvPs/jKNTwJomT+v9K983V8u+FtUGj+IbC8PCxyjd/ung19NxzLNGrqQVYAgj0ryMkqXoyp9me3n9O1eNTo1+RMDS7qhDUu7tivpD5cl3Ubqi3UbqAJd1G6ot1G6gRLuo3VFuo3UAS7qN1RbqN1AEu6jdUW6jdQBLuo3VFuo3UAS7qN1RbqN1AEu6vFPjY27xLbf9ew/ma9m3V4p8aH/wCKmtx6Wy/+hGvFzf8A3V/I9/JP98j6M84LbT0r6g8J6gNS8N6dPnO6Bc/UDFfL03DcV7Z8FteW80KXT2b97atkL32n/wCvXg5NUUK7g+qPo8+ouph1NfZf5npM0Mcy7ZI1cf7QzWbL4X0mZiz6fASevyCtASUm6vtJU4S3Vz4GNScPhbQWttDZRCOCNYo16KowKfIiTxlJEV0bqrDINN3UbqvlSVkQ5Nu7Yn2WDp5Cfe3/AHR971+tRR6XZRTPKlpCsjklnCDJz1qbdRuo5V2HzPuQwaTY2q4hs4Yhu34VAPm9frRPpNjdJsls4ZF3b8MgI3ev1qbdRupcq7BzPuQvpdlJcRzvaQtNGMJIUG5foat7884qLdRup2tsK7e5Luo3VFuo3UxEu6jdUW6jdQBLuo3VFuo3UAS7qN1RbqN1AEu6jdUW6jdQBLuo3VFuo3UAS7qN1RbqN1AEu6jdUW6jdQBLuo3VFuo3UAS7qN1RbqN1AEu6jdUW6jdQBLuo3VFuo3UAS7qN1RbqN1AEu6jdUW6jdQBLuo3VFuo3UAS7qN1RbqN1AEu6jdUW6jdQBLuo3VFuo3UAS7qN1RbqN1AEu6jdUW6jdQBLuoqLdRQB+Q80w7VnXE/Wq8mobu9Ubi8z3oJJZrvFVjeVSmnLE1GGNAF5rjNR+ZuzUFKpI5FAH6Q/sG2YtfgLHLtwbnU7mXPrjav/ALLX0Vurxv8AZK0o6L+z74RiK7Xmhe5b/gcjNn8iK9f3UFEu6jdUW6jdQBLuo3VFuo3UAS7qN1RbqN1AEu6jdUW6jdQBLuo3VFuo3UAS7qN1RbqN1AEu6jdUW6jdQBLuo3VFuo3UAS7qN1RbqN1AEu6jdUW6jdQBLuo3VFuo3UAS7qN1RbqN1AEu6jdUW6jdQBLuo3VFuo3UAS7qN1RbqN1AEu6jdUW6jdQBLuo3VFuo3UAS7qN1RbqN1AEu6jdUW6jdQBLuo3VFuo3UAS7qN1RbqN1AEu6jdUW6jdQBLuo3VFuo3UAS7qN1RbqN1AEu6jdUW6jdQBLuo3VFuo3UAS7qN1RbqN1AEu6jdUW6jdQBLuo3VFuo3UAS7qN1RbqN1AEu6jdUW6jdQBLuo3VFuo3UAS7qN1RbqN1AEu6jdUW6jdQBLupkiJNG8bjKMCpH1pu+jdQ1fQe2p84eM/D8nhnxBcWrIfJYlom7FTXo/wALvH0VxZx6VqEwS4iG2GSQ8Ovpn1FdL408IweLtPMbny7mPmGb0Pp9K8G1rQb/AMO3hiu4XiYHhx91vcGvja1OrluIdWmrxZ9vQqUc2wyoVHaaPqAMD05pd1fO+h/E3W9DCxrP9qgH/LOfn8jXoOh/GTTb7Yl9E9lKeC33kr2qGaYeto3Z+Z4eIyjE0btLmXkej7qN1U7PUINQhEttMs0bdGRsip91eumpK6PEacXZku6jdUW6jdTES7qN1RbqN1AEu6jdUW6jdQBLuo3VFuo3UAS7qN1RbqN1AEu6jdUW6jdQBLurxL4yNu8WRj0tk/m1ez768Q+MEm7xcfa3jH868XN/91fqe/kn+9r0ZzOj6NJr1xLawcziJpI1/vEc4/nTfDfiC68J6xHdwqQ8Z2SRnjcO4Na3w1uhb+NLAk/fLJ+amu88e/C9Nbd7/TSIL08vGeFk9/Y181hsLUqUvbUfiiz6vFYynSr/AFev8Ekdb4b8a6Z4mtUe3nVJsfNC5wymt0N+NfLV9pOqaBORPBPbOp++AQPwNWbXxtrlou2LUrhR6Fya9innHIuWtB3PEqZF7R82HmrH07uo3V598NfHF/4khNveWzs0a/8AH2owrex966jxF4o0/wAK2cV3qU32e3kmSDzCPlVnOBk9hnvXv0a8K1P2kdj5qvh54eo6U90a0c8cu7Y6vtO1tpzgjsaBPGZGQOpdRkrnkD6V856D4qvZvEWqadaa8NE0vUdb1O5Gqjawfy9gVEZsrjkn8Kr2PxI8TapbmeG6jstSul023+1rADuWSeRC+D6qAR9an267D+rybPpbcKXcK+dNa+IHirTYbrTjrhY6fqt1bS3arElxLEkSOhAYbTgucjgkYr23wXrX/CQeEdH1Mymc3drHKZDH5e/Kg529s+lawqKbsZTpOmk2b26jdUW6jdWpiS7qN1RbqN1AEu6jdUW6jdQBLuo3VFuo3UAS7qN1RbqN1AEu6jdUW6jdQBLuo3VFuo3UAS7qN1RbqN1AEu6jdUW6jdQBLuo3VFuo3UAS7qN1RbqN1AEu6jdUW6jdQBLuo3VFuo3UAS7qN1RbqN1AEu6jdUW6jdQBLuo3VFuo3UAS7qN1RbqN1AEu6jdUW6jdQBLuo3VFuo3UAS7qN1RbqN1AEu6jdUW6jdQBLuoqLdRQB+LYnPrQzFqjhiJqx5NBJVbrSqKseVQIaAIKfFGZnVFGWYgD8TipfJ9q6r4U+Gm8VfEzwvpCqW+1ahCjD/ZDBm/QGgaP1O+HOkL4e8A+HdNX5Ra2EMWPcIM/rXR7veokwi7VGFUYA9qN3vQBLu96N3vUW73o3e9AyXd70bveot3vRu96AJd3vRu96i3e9G73oAl3e9G73qLd70bvegCXd70bveot3vRu96AJd3vRu96i3e9G73oAl3e9G73qLd70bvegCXd70bveot3vRu96AJd3vRu96i3e9G73oAl3e9G73qLd70bvegCXd70bveot3vRu96AJd3vRu96i3e9G73oAl3e9G73qLd70bvegCXd70bveot3vRu96AJd3vRu96i3e9G73oAl3e9G73qLd70bvegCXd70bveot3vRu96AJd3vRu96i3e9G73oAl3e9G73qLd70bvegCXd70bveot3vRu96AJd3vRu96i3e9G73oAl3e9G73qLd70bvegCXd70bveot3vRu96AJd3vRu96i3e9G73oAl3e9G73qLd70bvegCXd70bveot3vRu96AJd3vRu96i3e9G73oAl3e9G73qLd70bvegCXd70bveot3vRu96AJd3vRu96i3e9G73oAl3e9G73qLd70bvegCXd70bveot3vRu96AJd3vRu96i3e9G73oAl3e9G73qLd70bvegCXd70bveot1G73oGS7veqt9p9rqcLQ3UCTxkY2uM1Lu96N3vUyipKzHGTi7o8+1r4NaddFnsJ5LR/7jfMtefeIPh/q/h9Wklh8+3XnzIecD3FfQW6muFkUq4DKeCCK8evlVCrrFcrPcw+cYii7TfMvM+ePB/jC68KakkqOz2jHEsOeCPUe9fQ9jfRahZw3ML74pVDKfrXzt8QNHj0HxVd28PELYlRf7obtXqvwhv2uvCKIzZ8mRkH06/1rz8rq1KVaWFm7o9HN6NOtQji6atf9Tu93vRu96i3e9G73r6o+QJd3vRu96i3e9G73oAl3e9G73qLd70bvegCXd70bveot3vRu96AJd3vRu96i3e9G73oAl3e9G73qLd70bvegCTdz1rw/4uH/AIrCTn/lhH/WvbN3vXiPxcb/AIq5veCP+teJm/8Au3zR72Sf72vRnL6LenTtYsboH/VTI5+mRn9K+mY5FkRWByrDIr5XJK47dxXv/wAPfEC654bt23ZmgHlSDvkdP0rzMmqKMpUn1PYz6lzRhWXTQ6eaGG4UrLGsi+jDNZU3hDRLhi0mm27N6+WK1N3vRu96+qlThL4lc+OjUnD4ZNDbOzg0+FYbeJYY1GAqDApNQsbXVLV7a8gjurd/vRyqGU/UGn7vejd71SikrJEOTbu2UJPC+jTWMNnJplq9pCd0cJiG1T6gYqcaPp424s4BtCgfIONvK/l2qxu96N3vRyrsHNLuUb3w3pOpKy3WnW1wrSeawkiBy+Mbj74xWhDHHbxJFEqxxINqoowAB0Apu73o3e9OyT0Fdvcl3e9G73qLd70bvemBLu96N3vUW73o3e9AiXd70bveot3vRu96AJd3vRu96i3e9G73oAl3e9G73qLd70bvegCXd70bveot3vRu96AJd3vRu96i3e9G73oAl3e9G73qLd70bvegCXd70bveot3vRu96AJd3vRu96i3e9G73oAl3e9G73qLd70bvegCXd70bveot3vRu96AJd3vRu96i3e9G73oAl3e9G73qLd70bvegCXd70bveot3vRu96AJd3vRu96i3e9G73oAl3e9G73qLd70bvegCXd70bveot3vRu96AJd3vRu96i3e9G73oAl3e9G73qLd70bvegCXd70bveot3vRu96AJd3vRUW73ooA/HFIQKVlAo8yopJKogdxSZqAye9OEnvQBNv/Cvof9hvwl/bnxgm1eRMwaNZvMGI/wCWj/Iv44LH8K+dA44Nfe37CvhH+xfhlfa5Km2fWLvKsR1jjG0fruqRn0zu+XrRu96iLdKN1BRLu96N3vUW6jdQBLu96N3vUW6jdQBLu96N3vUW6jdQBLu96N3vUW6jdQBLu96N3vUW6jdQBLu96N3vUW6jdQBLu96N3vUW6jdQBLu96N3vUW6jdQBLu96N3vUW6jdQBLu96N3vUW6jdQBLu96N3vUW6jdQBLu96N3vUW6jdQBLu96N3vUW6jdQBLu96N3vUW6jdQBLu96N3vUW6jdQBLu96N3vUW6jdQBLu96N3vUW6jdQBLu96N3vUW6jdQBLu96N3vUW6jdQBLu96N3vUW6jdQBLu96N3vUW6jdQBLu96N3vUW6jdQBLu96N3vUW6jdQBLu96N3vUW6jdQBLu96N3vUW6jdQBLu96N3vUW6jdQBLu96N3vUW6jdQBLu96N3vUW6jdQBLu96N3vUW6jdQBLu96N3vUW6jdQBLu96N3vUW6jdQBLu96N3vUW6jdQBLu96N3vUW6jdQBLu96N3vUW6jdQBLu96N3vUW6jd70hku73o3e9VLy+gsITNczJDEvJZ2wK5ub4peHYpCv2zeV7qpIrKdanT+OSRtTo1KnwRbOv3e9G73ri/+FseHu903/fs0o+K3h7H/AB9P/wB+zWX1qh/OvvNfqeI/kf3GR8WvCkt9HHq1onmTRgRyoBklc8EV0vw+8Ov4c8PpDMf38p82QehPaqD/ABU8Ong3Tn/tmaVfit4e/wCft/8Av2a4I/VIV3iFNXfmehJ4yeHWGcHZeR2W7nFLu964v/ha3h7d/wAfT/8Afs0v/C1vD3/P05/7Zmu/65Q/nR5/1PEf8+39x2e73o3e9ctY/EfQNQmEaXqo54HmArXRrIsihlYFTyCDW8KtOp8DuYVKVSnpOLRNu96N3vUW6jdWhkS7vejd71Fuo3UAS7vejd71Fuo3UAS7vejd71Fuo3UAS7vevF/i9Ht8VRt/ftl/QkV7Hvryj40QYv8ATbj+9G0f5HP9a8nNI3wzPayeXLjI+dzFt/Db614J+2Wy77izlbeo6snX9Kz/AAf4sn8J6l5yEvbvxLFnqPX613HwbvBJY39s3Zw2PYjFN8a/C/7XK97pO1JDy9v0BPqK8NYWp7KGJw+6PoJYynGtUwmJ+FvT5nfaP4ksNet1ltLlHz1TPzD2IrS3e9fM1xb6hoNxtlSazlHflfyNX7Xx5rtqAE1KYj/aO7+dd9PN1FWqxszz6mRuT5qE00fRW73pC4UEkgAckmuG+H3jq58SRmC6tm8yMf8AHwo+Rvr71D8bLi4h+Hl80LyxwmWFbp4c7hbmQCUjHP3c17VOvGrT9pDY+fqYedGp7Ke52tnrFjqLulpewXLJwywyKxH1wat7vevnzxFrPhnTvGXhyLwJNapq0ME8s62JBR7XyGILY4bDBcDrmm6j8b9VTRoJtOvre+ul8Ow3lwIwrCO4eaOMu3ptDMcHpij26V7j+rykvdPoXd71HDcRzqWjkVwCVO0g4I4IrwDTPH3jDUWj0tNYjBk1iC0TUAsUr+W8LO6naNuQVGPrWY3xG8QWajTbS8j09Bc6lI94qxR+Y0U5VQd42/7Rxyan6xDsV9Vn3Ppbd70bvevniH4reI/7U0i7vdRigtpPsSSWtqEYbpcBt6NhzuyCCvSvoLdW0Kkamxz1KcqduYl3e9G73qLdRurUyJd3vRu96i3UbqAJd3vRu96i3UbqAJd3vRu96i3UbqAJd3vRu96i3UbqAJd3vRu96i3UbqAJd3vRu96i3UbqAJd3vRu96i3UbqAJd3vRu96i3UbqAJd3vRu96i3UbqAJd3vRu96i3UbqAJd3vRu96i3UbqAJd3vRu96i3UbqAJd3vRu96i3UbqAJd3vRu96i3UbqAJd3vRu96i3UbqAJd3vRu96i3UbqAJd3vRu96i3UbqAJd3vRu96i3UbqAJd3vRu96i3UbqAJd3vRUW6igD8d2YrUEj1K5B5qCSrIIyxzSqxpMUoHakMuaXptzrWpWmn2kZlu7uZIIkUclmYKB+Zr9ZPAfhWHwN4M0bQbcDy7C1SHI7sB8x/E5NfCn7Fvw7Pir4pJrVxHustDjNxyODM2RGPw5P4V+gu6oKJd1G6ot1G6mBLuo3VFuo3UAS7qN1RbqN1AEu6jdUW6jdQBLuo3VFuo3UAS7qN1RbqN1AEu6jdUW6jdQBLuo3VFuo3UAS7qN1RbqN1AEu6jdUW6jdQBLuo3VFuo3UAS7qN1RbqN1AEu6jdUW6jdQBLuo3VFuo3UAS7qN1RbqN1AEu6jdUW6jdQBLuo3VFuo3UAS7qN1RbqN1AEu6jdUW6jdQBLuo3VFuo3UAS7qN1RbqN1AEu6jdUW6jdQBLuo3VFuo3UAS7qN1RbqN1AEu6jdUW6jdQBLuo3VFuo3UAS7qN1RbqN1AEu6jdUW6jdQBLuo3VFuo3UAS7qN1RbqN1AEu6jdUW6jdQBLuo3VFuo3UAS7qN1RbqN1AEu6jdUW6jdQBLuo3VFuo3UAS7jTJp1t4Xkc4RVLMfQCm7qx/GDP/AMIrqnl/f8hsY+lRN8sXIunHmmo9zxfxn4uufFGpO7SMLSNiIohwAPX61ztMBA7Um72r81rVJVpuc9z9VoUoUYKEFoS/hWXeeJ9K077R9pvoYPs7Kku4/cZhlQfqKXXNbh8P6ZLf3KuYIsbjGMkAkDP05rybWdQtbjWNb1BZEk059Z08CfqjBUO7n2zSp0+dhUq8iPVrbxZo95ZXF3BqNvLb243TSK/3B6n0pdK8V6TrczQ2N/BcSqu8orc49cHtXlXjy5s9Wl1q40XY9vHo8q3c0C/IzFhsHuRyaryPc3GtaS1lqNvrFw9hcQKtnCIzbExcOxHXkAc9zW3sE1cw+sOLPWIfGeiXGpCwi1KB7osVEYPUjsD0J9s1tV5hpOteG/8AhFdEs/sy3V6rxItnGMTJKDyx9MHJJr0vd8vSsJwUXodNOfNuSZIr0b4WeNZ4NQTSbuQyW8nEJY8o3p9DXmu6tLwzv/4SDTvL+/56Y/Ot8LVlRqxlA58ZQhiKMozR9MbqN1RbqN1fpB+Wku6jdUW6jdQBLuo3VFuo3UAS7qN1RbqN1AEuea4T4u2JuPD0NwoybeUE/Q8V226qGvaeuraPd2jf8tYyB9ex/OufEU/a0ZQOrC1fY1oT7M8u+EupC08RSW7HAuIyB9Rz/jXs2a+arO6n0PVopMGO4tZeR7g8ivoTSdUi1fToLuE7o5FB+h9K8fKql4Oi90e3nNJ+0jXjtItXFnBdrtmhjlX0ZQax5vAuhzkltNhBPXauP5Vs7qN1e1KlTlrKNzwI1qkNIyaGWOn2+l26w2sSQxLwFQYqeQCVGR1V0YYKsMgio91G6tOVJWSM+Zyd2zJtfBPh+xvEurbRrO3uY3LpLFCqsGIwTkexqe28MaPZrMINMtIVmUrII4VG8HqDxyKv7vajdS5Y9h80u5Us9B0zToI4bWwt7eKN/MRI4gArf3h7+9MvPDek6hCsVzptrPEshlCSRKQHJyW+pNXt1G6nyx7BzS7lKbw3pNxfQ3smnWr3cIAjmaJSyAdMHtWluqLd7UbqfKlsJtvdku6jdUW6jdTJJd1G6ot1G6gCXdRuqLdRuoAl3Ubqi3UbqAJd1G6ot1G6gCXdRuqLdRuoAl3Ubqi3UbqAJd1G6ot1G6gCXdRuqLdRuoAl3Ubqi3UbqAJd1G6ot1G6gCXdRuqLdRuoAl3Ubqi3UbqAJd1G6ot1G6gCXdRuqLdRuoAl3Ubqi3UbqAJd1G6ot1G6gCXdRuqLdRuoAl3Ubqi3UbqAJd1G6ot1G6gCXdRUW6igD8XNI8VQXVmGdsN05q63iC0/visWTSdPb5EiZD6iqlx4ZgK5SVl/GtLGdzojr1tn76ipIdXt5GADgknGBXCXHhe4zmK4Yj3New/se/BTUPid8ZrFL6NpNC0fbfXrH7pwfkT/AIEw/IGkUfob+y78Nj8NfhXYJcxbNV1LF7d5HKlh8iH6Lj8Sa9eZqhVtuAOB6Ub6gol3Ubqi3UbqB9CXdRuqLdRuoES7qN1RbqN1AEu6jdUW6jdQBLuo3VFuo3UAS7qN1RbqN1AEu6jdUW6jdQBLuo3VFuo3UAS7qN1RbqN1AEu6jdUW6jdQBLuo3VFuo3UAS7qN1RbqN1AEu6jdUW6jdQBLuo3VFuo3UAS7qN1RbqN1AEu6jdUW6jdQBLuo3VFuo3UAS7qN1RbqN1AEu6jdUW6jdQBLuo3VFuo3UAS7qN1RbqN1AEu6jdUW6jdQBLuo3VFuo3UAS7qN1RbqN1AEu6jdUW6jdQBLuo3VFuo3UAS7qN1RbqN1AEu6jdUW6jdQBLuo3VFuo3UAS7qN1RbqN1AEu6jdUW6jdQBLuo3VFuo3UAS7qN1RbqN1AEu6jdUW6jdQBLuo3VFuo3UAS7qZNGlxC8bjKMCpHsabuo3UnroNaangfjLwlc+F9RkDIzWbtmKUDjHofeudzX0zdW0V5C0U8Syxt1VxkVzknw28PzSbjZbc/wB1iBXyuIyeUpuVJ6H1+GzyMYKNaOq6o8HkVJo2R1Do3BVhkGoP7PtFt/IFrEIc58sINufXFe+f8Ku8Oj/l0b/v4f8AGk/4Vf4eP/Lo3/fZ/wAa5v7IxPdHX/beG6xZ4LHY20cLRrBGkbcFVUYP4UtvZ21oxMNvHET1KqAa95/4Vf4eHS0b/vs/40f8Kv8AD3/Pm3/fZo/sjE90L+28L/KzwWPT7SOczpbRrMesgQA/nU4b617n/wAKw8PZ/wCPM/8AfZ/xo/4Vf4d/582/7+H/ABpf2PiH1Q/7cwy2izw7cPSvRfhd4Nnmvk1W8jMcMfMKsMFj6/Su2sPAOhabMssVihdehf5sfnXQrhFwo2j0Fd+EymVOanVd7dDz8ZnSq03Toq1+pNuo3VFuo3V9MfKEu6jdUW6jdQBLuo3VFuo3UAS7qN1RbqN1AEu6jd1qLdRuoA8w+KnhVoZ/7Xt4/wB2/E4UdD/erF8D+OH8MymCfdJYyH5l7ofUV7NMiXETRyKHRhgqwyDXlvir4XzQtLc6UPNj6m3P3h9K+dxWFqUavt6HzR9Pg8ZSrUfq2J26M9P03WLPWIFmtJ1lQjPynkfUVb3V83JLf6JdHaZ7KdT7qa2Lf4ja/AoX7c74/vqDVU81ja1WNmTUyabd6Uk0e87qTcF5JwPeuM8C+OZPEim3uIHE6DLTKPkP+Bqr8bG/4tvqSlmVWeFGw235TKoPP0NexCtGpT9pDY8Oph5Uqnsp6M77zFb7pyPajd+deHa1caZ8LfE/meHrlba1OlXNzfW/mNLEhQL5UhXJwSxx71kX3xB8T61o+o2c181hcWV7pzibyljdo5XwVIVjgZx+HBpe2UdGV9XlLWJ9EbsDJ4FG4dQcj1rwLWvitrMuoTWyzLcaTeSXlksiwiNQUjflW3biQVOTjFGl/ErWfCXhvThd6rZ30E+hC6hkSEt9ncbEUNg5bJYDnuKXt4h9WnY993DrRuFeDR/FLxZNZahaIsZ1C2v4If3iRrO0Lxl22pu2lhjpnOM1DdfGrX75baLSgJpIdOa9nmNuq+Y4kZNhDsNoG3kjPJp+3iH1aZ7+WA70bhjPUV5b8UPFV3J8O9OtoIZxqeviKAw2nzSojqGmKc9Qm7muT8G/EDV7fT9D8H28raZfx3lxZvc6nHudIY0MkQIJ+8ykd+xpusk7EqjJxue+hw3Q5pS44ya+ddC8aeJ7HRfs2n6han7Pp99qk00kW8SslyVAXngEVryeNtbbWtH03VpLe9M8+n3kbxxmPyhKXBXg84xwTS9tHsP6vLa57kWA6nFLuFeBS/ELxJceFoLvVJrS6tdY02/kS3SEr5RhGRk55yOtTr8RvEC6kLSe4js7C5JtbSSGISRE+TkAuG3LJnPBGKPbIf1eTPdqN3414T4Y8deIdP0Wya51a3axsfDqapc3E0Rd5GJcAEg54wMnqax9X+InijVtGvbWa+axlt7nS50n8pY5Cks4UjCscL06844NHt4gsPJux9Hbge9G4V4ZpfjbWJtYvNF0+6tdKKyX95JdzR7hJ5TqoUAnvuyfao5/ip4ovtMvNVtZbW1tbDR7TUpLd4dxlaRnDKDngEJkfWmq0WJ4eaPd91G6oVlEkasBjIBpd1dByku6jdUW6jdQBLuo3VFuo3UAS7qN1RbqN1AEu6jdUW6jdQBLuo3VFuo3UAS7qN1RbqN1AEu6jdUW6jdQBLuo3VFuo3UAS7qN1RbqN1AEu6jdUW6jdQBLuo3VFuo3UAS7qN1RbqN1AEu6jdUW6jdQBLuo3VFuo3UAS7qKi3UUAfi7cSbj8gxUEcjZw2SKieR4m3HkULdBwSRitjOxqW9q80kcUKmSWRgqovJJPAAr9O/2ZfhDF8IPhra200YGtahi71CTHO8j5U+ijj65r5W/Yh+CDeMfEh8a6zCToulPizikHE9x/e91Tr9celff/mZrNlEm73o3e9Rbvejd71JRLu96N3vUW73o3e9AEu73o3e9Rbvejd70AS7vejd71Fu96N3vQBLu96N3vUW73o3e9AEu73o3e9Rbvejd70AS7vejd71Fu96N3vQBLu96N3vUW73o3e9AEu73o3e9Rbvejd70AS7vejd71Fu96N3vQBLu96N3vUW73o3e9AEu73o3e9Rbvejd70AS7vejd71Fu96N3vQBLu96N3vUW73o3e9AEu73o3e9Rbvejd70AS7vejd71Fu96N3vQBLu96N3vUW73o3e9AEu73o3e9Rbvejd70AS7vejd71Fu96N3vQBLu96N3vUW73o3e9AEu73o3e9Rbvejd70AS7vejd71Fu96N3vQBLu96N3vUW73o3e9AEu73o3e9Rbvejd70AS7vejd71Fu96N3vQBLu96N3vUW73o3e9AEu73o3e9Rbvejd70AS7vejd71Fu96N3vQBLu96N3vUW73o3e9AEu73o3e9Rbvejd70AS7vejd71Fu96N3vQBLu96N3vUW73o3e9AEu73o3e9Rbvejd70AS7vejd71Fu96N3vQBLu96N3vUW73o3e9AEu73o3e9RbvejfgZJwKAJd3vQGx3qLzB0yCfrTTKqnBYA0DsywX96Td71F5nOM80b92cHNAEu73o3e9RbvU0nnL/eX86Qak273o3e9QtIF6sB9aUNu6EEU7hYl3e9G73qLeDyDkUnnKpILqD7mi4rE273o3e9Rbx60bvegCXd70bveot9G739qAJd3vRu96i3Ub+OvFAEu73o3e9Rbvejd70DJd3vRu96i3e9G73oES7vejd71Fu96N3vQBLu96N3vUW73o3e9AEd3p1pfri4gjm/31zWRN4F0KYkmxjUn+7kVt7vejd71lKjTl8UUzaNarD4ZNEWn6da6TbrBaxLDGOyijVNNs9asZbO+gS6tZRh4pBlW5zzUu73o3e9WoxS5UtCHKTfM3qZFn4H8P6fa3Vtb6TaRQXSeXOixjEi+h9RUMHw+8N2sE0MWkWqRzKqSLs++FO4Z9cEVu7vejdS5I9h88u5g/wDCvPDX2lp/7HtfOZ95bZ/Eeppbf4f+HLO3ureHR7SOC5Ty5UEYwy+n0rd3e9G73o5I9g9pLuc//wAK58M/Z3h/sa1COVLYTklc4OfUZP51LN4B8O3FvaQS6TavDagrChj4QE5I+hPNbe/3o3UckewueXcik02zkuLWdreNprUEQPt5jBGDj04rP1PwfomsySyXum29xJKyu7unJZRhTn1ArV3e9G73o5ULmfQzbfwnotpD5UOm28Ufktb7VQAeWxyyfQnmpW8OaVJcRTtYwtNEEEblOVCZ2AfTJxV3d70bvenyrsPnl3M9vDGkNawWxsIDBAjxxR7BhFf74Hse9V4/BOgw6oNQTTLcXY5EmzocYz9ccZrY30bvejlj2Fzy7mZa+EdFsbaW3g063jhliMDxhBhoySSp9sk8e9U4fh34at4JYY9HtVjmQRyLs+8oIIB+hANb+73o3+9Lkj2Hzy7mNd+BdAvoUin0u3kjjdpFBTozfeP44Gatv4b0qSK4jaxhMdxCtvKuwYeNc7VPsMn86vbvejdT5Y9g5pdyUMFUAcCjd71Fu96N3vVEEu73o3e9Rbvejd70AS7vejd71Fu96N3vQBLu96N3vUW73o3e9AEu73o3e9Rbvejd70AS7vejd71Fu96N3vQBLu96N3vUW73o3e9AEu73o3e9Rbvejd70AS7vejd71Fu96N3vQBLu96N3vUW73o3e9AEu73o3e9Rbvejd70AS7vejd71Fu96N3vQBLu96N3vUW73o3e9AEu73o3e9Rbvejd70AS7vejd71Fu96N3vQBLu96Ki3e9FAH4tSPlOtdZ8HfhXqnxg8cWXh/TFKIzCS6usZW3hBG5z7+g7muX0XSb7xFqtrpmm2z3d/dSCKGGMZLMTgCv09/Zy+BVn8D/BiWz+XceILwCTULtR/F/zzU/3V6e/WtGyD0bwb4T03wH4X07QNJhWCwsYhGijqfVj6knk/Wtot71Fu46ik3VFyiXd70bveot1G6kMl3e9G73qLdRuoAl3e9G73qLdRuoAl3e9G73qLdRuoAl3e9G73qLdRuoAl3e9G73qLdRuoAl3e9G73qLdRuoAl3e9G73qLdRuoAl3e9G73qLdRuoAl3e9G73qLdRuoAl3e9G73qLdRuoAl3e9G73qLdRuoAl3e9G73qLdRuoAl3e9G73qLdRuoAl3e9G73qLdRuoAl3e9G73qLdRuoAl3e9G73qLdRuoAl3e9G73qLdRuoAl3e9G73qLdRuoAl3e9G73qLdRuoAl3e9G73qLdRuoAl3e9G73qLdRuoAl3e9G73qLdRuoAl3e9G73qLdRuoAl3e9G73qLdRuoAl3e9G73qLdRuoAl3e9G73qLdRuoAl3e9G73qLdRuoAl3e9G73qLdRuoAl3e9G73qLdRuoAl3e9G73qLdRuoAl3e9G73qLdRuoAl3e9G73qLdRuoAl3e9G73qLdRuoAl3e9G73qLdRuoAl3e9cL8V9Yt38IatZwXafbbd7UyxI3zoHmXbn6gHH0rtd1YWqeCdD1rWrfVbzT4Z7+AKEmbOflJK5HQ4J4z0qZJtaFwajJNnnlv4H0DxBc+P9X1QNBeWupzhNRSdo3t1WFGDKQeMHmuYXTtS8earDc3egwa/enw7YzP9qu2t/JdvN+ZcDq2AT06CvW774W+F9T1W51C60xJri5k82bdI2yRsAZK5weg7VNrnw58O+ItQF7fWHmXAiWHckjJ8i5wpCkcDJrn9mzpVZI890G+j1T/hEVutUntbdvD97DcXbzBHRlliRm3k4yCCA341vfDXS/8AhE/HGu6MsaW1tJbRXVtBbztLHs3Mu9txyHbjPY4rsB4P0RY7eIadB5NvbPZxx7flWF8bkx6HArPi+G+hWOj3+nafa/YI71VWWaFz5mAcgBicjHb0pqnJNEupFpo6W81S1s5re3muY4p7rcsEbtgyFVLMF+gBP4V4d4S8O6d401Xwpa6zD9vtl0W8mVJHON32sANwfQ17D4i8M6X4ss47XVbRLqGN/MQMSCjYxkEcjgkfjWZqfw18N6utgtzpy7bGEwW4ido/LjJBK/KRxwKqUXJkwmoo8m1iza58vw5aQ/29pNj4ma1s7a6uWCun2Uu0Rk5OEckDrjGKkhubzw9pWraCyyeHoJdZsYLqG3ujIlnaTcEpIeV3FcHpjdXrF18O/Dt3odrpLaZGlhayebDFExTa5zlsg5ycn86m0/wLoOmaTeabDpsP2K7/AOPiOTL+b2+Ynk1n7KV7mvto2sZnh/wt4f8ABXiyK30m9ls57y1dm0sTNJHKFZf32CTgjOM8Zz3xXO+Nvh34dvviN4da402OT+03unvPnYeaVjBBPPrXb+HfBOh+E5JpdLsI7aaVQry5LOVHRdxJOPatO4021vL+0vJola5tC3kyHqm4Yb8xWjp3jYyVS0rpnk3g74pa5drpjppipot3FMlugt2T7KsaMY8yFv3mdmCAMjNSW/xA8bTQ24LaSkl1ora1G3lNiNUIDRkZ5J3DntzXd2fw98O6fqk2oQaXDFdTBwzjPG8fPtGcKTnnFXV8K6VH5O20QeVZNp6deIGwSnXpwKhU59y/aU+kTz3Uvid4iWHWNUtBpqafpOn2moTW8wPmSiWIOyA5474OOvFL/wAJbf6Xca1Fp00aX19rLiOOWB55Ngt42OyMEdMjOSAM10CfCjRJPEl3ql3aw3UbJbR20DqcQrCm0A8/MOh59K1tW+H/AIf1wP8AbdPjmLXBuS24hvMKhSwIORkAD8KOSfcftKa6HmrfEXX7y58M63JNFFDBa6o91ZxoQJmg2g/xcZGMdcc11Xw98c6/rusQ22qWo+zXVp9qjnW2aERHj5PmJ3jB+8PSt6D4f+H7aCwgi0yGOGxkklt0XOI2f7+Oeh7jpU3h3wPofhe6luNM0+O1mkG0sCSQuc7Rk8D2FOMJp6sUqlOSaSOk3d80m73qNm96TdXScpLu96N3vUW6jdQIl3e9G73qLdRuoAl3e9G73qLdRuoAl3e9G73qLdRuoAl3e9G73qLdRuoAl3e9G73qLdRuoAl3e9G73qLdRuoAl3e9G73qLdRuoAl3e9G73qLdRuoAl3e9G73qLdRuoAl3e9G73qLdRuoAl3e9G73qLdRuoAl3e9G73qLdRuoAl3e9G73qLdRuoAl3e9G73qLdRuoAl3e9G73qLdRuoAl3e9G73qLdRuoAl3e9G73qLdRuoAl3e9G73qLdRuoAl3e9G73qLdRuoAl3e9G73qLdRuoAl3e9G73qLdRuoAl3e9G73qLdRuoAl3e9G73qLdRuoAl3e9G73qLdRuoAl3e9G73qLdRuoAl3e9G73qLdRuoAl3e9G73qLdRuoAl3e9FRbqKAPlf9i34B6f4T8L2vjnUGiv8AWtVi32uF+W0hPYZ6ue5/AV9R7jRRVMXUNxo3UUVIw3UbqKKADdRuoooAN1G6iigA3UbqKKADdRuoooAN1G6iigA3UbqKKADdRuoooAN1G6iigA3UbqKKADdRuoooAN1G6iigA3UbqKKADdRuoooAN1G6iigA3UbqKKADdRuoooAN1G6iigA3UbqKKADdRuoooAN1G6iigA3UbqKKADdRuoooAN1G6iigA3UbqKKADdRuoooAN1G6iigA3UbqKKADdRuoooAN1G6iigA3UbqKKADdRuoooAN1G6iigA3UbqKKADdRuNFFABuo3UUUAG6jdRRQCDcaN1FFAw3GjcaKKYg3GjcaKKQw3HFG6iigQbjRuoooAN1G6iigYbjRuNFFAg3UbqKKBhuo3UUUCDdRuoooAN1G6iigA3UbqKKADdRuoooAN1G6iigA3UbqKKADdRuoooAN1G6iigA3UbqKKADdRuoooAN1G6iigA3UbqKKADdRuoooAN1G6iigA3UbqKKADdRuoooAN1G6iigA3UbqKKADdRuoooAN1G6iigA3UbqKKADdRuoooAN1G6iigA3UbqKKADdRuoooAN1G6iigA3UbqKKADdRRRQB//9k=;" parent="1" vertex="1">
          <mxGeometry x="3" y="40" width="1162.26" height="780" as="geometry" />
        </mxCell>
        <mxCell id="WEqn2A4atNCHsH8j8p4O-2" value="Java学習のロードマップ" style="text;html=1;align=center;verticalAlign=middle;resizable=0;points=[];autosize=1;strokeColor=#d79b00;fillColor=#ffe6cc;fontSize=18;fontStyle=1" parent="1" vertex="1">
          <mxGeometry x="3" y="10" width="220" height="30" as="geometry" />
        </mxCell>
      </root>
    </mxGraphModel>
  </diagram>
  <diagram id="UJJB8ZMRkTlGsZZ5obHc" name="型：値型と参照型">
    <mxGraphModel dx="1243" dy="809" grid="0" gridSize="10" guides="1" tooltips="1" connect="1" arrows="1" fold="1" page="1" pageScale="1" pageWidth="827" pageHeight="1169" math="0" shadow="0">
      <root>
        <mxCell id="0" />
        <mxCell id="1" parent="0" />
        <mxCell id="cDl5AGBury3puH1LeEkG-1" value="" style="ellipse;whiteSpace=wrap;html=1;fontSize=16;" parent="1" vertex="1">
          <mxGeometry x="390" y="960" width="370" height="370" as="geometry" />
        </mxCell>
        <mxCell id="cDl5AGBury3puH1LeEkG-2" value="" style="shape=table;startSize=0;container=1;collapsible=0;childLayout=tableLayout;fontSize=16;" parent="1" vertex="1">
          <mxGeometry x="80" y="960" width="80" height="400" as="geometry" />
        </mxCell>
        <mxCell id="cDl5AGBury3puH1LeEkG-3" value="" style="shape=tableRow;horizontal=0;startSize=0;swimlaneHead=0;swimlaneBody=0;top=0;left=0;bottom=0;right=0;collapsible=0;dropTarget=0;fillColor=none;points=[[0,0.5],[1,0.5]];portConstraint=eastwest;fontSize=16;" parent="cDl5AGBury3puH1LeEkG-2" vertex="1">
          <mxGeometry width="80" height="40" as="geometry" />
        </mxCell>
        <mxCell id="cDl5AGBury3puH1LeEkG-4" value="" style="shape=partialRectangle;html=1;whiteSpace=wrap;connectable=0;overflow=hidden;fillColor=none;top=0;left=0;bottom=0;right=0;pointerEvents=1;fontSize=16;" parent="cDl5AGBury3puH1LeEkG-3" vertex="1">
          <mxGeometry width="80" height="40" as="geometry">
            <mxRectangle width="80" height="40" as="alternateBounds" />
          </mxGeometry>
        </mxCell>
        <mxCell id="cDl5AGBury3puH1LeEkG-5" value="" style="shape=tableRow;horizontal=0;startSize=0;swimlaneHead=0;swimlaneBody=0;top=0;left=0;bottom=0;right=0;collapsible=0;dropTarget=0;fillColor=none;points=[[0,0.5],[1,0.5]];portConstraint=eastwest;fontSize=16;" parent="cDl5AGBury3puH1LeEkG-2" vertex="1">
          <mxGeometry y="40" width="80" height="40" as="geometry" />
        </mxCell>
        <mxCell id="cDl5AGBury3puH1LeEkG-6" value="" style="shape=partialRectangle;html=1;whiteSpace=wrap;connectable=0;overflow=hidden;fillColor=none;top=0;left=0;bottom=0;right=0;pointerEvents=1;fontSize=16;" parent="cDl5AGBury3puH1LeEkG-5" vertex="1">
          <mxGeometry width="80" height="40" as="geometry">
            <mxRectangle width="80" height="40" as="alternateBounds" />
          </mxGeometry>
        </mxCell>
        <mxCell id="cDl5AGBury3puH1LeEkG-7" value="" style="shape=tableRow;horizontal=0;startSize=0;swimlaneHead=0;swimlaneBody=0;top=0;left=0;bottom=0;right=0;collapsible=0;dropTarget=0;fillColor=none;points=[[0,0.5],[1,0.5]];portConstraint=eastwest;fontSize=16;" parent="cDl5AGBury3puH1LeEkG-2" vertex="1">
          <mxGeometry y="80" width="80" height="40" as="geometry" />
        </mxCell>
        <mxCell id="cDl5AGBury3puH1LeEkG-8" value="" style="shape=partialRectangle;html=1;whiteSpace=wrap;connectable=0;overflow=hidden;fillColor=none;top=0;left=0;bottom=0;right=0;pointerEvents=1;fontSize=16;" parent="cDl5AGBury3puH1LeEkG-7" vertex="1">
          <mxGeometry width="80" height="40" as="geometry">
            <mxRectangle width="80" height="40" as="alternateBounds" />
          </mxGeometry>
        </mxCell>
        <mxCell id="cDl5AGBury3puH1LeEkG-9" value="" style="shape=tableRow;horizontal=0;startSize=0;swimlaneHead=0;swimlaneBody=0;top=0;left=0;bottom=0;right=0;collapsible=0;dropTarget=0;fillColor=none;points=[[0,0.5],[1,0.5]];portConstraint=eastwest;fontSize=16;" parent="cDl5AGBury3puH1LeEkG-2" vertex="1">
          <mxGeometry y="120" width="80" height="40" as="geometry" />
        </mxCell>
        <mxCell id="cDl5AGBury3puH1LeEkG-10" value="" style="shape=partialRectangle;html=1;whiteSpace=wrap;connectable=0;overflow=hidden;fillColor=none;top=0;left=0;bottom=0;right=0;pointerEvents=1;fontSize=16;" parent="cDl5AGBury3puH1LeEkG-9" vertex="1">
          <mxGeometry width="80" height="40" as="geometry">
            <mxRectangle width="80" height="40" as="alternateBounds" />
          </mxGeometry>
        </mxCell>
        <mxCell id="cDl5AGBury3puH1LeEkG-11" value="" style="shape=tableRow;horizontal=0;startSize=0;swimlaneHead=0;swimlaneBody=0;top=0;left=0;bottom=0;right=0;collapsible=0;dropTarget=0;fillColor=none;points=[[0,0.5],[1,0.5]];portConstraint=eastwest;fontSize=16;" parent="cDl5AGBury3puH1LeEkG-2" vertex="1">
          <mxGeometry y="160" width="80" height="40" as="geometry" />
        </mxCell>
        <mxCell id="cDl5AGBury3puH1LeEkG-12" value="" style="shape=partialRectangle;html=1;whiteSpace=wrap;connectable=0;overflow=hidden;fillColor=none;top=0;left=0;bottom=0;right=0;pointerEvents=1;fontSize=16;" parent="cDl5AGBury3puH1LeEkG-11" vertex="1">
          <mxGeometry width="80" height="40" as="geometry">
            <mxRectangle width="80" height="40" as="alternateBounds" />
          </mxGeometry>
        </mxCell>
        <mxCell id="cDl5AGBury3puH1LeEkG-13" value="" style="shape=tableRow;horizontal=0;startSize=0;swimlaneHead=0;swimlaneBody=0;top=0;left=0;bottom=0;right=0;collapsible=0;dropTarget=0;fillColor=none;points=[[0,0.5],[1,0.5]];portConstraint=eastwest;fontSize=16;" parent="cDl5AGBury3puH1LeEkG-2" vertex="1">
          <mxGeometry y="200" width="80" height="40" as="geometry" />
        </mxCell>
        <mxCell id="cDl5AGBury3puH1LeEkG-14" value="" style="shape=partialRectangle;html=1;whiteSpace=wrap;connectable=0;overflow=hidden;fillColor=none;top=0;left=0;bottom=0;right=0;pointerEvents=1;fontSize=16;" parent="cDl5AGBury3puH1LeEkG-13" vertex="1">
          <mxGeometry width="80" height="40" as="geometry">
            <mxRectangle width="80" height="40" as="alternateBounds" />
          </mxGeometry>
        </mxCell>
        <mxCell id="cDl5AGBury3puH1LeEkG-15" value="" style="shape=tableRow;horizontal=0;startSize=0;swimlaneHead=0;swimlaneBody=0;top=0;left=0;bottom=0;right=0;collapsible=0;dropTarget=0;fillColor=none;points=[[0,0.5],[1,0.5]];portConstraint=eastwest;fontSize=16;" parent="cDl5AGBury3puH1LeEkG-2" vertex="1">
          <mxGeometry y="240" width="80" height="40" as="geometry" />
        </mxCell>
        <mxCell id="cDl5AGBury3puH1LeEkG-16" value="String s" style="shape=partialRectangle;html=1;whiteSpace=wrap;connectable=0;overflow=hidden;fillColor=none;top=0;left=0;bottom=0;right=0;pointerEvents=1;fontSize=16;" parent="cDl5AGBury3puH1LeEkG-15" vertex="1">
          <mxGeometry width="80" height="40" as="geometry">
            <mxRectangle width="80" height="40" as="alternateBounds" />
          </mxGeometry>
        </mxCell>
        <mxCell id="cDl5AGBury3puH1LeEkG-17" value="" style="shape=tableRow;horizontal=0;startSize=0;swimlaneHead=0;swimlaneBody=0;top=0;left=0;bottom=0;right=0;collapsible=0;dropTarget=0;fillColor=none;points=[[0,0.5],[1,0.5]];portConstraint=eastwest;fontSize=16;" parent="cDl5AGBury3puH1LeEkG-2" vertex="1">
          <mxGeometry y="280" width="80" height="40" as="geometry" />
        </mxCell>
        <mxCell id="cDl5AGBury3puH1LeEkG-18" value="&lt;p style=&quot;line-height: 0.5;&quot;&gt;・&lt;br&gt;・&lt;br&gt;・&lt;/p&gt;" style="shape=partialRectangle;html=1;whiteSpace=wrap;connectable=0;overflow=hidden;fillColor=none;top=0;left=0;bottom=0;right=0;pointerEvents=1;fontSize=16;verticalAlign=bottom;align=center;spacing=0;spacingTop=-6;" parent="cDl5AGBury3puH1LeEkG-17" vertex="1">
          <mxGeometry width="80" height="40" as="geometry">
            <mxRectangle width="80" height="40" as="alternateBounds" />
          </mxGeometry>
        </mxCell>
        <mxCell id="cDl5AGBury3puH1LeEkG-19" value="" style="shape=tableRow;horizontal=0;startSize=0;swimlaneHead=0;swimlaneBody=0;top=0;left=0;bottom=0;right=0;collapsible=0;dropTarget=0;fillColor=none;points=[[0,0.5],[1,0.5]];portConstraint=eastwest;fontSize=16;" parent="cDl5AGBury3puH1LeEkG-2" vertex="1">
          <mxGeometry y="320" width="80" height="40" as="geometry" />
        </mxCell>
        <mxCell id="cDl5AGBury3puH1LeEkG-20" value="long b" style="shape=partialRectangle;html=1;whiteSpace=wrap;connectable=0;overflow=hidden;fillColor=none;top=0;left=0;bottom=0;right=0;pointerEvents=1;fontSize=16;" parent="cDl5AGBury3puH1LeEkG-19" vertex="1">
          <mxGeometry width="80" height="40" as="geometry">
            <mxRectangle width="80" height="40" as="alternateBounds" />
          </mxGeometry>
        </mxCell>
        <mxCell id="cDl5AGBury3puH1LeEkG-21" value="" style="shape=tableRow;horizontal=0;startSize=0;swimlaneHead=0;swimlaneBody=0;top=0;left=0;bottom=0;right=0;collapsible=0;dropTarget=0;fillColor=none;points=[[0,0.5],[1,0.5]];portConstraint=eastwest;fontSize=16;" parent="cDl5AGBury3puH1LeEkG-2" vertex="1">
          <mxGeometry y="360" width="80" height="40" as="geometry" />
        </mxCell>
        <mxCell id="cDl5AGBury3puH1LeEkG-22" value="int a" style="shape=partialRectangle;html=1;whiteSpace=wrap;connectable=0;overflow=hidden;fillColor=none;top=0;left=0;bottom=0;right=0;pointerEvents=1;fontSize=16;" parent="cDl5AGBury3puH1LeEkG-21" vertex="1">
          <mxGeometry width="80" height="40" as="geometry">
            <mxRectangle width="80" height="40" as="alternateBounds" />
          </mxGeometry>
        </mxCell>
        <mxCell id="cDl5AGBury3puH1LeEkG-23" value="メモリ管理と値型・参照型" style="text;html=1;strokeColor=#ae4132;fillColor=#fad9d5;align=center;verticalAlign=middle;whiteSpace=wrap;rounded=0;fontSize=16;fontStyle=1" parent="1" vertex="1">
          <mxGeometry x="40" y="840" width="320" height="40" as="geometry" />
        </mxCell>
        <mxCell id="cDl5AGBury3puH1LeEkG-34" value="ヒープ領域" style="text;html=1;strokeColor=none;fillColor=none;align=center;verticalAlign=middle;whiteSpace=wrap;rounded=0;fontSize=16;fontStyle=1" parent="1" vertex="1">
          <mxGeometry x="510" y="920" width="120" height="30" as="geometry" />
        </mxCell>
        <mxCell id="cDl5AGBury3puH1LeEkG-35" value="スタック領域" style="text;html=1;strokeColor=none;fillColor=none;align=center;verticalAlign=middle;whiteSpace=wrap;rounded=0;fontSize=16;fontStyle=1" parent="1" vertex="1">
          <mxGeometry x="60" y="920" width="120" height="30" as="geometry" />
        </mxCell>
        <mxCell id="cDl5AGBury3puH1LeEkG-36" value="OSやJVMなどで管理され、何にどのくらい使うかが最初から決まっていて、必要なメモリを必要な期間だけ確保する" style="text;html=1;strokeColor=none;fillColor=none;align=left;verticalAlign=top;whiteSpace=wrap;rounded=0;fontSize=16;" parent="1" vertex="1">
          <mxGeometry x="40" y="1400" width="303" height="70" as="geometry" />
        </mxCell>
        <mxCell id="cDl5AGBury3puH1LeEkG-37" value="ソフトウェア側が必要に応じて動的にメモリの確保と解放をくりかえることができる領域" style="text;html=1;strokeColor=none;fillColor=none;align=left;verticalAlign=top;whiteSpace=wrap;rounded=0;fontSize=16;" parent="1" vertex="1">
          <mxGeometry x="440" y="1400" width="290" height="90" as="geometry" />
        </mxCell>
        <mxCell id="cDl5AGBury3puH1LeEkG-38" value="int, longなどあらかじめ&lt;font color=&quot;#cc0000&quot;&gt;&lt;b&gt;使用サイズが定められているもの&lt;/b&gt;&lt;/font&gt;はこちらが使われる" style="text;html=1;strokeColor=none;fillColor=none;align=left;verticalAlign=top;whiteSpace=wrap;rounded=0;fontSize=16;" parent="1" vertex="1">
          <mxGeometry x="40" y="1480" width="302" height="70" as="geometry" />
        </mxCell>
        <mxCell id="cDl5AGBury3puH1LeEkG-39" value="Object, Stringなど&lt;b&gt;&lt;font color=&quot;#cc0000&quot;&gt;動的にサイズが変わるもの&lt;/font&gt;&lt;/b&gt;は、その中身の保持はこちらが使われる" style="text;html=1;strokeColor=none;fillColor=none;align=left;verticalAlign=top;whiteSpace=wrap;rounded=0;fontSize=16;" parent="1" vertex="1">
          <mxGeometry x="440" y="1480" width="290" height="70" as="geometry" />
        </mxCell>
        <mxCell id="cDl5AGBury3puH1LeEkG-40" value="Object, Stringなどの&lt;font color=&quot;#cc00cc&quot;&gt;&lt;b&gt;ヒープ領域の参照値&lt;/b&gt;&lt;/font&gt;がこちら側に保持されます" style="text;html=1;strokeColor=none;fillColor=none;align=left;verticalAlign=top;whiteSpace=wrap;rounded=0;fontSize=16;" parent="1" vertex="1">
          <mxGeometry x="40" y="1550" width="298" height="50" as="geometry" />
        </mxCell>
        <mxCell id="cDl5AGBury3puH1LeEkG-41" value="値もこの中に入っている&lt;br&gt;&amp;nbsp; b=123456789&lt;br&gt;&amp;nbsp; a=5" style="text;html=1;strokeColor=none;fillColor=none;align=left;verticalAlign=top;whiteSpace=wrap;rounded=0;fontSize=16;" parent="1" vertex="1">
          <mxGeometry x="160" y="1290" width="180" height="60" as="geometry" />
        </mxCell>
        <mxCell id="cDl5AGBury3puH1LeEkG-42" value="参照値だけが入っている" style="text;html=1;strokeColor=none;fillColor=none;align=left;verticalAlign=top;whiteSpace=wrap;rounded=0;fontSize=16;" parent="1" vertex="1">
          <mxGeometry x="160" y="1210" width="180" height="30" as="geometry" />
        </mxCell>
        <mxCell id="cDl5AGBury3puH1LeEkG-43" value="sの中身" style="ellipse;whiteSpace=wrap;html=1;fontSize=16;fillColor=#cdeb8b;strokeColor=#36393d;" parent="1" vertex="1">
          <mxGeometry x="440" y="1020" width="100" height="90" as="geometry" />
        </mxCell>
        <mxCell id="cDl5AGBury3puH1LeEkG-44" style="rounded=0;orthogonalLoop=1;jettySize=auto;html=1;fontSize=16;fontColor=#CC00CC;exitX=1;exitY=0.5;exitDx=0;exitDy=0;" parent="1" source="cDl5AGBury3puH1LeEkG-15" target="cDl5AGBury3puH1LeEkG-43" edge="1">
          <mxGeometry relative="1" as="geometry" />
        </mxCell>
        <mxCell id="nyOOZumeh8EJdZ2JOnuL-1" value="&lt;b&gt;&lt;font color=&quot;#0000ff&quot;&gt;ガベージコレクション&lt;br&gt;&lt;/font&gt;&lt;/b&gt;使用されていない(参照されていない)ヒープ領域を解放して、メモリを再利用できるようにする処理&lt;br&gt;&lt;br&gt;目次が消えていたら中身も消すというイメージ" style="text;html=1;strokeColor=none;fillColor=none;align=left;verticalAlign=top;whiteSpace=wrap;rounded=0;fontSize=16;" parent="1" vertex="1">
          <mxGeometry x="440" y="1591" width="290" height="149" as="geometry" />
        </mxCell>
        <mxCell id="F66fK7Agfp0eG0C4k6ui-1" value="特徴：LIFO, 処理が速い" style="text;html=1;strokeColor=none;fillColor=none;align=left;verticalAlign=top;whiteSpace=wrap;rounded=0;fontSize=16;" parent="1" vertex="1">
          <mxGeometry x="180" y="920" width="180" height="30" as="geometry" />
        </mxCell>
        <mxCell id="UAlREVr_khH-X_Pi7QVI-1" value="プリミティブ型とオブジェクト型(参照型)" style="text;html=1;strokeColor=#ae4132;fillColor=#fad9d5;align=center;verticalAlign=middle;whiteSpace=wrap;rounded=0;fontSize=16;fontStyle=1" parent="1" vertex="1">
          <mxGeometry x="40" y="40" width="320" height="40" as="geometry" />
        </mxCell>
        <mxCell id="UAlREVr_khH-X_Pi7QVI-2" value="&lt;p style=&quot;line-height: 1.5;&quot;&gt;&lt;span style=&quot;background-color: initial;&quot;&gt;なぜ型には2種類あるのでしょうか？&lt;/span&gt;&lt;br&gt;&lt;span style=&quot;background-color: initial;&quot;&gt;プリミティブ型のみでプログラミングすると辛いからです&lt;/span&gt;&lt;/p&gt;&lt;p style=&quot;line-height: 1.5;&quot;&gt;&lt;span style=&quot;background-color: initial;&quot;&gt;Javaなどのオブジェクト指向言語では、オブジェクトという概念でプログラミングを行います&lt;br&gt;&lt;/span&gt;&lt;span style=&quot;background-color: initial;&quot;&gt;オブジェクトとは内部にフィールド、プロパティ、メソッドなどを含んだ一つの塊で、それを&lt;br&gt;&lt;/span&gt;&lt;span style=&quot;background-color: initial;&quot;&gt;継承等をすることで拡張できるようにしたものです&lt;/span&gt;&lt;/p&gt;&lt;p style=&quot;line-height: 1.5;&quot;&gt;&lt;span style=&quot;background-color: initial;&quot;&gt;たとえば、哺乳類というものがあっても、さらにそこには人間、犬、猫など様々なものがあります&lt;/span&gt;&lt;br&gt;&lt;span style=&quot;background-color: initial;&quot;&gt;これを人間クラス、犬クラスというように作成するわけですが、このときどちらにも共通するもの&lt;/span&gt;&lt;br&gt;&lt;span style=&quot;background-color: initial;&quot;&gt;があるので、それらを全部それぞれ作るのは面倒となります。&lt;/span&gt;&lt;/p&gt;&lt;p style=&quot;line-height: 1.5;&quot;&gt;&lt;span style=&quot;background-color: initial;&quot;&gt;そこで共通できるものを基底クラス(スーパークラス)として作成し、継承したサブクラスでそれぞれの&lt;/span&gt;&lt;br&gt;&lt;span style=&quot;background-color: initial;&quot;&gt;特徴を追加するという考え方で作成したほうが楽です&lt;/span&gt;&lt;br&gt;&lt;span style=&quot;background-color: initial;&quot;&gt;オブジェクト指向とは基本となるクラス、拡張したクラス、さらに拡張したクラスというように、&lt;/span&gt;&lt;br&gt;&lt;span style=&quot;background-color: initial;&quot;&gt;オブジェクトを継承していくことでプログラミングを簡単にするための考え方です&lt;/span&gt;&lt;br&gt;&lt;/p&gt;&lt;p style=&quot;line-height: 1.5;&quot;&gt;&lt;span style=&quot;background-color: initial;&quot;&gt;このときプリミティブ型のboolean型であれば1bit (0か1のみ)がメモリに必要となります。&lt;br&gt;byte型であれば8ビット(1バイト, -128～127)が必要ですが、どちらも必要なメモリサイズが決まっています&lt;br&gt;そのためメモリ使用効率や管理が楽です&lt;br&gt;&lt;/span&gt;&lt;/p&gt;&lt;p style=&quot;line-height: 1.5;&quot;&gt;&lt;span style=&quot;background-color: initial;&quot;&gt;ところがオブジェクト型は使用されるメモリサイズが不確定なため、メモリ管理が面倒になります&lt;br&gt;&lt;/span&gt;&lt;/p&gt;&lt;p style=&quot;line-height: 1.5;&quot;&gt;&lt;span style=&quot;background-color: initial;&quot;&gt;そこでプリミティブ型ではスタックメモリが使われるのに対し、オブジェクト型ではヒープ領域に&lt;br&gt;データを保存し、スタックメモリにはそのメモリの番地だけが格納されるように処理しています&lt;br&gt;&lt;b&gt;いわば、本の目次がスタックメモリで、そのページに飛べば中身が書いてあるというようなものです&lt;/b&gt;&lt;/span&gt;&lt;/p&gt;" style="text;html=1;align=left;verticalAlign=top;resizable=0;points=[];autosize=1;strokeColor=none;fillColor=none;fontSize=16;spacing=0;" parent="1" vertex="1">
          <mxGeometry x="40" y="90" width="780" height="590" as="geometry" />
        </mxCell>
      </root>
    </mxGraphModel>
  </diagram>
  <diagram id="KQtsZ2VCOvKE3ewzPczV" name="継承">
    <mxGraphModel dx="1243" dy="809" grid="0" gridSize="10" guides="1" tooltips="1" connect="1" arrows="1" fold="1" page="1" pageScale="1" pageWidth="827" pageHeight="1169" math="0" shadow="0">
      <root>
        <mxCell id="0" />
        <mxCell id="1" parent="0" />
        <mxCell id="a1rnbtBH1N4sPWhClXTL-4" style="edgeStyle=orthogonalEdgeStyle;rounded=0;orthogonalLoop=1;jettySize=auto;html=1;entryX=0;entryY=0.5;entryDx=0;entryDy=0;endArrow=none;endFill=0;" parent="1" source="a1rnbtBH1N4sPWhClXTL-1" target="a1rnbtBH1N4sPWhClXTL-2" edge="1">
          <mxGeometry relative="1" as="geometry" />
        </mxCell>
        <mxCell id="a1rnbtBH1N4sPWhClXTL-1" value="Object" style="rounded=0;whiteSpace=wrap;html=1;fillColor=#dae8fc;strokeColor=#6c8ebf;" parent="1" vertex="1">
          <mxGeometry x="40" y="40" width="80" height="40" as="geometry" />
        </mxCell>
        <mxCell id="a1rnbtBH1N4sPWhClXTL-5" style="edgeStyle=orthogonalEdgeStyle;rounded=0;orthogonalLoop=1;jettySize=auto;html=1;entryX=0;entryY=0.5;entryDx=0;entryDy=0;endArrow=none;endFill=0;" parent="1" source="a1rnbtBH1N4sPWhClXTL-2" target="a1rnbtBH1N4sPWhClXTL-3" edge="1">
          <mxGeometry relative="1" as="geometry" />
        </mxCell>
        <mxCell id="a1rnbtBH1N4sPWhClXTL-2" value="Number" style="rounded=0;whiteSpace=wrap;html=1;fillColor=#fff2cc;strokeColor=#d6b656;" parent="1" vertex="1">
          <mxGeometry x="100" y="100" width="80" height="40" as="geometry" />
        </mxCell>
        <mxCell id="a1rnbtBH1N4sPWhClXTL-3" value="Integer" style="rounded=0;whiteSpace=wrap;html=1;fillColor=#f8cecc;strokeColor=#b85450;" parent="1" vertex="1">
          <mxGeometry x="160" y="160" width="80" height="40" as="geometry" />
        </mxCell>
        <mxCell id="a1rnbtBH1N4sPWhClXTL-8" value="&lt;pre style=&quot;font-family: &amp;quot;DejaVu Sans Mono&amp;quot;, monospace; font-size: 14px; margin-top: 0px; color: rgb(53, 56, 51); text-align: left; background-color: rgb(255, 255, 255);&quot;&gt;public class &lt;span style=&quot;font-weight: bold;&quot; class=&quot;typeNameLabel&quot;&gt;Object&lt;/span&gt;&lt;/pre&gt;" style="text;html=1;align=center;verticalAlign=middle;resizable=0;points=[];autosize=1;strokeColor=none;fillColor=none;" parent="1" vertex="1">
          <mxGeometry x="125" y="50" width="150" height="30" as="geometry" />
        </mxCell>
        <mxCell id="a1rnbtBH1N4sPWhClXTL-9" value="&lt;pre style=&quot;text-align: left; font-family: &amp;quot;DejaVu Sans Mono&amp;quot;, monospace; font-size: 14px; margin-top: 0px; background-color: rgb(255, 255, 255);&quot;&gt;&lt;font color=&quot;#353833&quot;&gt;public abstract class &lt;/font&gt;&lt;span style=&quot;color: rgb(53, 56, 51); font-weight: bold;&quot; class=&quot;typeNameLabel&quot;&gt;Number &lt;/span&gt;&lt;font color=&quot;#353833&quot;&gt;extends &lt;/font&gt;&lt;a style=&quot;text-decoration-line: none;&quot; title=&quot;class in java.lang&quot; href=&quot;https://docs.oracle.com/javase/jp/11/docs/api/java.base/java/lang/Object.html&quot;&gt;&lt;b style=&quot;&quot;&gt;&lt;font color=&quot;#000000&quot;&gt;Object&lt;/font&gt;&lt;/b&gt;&lt;/a&gt;&lt;/pre&gt;" style="text;html=1;align=center;verticalAlign=middle;resizable=0;points=[];autosize=1;strokeColor=none;fillColor=none;" parent="1" vertex="1">
          <mxGeometry x="183" y="109" width="324" height="32" as="geometry" />
        </mxCell>
        <mxCell id="a1rnbtBH1N4sPWhClXTL-11" value="&lt;pre style=&quot;font-family: &amp;quot;DejaVu Sans Mono&amp;quot;, monospace; font-size: 14px; margin-top: 0px; text-align: left; background-color: rgb(255, 255, 255);&quot;&gt;&lt;font color=&quot;#353833&quot;&gt;public final class &lt;/font&gt;&lt;span style=&quot;color: rgb(53, 56, 51); font-weight: bold;&quot; class=&quot;typeNameLabel&quot;&gt;Integer &lt;/span&gt;&lt;font color=&quot;#353833&quot;&gt;extends &lt;/font&gt;&lt;a style=&quot;text-decoration-line: none;&quot; title=&quot;class in java.lang&quot; href=&quot;https://docs.oracle.com/javase/jp/11/docs/api/java.base/java/lang/Number.html&quot;&gt;&lt;b style=&quot;&quot;&gt;&lt;font color=&quot;#000000&quot;&gt;Number&lt;/font&gt;&lt;/b&gt;&lt;/a&gt;&lt;/pre&gt;" style="text;html=1;align=center;verticalAlign=middle;resizable=0;points=[];autosize=1;strokeColor=none;fillColor=none;" parent="1" vertex="1">
          <mxGeometry x="245" y="169" width="311" height="32" as="geometry" />
        </mxCell>
        <mxCell id="ZiH6JZECW5D-aBjrmczG-1" value="AnimalBaseClass" style="rounded=0;whiteSpace=wrap;html=1;fillColor=#dae8fc;strokeColor=#6c8ebf;" parent="1" vertex="1">
          <mxGeometry x="40" y="440" width="120" height="40" as="geometry" />
        </mxCell>
        <mxCell id="ZiH6JZECW5D-aBjrmczG-2" value="FishClass" style="rounded=0;whiteSpace=wrap;html=1;fillColor=#fff2cc;strokeColor=#d6b656;" parent="1" vertex="1">
          <mxGeometry x="120" y="500" width="120" height="40" as="geometry" />
        </mxCell>
        <mxCell id="ZiH6JZECW5D-aBjrmczG-3" value="SeaFishClass" style="rounded=0;whiteSpace=wrap;html=1;fillColor=#f8cecc;strokeColor=#b85450;" parent="1" vertex="1">
          <mxGeometry x="200" y="560" width="120" height="40" as="geometry" />
        </mxCell>
        <mxCell id="ZiH6JZECW5D-aBjrmczG-4" style="edgeStyle=orthogonalEdgeStyle;rounded=0;orthogonalLoop=1;jettySize=auto;html=1;entryX=0;entryY=0.5;entryDx=0;entryDy=0;endArrow=none;endFill=0;" parent="1" source="ZiH6JZECW5D-aBjrmczG-2" target="ZiH6JZECW5D-aBjrmczG-3" edge="1">
          <mxGeometry relative="1" as="geometry" />
        </mxCell>
        <mxCell id="ZiH6JZECW5D-aBjrmczG-5" style="edgeStyle=orthogonalEdgeStyle;rounded=0;orthogonalLoop=1;jettySize=auto;html=1;entryX=0;entryY=0.5;entryDx=0;entryDy=0;endArrow=none;endFill=0;" parent="1" source="ZiH6JZECW5D-aBjrmczG-1" target="ZiH6JZECW5D-aBjrmczG-2" edge="1">
          <mxGeometry relative="1" as="geometry" />
        </mxCell>
        <mxCell id="ZiH6JZECW5D-aBjrmczG-6" value="BirdClass" style="rounded=0;whiteSpace=wrap;html=1;fillColor=#fff2cc;strokeColor=#d6b656;" parent="1" vertex="1">
          <mxGeometry x="120" y="640" width="120" height="40" as="geometry" />
        </mxCell>
        <mxCell id="ZiH6JZECW5D-aBjrmczG-7" style="edgeStyle=orthogonalEdgeStyle;rounded=0;orthogonalLoop=1;jettySize=auto;html=1;entryX=0;entryY=0.5;entryDx=0;entryDy=0;endArrow=none;endFill=0;exitX=0.5;exitY=1;exitDx=0;exitDy=0;" parent="1" source="ZiH6JZECW5D-aBjrmczG-1" target="ZiH6JZECW5D-aBjrmczG-6" edge="1">
          <mxGeometry relative="1" as="geometry">
            <mxPoint x="110" y="490" as="sourcePoint" />
            <mxPoint x="130" y="530" as="targetPoint" />
          </mxGeometry>
        </mxCell>
        <mxCell id="ZiH6JZECW5D-aBjrmczG-8" value="Double" style="rounded=0;whiteSpace=wrap;html=1;fillColor=#f8cecc;strokeColor=#b85450;" parent="1" vertex="1">
          <mxGeometry x="160" y="210" width="80" height="40" as="geometry" />
        </mxCell>
        <mxCell id="ZiH6JZECW5D-aBjrmczG-10" value="Short" style="rounded=0;whiteSpace=wrap;html=1;fillColor=#f8cecc;strokeColor=#b85450;" parent="1" vertex="1">
          <mxGeometry x="160" y="260" width="80" height="40" as="geometry" />
        </mxCell>
        <mxCell id="ZiH6JZECW5D-aBjrmczG-11" value="" style="endArrow=none;dashed=1;html=1;dashPattern=1 3;strokeWidth=2;rounded=0;" parent="1" edge="1">
          <mxGeometry width="50" height="50" relative="1" as="geometry">
            <mxPoint x="183" y="360" as="sourcePoint" />
            <mxPoint x="183" y="310" as="targetPoint" />
          </mxGeometry>
        </mxCell>
        <mxCell id="ZiH6JZECW5D-aBjrmczG-12" style="edgeStyle=orthogonalEdgeStyle;rounded=0;orthogonalLoop=1;jettySize=auto;html=1;entryX=0;entryY=0.5;entryDx=0;entryDy=0;endArrow=none;endFill=0;exitX=0.5;exitY=1;exitDx=0;exitDy=0;" parent="1" source="a1rnbtBH1N4sPWhClXTL-2" target="ZiH6JZECW5D-aBjrmczG-10" edge="1">
          <mxGeometry relative="1" as="geometry">
            <mxPoint x="150" y="150" as="sourcePoint" />
            <mxPoint x="170" y="190" as="targetPoint" />
          </mxGeometry>
        </mxCell>
        <mxCell id="ZiH6JZECW5D-aBjrmczG-13" style="edgeStyle=orthogonalEdgeStyle;rounded=0;orthogonalLoop=1;jettySize=auto;html=1;entryX=0;entryY=0.5;entryDx=0;entryDy=0;endArrow=none;endFill=0;exitX=0.5;exitY=1;exitDx=0;exitDy=0;" parent="1" source="a1rnbtBH1N4sPWhClXTL-2" target="ZiH6JZECW5D-aBjrmczG-8" edge="1">
          <mxGeometry relative="1" as="geometry">
            <mxPoint x="150" y="150" as="sourcePoint" />
            <mxPoint x="170" y="290" as="targetPoint" />
          </mxGeometry>
        </mxCell>
        <mxCell id="ZiH6JZECW5D-aBjrmczG-14" style="edgeStyle=orthogonalEdgeStyle;rounded=0;orthogonalLoop=1;jettySize=auto;html=1;endArrow=none;endFill=0;exitX=0.5;exitY=1;exitDx=0;exitDy=0;" parent="1" source="a1rnbtBH1N4sPWhClXTL-2" edge="1">
          <mxGeometry relative="1" as="geometry">
            <mxPoint x="150" y="150" as="sourcePoint" />
            <mxPoint x="160" y="330" as="targetPoint" />
            <Array as="points">
              <mxPoint x="140" y="330" />
              <mxPoint x="160" y="330" />
            </Array>
          </mxGeometry>
        </mxCell>
        <mxCell id="SPSECF_UbKZy3gt8doxI-1" value="&lt;h1 style=&quot;font-size: 16px;&quot;&gt;&lt;span style=&quot;background-color: initial; font-size: 16px;&quot;&gt;&lt;span style=&quot;font-size: 16px;&quot;&gt;Integer&lt;/span&gt;&lt;span style=&quot;font-size: 16px; font-weight: normal;&quot;&gt;：&lt;/span&gt;&lt;/span&gt;&lt;font style=&quot;font-size: 16px; font-weight: normal;&quot;&gt;内部にintを含んだラッパークラス&lt;br style=&quot;font-size: 16px;&quot;&gt;&lt;span style=&quot;white-space: pre; font-size: 16px;&quot;&gt;&#x9;&lt;/span&gt;&lt;span style=&quot;white-space: pre; font-size: 16px;&quot;&gt;&#x9;&lt;/span&gt;final classなのでそれ以上継承することはできない&lt;br style=&quot;font-size: 16px;&quot;&gt;&lt;/font&gt;&lt;/h1&gt;" style="text;html=1;strokeColor=#666666;fillColor=#f5f5f5;spacing=5;spacingTop=0;whiteSpace=wrap;overflow=hidden;rounded=0;fontColor=#333333;fontSize=16;align=left;verticalAlign=middle;" parent="1" vertex="1">
          <mxGeometry x="368" y="201" width="450" height="69" as="geometry" />
        </mxCell>
      </root>
    </mxGraphModel>
  </diagram>
  <diagram id="BPpQIYX7NJ1y7qTwCnaz" name="Stream">
    <mxGraphModel dx="1243" dy="809" grid="0" gridSize="10" guides="1" tooltips="1" connect="1" arrows="1" fold="1" page="1" pageScale="1" pageWidth="827" pageHeight="1169" math="0" shadow="0">
      <root>
        <mxCell id="0" />
        <mxCell id="1" parent="0" />
        <mxCell id="a-crI-kmcbAa50jT08iG-2" style="edgeStyle=none;rounded=0;orthogonalLoop=1;jettySize=auto;html=1;entryX=0.5;entryY=0;entryDx=0;entryDy=0;entryPerimeter=0;fontSize=16;fontColor=#CC00CC;" parent="1" source="5ioJbvkc6axWIDbZVevC-3" target="bQdmMdeOuC6ZOWDymSig-3" edge="1">
          <mxGeometry relative="1" as="geometry" />
        </mxCell>
        <mxCell id="5ioJbvkc6axWIDbZVevC-3" value="Stream" style="rounded=0;whiteSpace=wrap;html=1;fillColor=#fff2cc;strokeColor=#d6b656;gradientColor=#ffd966;fontSize=16;" parent="1" vertex="1">
          <mxGeometry x="200" y="182.5" width="80" height="50" as="geometry" />
        </mxCell>
        <mxCell id="bQdmMdeOuC6ZOWDymSig-2" value="&lt;h1&gt;Functional Programing with Java Stream API&lt;/h1&gt;" style="text;html=1;strokeColor=none;fillColor=none;spacing=5;spacingTop=-20;whiteSpace=wrap;overflow=hidden;rounded=0;" parent="1" vertex="1">
          <mxGeometry x="40" y="40" width="760" height="50" as="geometry" />
        </mxCell>
        <mxCell id="bQdmMdeOuC6ZOWDymSig-3" value="" style="shape=cylinder3;whiteSpace=wrap;html=1;boundedLbl=1;backgroundOutline=1;size=15;rotation=-90;fillColor=#dae8fc;strokeColor=#6c8ebf;gradientColor=#7ea6e0;" parent="1" vertex="1">
          <mxGeometry x="340" y="150" width="60" height="115" as="geometry" />
        </mxCell>
        <mxCell id="bQdmMdeOuC6ZOWDymSig-4" value="filter" style="text;html=1;strokeColor=none;fillColor=none;align=center;verticalAlign=middle;whiteSpace=wrap;rounded=0;fontSize=16;" parent="1" vertex="1">
          <mxGeometry x="352.5" y="192.5" width="60" height="30" as="geometry" />
        </mxCell>
        <mxCell id="bQdmMdeOuC6ZOWDymSig-9" value="" style="shape=cylinder3;whiteSpace=wrap;html=1;boundedLbl=1;backgroundOutline=1;size=15;rotation=-90;fillColor=#dae8fc;strokeColor=#6c8ebf;gradientColor=#7ea6e0;" parent="1" vertex="1">
          <mxGeometry x="482.5" y="150" width="60" height="115" as="geometry" />
        </mxCell>
        <mxCell id="bQdmMdeOuC6ZOWDymSig-10" value="map" style="text;html=1;strokeColor=none;fillColor=none;align=center;verticalAlign=middle;whiteSpace=wrap;rounded=0;fontSize=16;" parent="1" vertex="1">
          <mxGeometry x="495" y="192.5" width="60" height="30" as="geometry" />
        </mxCell>
        <mxCell id="bQdmMdeOuC6ZOWDymSig-11" value="" style="shape=cylinder3;whiteSpace=wrap;html=1;boundedLbl=1;backgroundOutline=1;size=15;rotation=-90;fillColor=#dae8fc;strokeColor=#6c8ebf;gradientColor=#7ea6e0;" parent="1" vertex="1">
          <mxGeometry x="622.5" y="150" width="60" height="115" as="geometry" />
        </mxCell>
        <mxCell id="bQdmMdeOuC6ZOWDymSig-12" value="collect" style="text;html=1;strokeColor=none;fillColor=none;align=center;verticalAlign=middle;whiteSpace=wrap;rounded=0;fontSize=16;" parent="1" vertex="1">
          <mxGeometry x="635" y="192.5" width="60" height="30" as="geometry" />
        </mxCell>
        <mxCell id="bQdmMdeOuC6ZOWDymSig-15" value="" style="shape=flexArrow;endArrow=classic;html=1;rounded=0;fontSize=16;fontColor=#000000;fillColor=#ffcd28;gradientColor=#ffa500;strokeColor=#d79b00;endWidth=10.285714285714286;endSize=6.394285714285714;width=6.857142857142857;" parent="1" edge="1">
          <mxGeometry width="50" height="50" relative="1" as="geometry">
            <mxPoint x="427.5" y="207" as="sourcePoint" />
            <mxPoint x="472.5" y="207.5" as="targetPoint" />
          </mxGeometry>
        </mxCell>
        <mxCell id="bQdmMdeOuC6ZOWDymSig-16" value="" style="shape=flexArrow;endArrow=classic;html=1;rounded=0;fontSize=16;fontColor=#000000;fillColor=#ffcd28;gradientColor=#ffa500;strokeColor=#d79b00;endWidth=10.285714285714286;endSize=6.394285714285714;width=6.857142857142857;" parent="1" edge="1">
          <mxGeometry width="50" height="50" relative="1" as="geometry">
            <mxPoint x="569.5" y="207.21" as="sourcePoint" />
            <mxPoint x="614.5" y="207.71" as="targetPoint" />
          </mxGeometry>
        </mxCell>
        <mxCell id="5ioJbvkc6axWIDbZVevC-5" style="edgeStyle=orthogonalEdgeStyle;rounded=0;orthogonalLoop=1;jettySize=auto;html=1;entryX=0;entryY=0.5;entryDx=0;entryDy=0;fontSize=16;" parent="1" source="5ioJbvkc6axWIDbZVevC-4" target="5ioJbvkc6axWIDbZVevC-3" edge="1">
          <mxGeometry relative="1" as="geometry" />
        </mxCell>
        <mxCell id="5ioJbvkc6axWIDbZVevC-4" value="Collection" style="rounded=1;whiteSpace=wrap;html=1;fontSize=16;fillColor=#ffcc99;strokeColor=#36393d;" parent="1" vertex="1">
          <mxGeometry x="60" y="177.5" width="100" height="60" as="geometry" />
        </mxCell>
        <mxCell id="a-crI-kmcbAa50jT08iG-3" value="" style="shape=curlyBracket;whiteSpace=wrap;html=1;rounded=1;flipH=1;fontSize=16;fontColor=#CC00CC;rotation=90;" parent="1" vertex="1">
          <mxGeometry x="425" y="145" width="30" height="240" as="geometry" />
        </mxCell>
        <mxCell id="a-crI-kmcbAa50jT08iG-4" value="中間処理" style="text;html=1;align=center;verticalAlign=middle;resizable=0;points=[];autosize=1;strokeColor=none;fillColor=none;fontSize=16;fontColor=#000000;" parent="1" vertex="1">
          <mxGeometry x="400" y="280" width="80" height="20" as="geometry" />
        </mxCell>
        <mxCell id="a-crI-kmcbAa50jT08iG-5" value="Stream型に変換" style="text;html=1;align=center;verticalAlign=middle;resizable=0;points=[];autosize=1;strokeColor=none;fillColor=none;fontSize=16;fontColor=#000000;" parent="1" vertex="1">
          <mxGeometry x="175" y="280" width="130" height="20" as="geometry" />
        </mxCell>
        <mxCell id="a-crI-kmcbAa50jT08iG-6" value="終端処理" style="text;html=1;align=center;verticalAlign=middle;resizable=0;points=[];autosize=1;strokeColor=none;fillColor=none;fontSize=16;fontColor=#000000;" parent="1" vertex="1">
          <mxGeometry x="612.5" y="280" width="80" height="20" as="geometry" />
        </mxCell>
        <mxCell id="3YFzkBGhafWc0HLmvaiu-1" value="&lt;ol style=&quot;&quot;&gt;&lt;li&gt;&lt;span style=&quot;color: rgb(0, 0, 0); font-family: Helvetica; font-style: normal; font-variant-ligatures: normal; font-variant-caps: normal; font-weight: 400; letter-spacing: normal; orphans: 2; text-align: left; text-indent: 0px; text-transform: none; widows: 2; word-spacing: 0px; -webkit-text-stroke-width: 0px; background-color: rgb(248, 249, 250); text-decoration-thickness: initial; text-decoration-style: initial; text-decoration-color: initial; float: none; display: inline !important;&quot;&gt;コレクションでStreamを呼び出すと、コレクションの中身を1つずつ取り出して、Streamに渡し始めるます&lt;br&gt;パイプライン処理とも呼びます&lt;br&gt;&lt;br&gt;&lt;/span&gt;&lt;/li&gt;&lt;li&gt;&lt;span style=&quot;color: rgb(0, 0, 0); font-family: Helvetica; font-style: normal; font-variant-ligatures: normal; font-variant-caps: normal; font-weight: 400; letter-spacing: normal; orphans: 2; text-align: left; text-indent: 0px; text-transform: none; widows: 2; word-spacing: 0px; -webkit-text-stroke-width: 0px; background-color: rgb(248, 249, 250); text-decoration-thickness: initial; text-decoration-style: initial; text-decoration-color: initial; float: none; display: inline !important;&quot;&gt;中間処理：&lt;br&gt;バケツリレーのようにStreamに流されたデータを処理していきます&lt;br&gt;filter はPredicateの処理を行い、trueとなったデータがあれば、次の処理に引き渡します&lt;br&gt;map はFunction&amp;lt;T, R&amp;gt;の処理を行い、R型のデータを次の処理に引き渡します&lt;br&gt;&lt;br&gt;&lt;/span&gt;&lt;/li&gt;&lt;li&gt;&lt;span style=&quot;color: rgb(0, 0, 0); font-family: Helvetica; font-style: normal; font-variant-ligatures: normal; font-variant-caps: normal; font-weight: 400; letter-spacing: normal; orphans: 2; text-align: left; text-indent: 0px; text-transform: none; widows: 2; word-spacing: 0px; -webkit-text-stroke-width: 0px; background-color: rgb(248, 249, 250); text-decoration-thickness: initial; text-decoration-style: initial; text-decoration-color: initial; float: none; display: inline !important;&quot;&gt;終端処理&lt;br&gt;パイプラインでフィルターリング、マッピングなどされた結果をまとめます&lt;/span&gt;&lt;/li&gt;&lt;/ol&gt;" style="text;whiteSpace=wrap;html=1;fontSize=16;" parent="1" vertex="1">
          <mxGeometry x="80" y="360" width="670" height="250" as="geometry" />
        </mxCell>
        <mxCell id="ZaAAvN2NhhfswHW7BS-9-1" value="&lt;span style=&quot;background-color: initial;&quot;&gt;JavaとC#のラムダ構文ができるまでの経緯&lt;/span&gt;&lt;br style=&quot;background-color: initial;&quot;&gt;&lt;ol style=&quot;&quot;&gt;&lt;li&gt;Javaの場合&lt;br&gt;関数型インタフェースで宣言したConsumer&amp;lt;T&amp;gt;, Supplier&amp;lt;T&amp;gt;, Predicate&amp;lt;T&amp;gt;, Function&amp;lt;T, R&amp;gt; などを利用していく&lt;br&gt;これをさらにラムダ構文で使う&lt;br&gt;推論できる型などはとにかく省略するという考え方&lt;br&gt;&lt;br&gt;&lt;/li&gt;&lt;li&gt;C#の場合&lt;br&gt;delegate型がありメソッドそのものを変数として扱えるようにした&lt;br&gt;これをAction&amp;lt;T, R, .....n&amp;gt;, Func&amp;lt;T, R, ....n&amp;gt;というものが作られ&lt;br&gt;そこからラムダ構文で使うようになりました&lt;/li&gt;&lt;/ol&gt;&lt;div&gt;&lt;br&gt;&lt;/div&gt;JavaのStreamAPIとC#のLinq&lt;br&gt;&lt;ul&gt;&lt;li&gt;&lt;span style=&quot;background-color: initial;&quot;&gt;どちらもイテレータに対する処理です&lt;/span&gt;&lt;/li&gt;&lt;li&gt;JavaではSteam()でイテレータをパイプラインに渡します&lt;br&gt;パイプラインに渡されたものを中間処理用のメソッドで処理します&lt;/li&gt;&lt;li&gt;C#ではList自体にパイプライン処理が組み込まれていてStream()は不要&lt;br&gt;書き方はSQLに似たものを利用している(where, select)&lt;br&gt;LinqはListだけでなくxmlに対して等も処理できるようになっているがあまり使われてはいない。&lt;/li&gt;&lt;/ul&gt;" style="text;whiteSpace=wrap;html=1;fontSize=16;" parent="1" vertex="1">
          <mxGeometry x="85" y="680" width="670" height="470" as="geometry" />
        </mxCell>
      </root>
    </mxGraphModel>
  </diagram>
</mxfile>
